<svg width="49" height="48" viewBox="0 0 49 48" fill="none" xmlns="http://www.w3.org/2000/svg">
<path d="M48.4745 24C48.4745 10.776 37.6985 0 24.4745 0C11.2505 0 0.474487 10.776 0.474487 24C0.474487 30.96 3.47449 37.224 8.22649 41.616C8.22649 41.64 8.22649 41.64 8.20249 41.664C8.44249 41.904 8.73049 42.096 8.97049 42.312C9.11449 42.432 9.23449 42.552 9.37849 42.648C9.81049 43.008 10.2905 43.344 10.7465 43.68C10.9145 43.8 11.0585 43.896 11.2265 44.016C11.6825 44.328 12.1625 44.616 12.6665 44.88C12.8345 44.976 13.0265 45.096 13.1945 45.192C13.6745 45.456 14.1785 45.696 14.7065 45.912C14.8985 46.008 15.0905 46.104 15.2825 46.176C15.8105 46.392 16.3385 46.584 16.8665 46.752C17.0585 46.824 17.2505 46.896 17.4425 46.944C18.0185 47.112 18.5945 47.256 19.1705 47.4C19.3385 47.448 19.5065 47.496 19.6985 47.52C20.3705 47.664 21.0425 47.76 21.7385 47.832C21.8345 47.832 21.9305 47.856 22.0265 47.88C22.8425 47.952 23.6585 48 24.4745 48C25.2905 48 26.1065 47.952 26.8985 47.88C26.9945 47.88 27.0905 47.856 27.1865 47.832C27.8825 47.76 28.5545 47.664 29.2265 47.52C29.3945 47.496 29.5625 47.424 29.7545 47.4C30.3305 47.256 30.9305 47.136 31.4825 46.944C31.6745 46.872 31.8665 46.8 32.0585 46.752C32.5865 46.56 33.1385 46.392 33.6425 46.176C33.8345 46.104 34.0265 46.008 34.2185 45.912C34.7225 45.696 35.2265 45.456 35.7305 45.192C35.9225 45.096 36.0905 44.976 36.2585 44.88C36.7385 44.592 37.2185 44.328 37.6985 44.016C37.8665 43.92 38.0105 43.8 38.1785 43.68C38.6585 43.344 39.1145 43.008 39.5465 42.648C39.6905 42.528 39.8105 42.408 39.9545 42.312C40.2185 42.096 40.4825 41.88 40.7225 41.664C40.7225 41.64 40.7225 41.64 40.6985 41.616C45.4745 37.224 48.4745 30.96 48.4745 24ZM36.3305 35.928C29.8265 31.56 19.1705 31.56 12.6185 35.928C11.5625 36.624 10.6985 37.44 9.97849 38.328C6.33049 34.632 4.07449 29.568 4.07449 24C4.07449 12.744 13.2185 3.6 24.4745 3.6C35.7305 3.6 44.8745 12.744 44.8745 24C44.8745 29.568 42.6185 34.632 38.9705 38.328C38.2745 37.44 37.3865 36.624 36.3305 35.928Z" fill="black"/>
<path d="M24.4745 11.8312C19.5065 11.8312 15.4745 15.8632 15.4745 20.8313C15.4745 25.7033 19.2905 29.6633 24.3545 29.8073H24.5705H24.7385H24.7865C29.6345 29.6393 33.4505 25.7033 33.4745 20.8313C33.4745 15.8632 29.4425 11.8312 24.4745 11.8312Z" fill="black"/>
</svg>
