<svg width="40" height="40" viewBox="0 0 40 40" fill="none" xmlns="http://www.w3.org/2000/svg">
<g clip-path="url(#clip0_367_5399)">
<path d="M31.7125 37.6937H31.225L26.1938 37.3375C24.55 37.2187 22.35 37.1562 20.0063 37.1562C17.6625 37.1562 15.4625 37.2187 13.8188 37.3375L8.75001 37.675C6.91501 37.84 5.10626 37.1481 3.85001 35.8C2.73314 34.56 2.17939 32.9131 2.31876 31.25L2.68126 26.1875C2.92501 22.0637 2.92501 17.93 2.68126 13.8062L2.31876 8.74998C2.17814 7.07185 2.74439 5.41123 3.88126 4.16873C5.13751 2.8206 6.94626 2.12873 8.78126 2.29373L13.8125 2.68123C15.4563 2.79998 17.6563 2.86248 20 2.86248C22.3438 2.86248 24.5438 2.79998 26.1875 2.68123L31.25 2.32498C33.085 2.15998 34.8938 2.85185 36.15 4.19998C37.2669 5.43998 37.8206 7.08685 37.6813 8.74998L37.3188 13.8125C37.075 17.9362 37.075 22.07 37.3188 26.1937L37.6813 31.25C37.8325 32.9375 37.2681 34.6112 36.125 35.8625C34.9756 37.0637 33.375 37.7281 31.7125 37.6937ZM20 35.8875C22.375 35.8875 24.6063 35.9562 26.25 36.075L31.2813 36.4312C33.835 36.705 36.1263 34.8562 36.4 32.3031C36.435 31.9737 36.435 31.6418 36.4 31.3125L36.0688 26.25C35.8219 22.0681 35.8219 17.8756 36.0688 13.6937L36.4313 8.66248C36.6906 6.10748 34.83 3.8256 32.275 3.56623C31.955 3.53373 31.6325 3.53435 31.3125 3.56873L26.25 3.92498C24.575 4.04373 22.35 4.11248 20 4.11248C17.65 4.11248 15.3938 4.04373 13.75 3.92498L8.68751 3.56873C7.23938 3.42685 5.80501 3.95373 4.79376 4.99998C3.88064 5.9931 3.42689 7.32435 3.54376 8.66873L3.93126 13.75C4.17626 17.9131 4.17626 22.0868 3.93126 26.25L3.56876 31.3125C3.45189 32.6568 3.90564 33.9881 4.81876 34.9812C5.82689 36.0343 7.26126 36.5687 8.71251 36.4312L13.75 36.075C15.3938 35.95 17.625 35.8875 20 35.8875Z" fill="#9DACBA"/>
<path d="M39.375 21.25H38.125V18.75H39.375C39.72 18.75 40 19.03 40 19.375V20.625C40 20.97 39.72 21.25 39.375 21.25Z" fill="#92582B"/>
<path d="M1.875 21.25H0.625C0.28 21.25 0 20.97 0 20.625V19.375C0 19.03 0.28 18.75 0.625 18.75H1.875V21.25Z" fill="#92582B"/>
<path d="M18.75 39.375V38.125H21.25V39.375C21.25 39.72 20.97 40 20.625 40H19.375C19.03 40 18.75 39.72 18.75 39.375Z" fill="#92582B"/>
<path d="M18.75 1.875V0.625C18.75 0.28 19.03 0 19.375 0H20.625C20.97 0 21.25 0.28 21.25 0.625V1.875H18.75Z" fill="#92582B"/>
<path d="M20 1.25C9.64437 1.25 1.25 9.64437 1.25 20C1.25 30.3556 9.64437 38.75 20 38.75C30.3556 38.75 38.75 30.3556 38.75 20C38.75 9.64437 30.3556 1.25 20 1.25ZM20 30C14.4769 30 10 25.5231 10 20C10 14.4769 14.4769 10 20 10C25.5231 10 30 14.4769 30 20C30 25.5231 25.5231 30 20 30Z" fill="#E2E7F0"/>
<path d="M36.0812 22.3563C35.0487 29.4788 29.4537 35.0738 22.3312 36.1063C21.0094 36.2938 20.0206 37.415 20 38.75C30.3556 38.75 38.75 30.3556 38.75 20C37.3975 20.01 36.2587 21.015 36.0812 22.3563Z" fill="#C9D5E3"/>
<path d="M29.9998 20C29.9998 21.5806 29.6223 23.1381 28.8998 24.5437L37.7935 25.9125C39.0679 22.0756 39.0679 17.9306 37.7935 14.0938L28.8998 15.4563C29.6223 16.8619 29.9992 18.4194 29.9998 20Z" fill="url(#paint0_linear_367_5399)"/>
<path d="M25.9123 37.7935L24.5435 28.8997C21.6923 30.3678 18.3073 30.3678 15.456 28.8997L14.0873 37.7935C17.926 39.0691 22.0735 39.0691 25.9123 37.7935Z" fill="url(#paint1_linear_367_5399)"/>
<path d="M35.2812 25.525L37.7812 25.9125C38.0881 24.9862 38.3219 24.0375 38.4812 23.075V23.0188C38.5562 22.5688 38.6062 22.1063 38.65 21.6438C38.65 21.5625 38.65 21.475 38.65 21.3937C38.75 20.9312 38.75 20.4688 38.75 20C37.3975 20.01 36.2587 21.015 36.0812 22.3563C35.9225 23.4369 35.6544 24.4988 35.2812 25.525Z" fill="#2BA357"/>
<path d="M21.6375 38.6747C22.1 38.631 22.5625 38.581 23.0125 38.506H23.0625C24.0269 38.3472 24.9781 38.1128 25.9063 37.806L25.5188 35.306C24.4919 35.6766 23.4306 35.9428 22.35 36.0997C21.0187 36.2791 20.0188 37.4066 20 38.7497C20.4688 38.7497 20.9312 38.7497 21.3937 38.6935L21.6375 38.6747Z" fill="#2BA357"/>
<path d="M20 10V7.5C13.0963 7.5 7.5 13.0963 7.5 20H10C10 14.4769 14.4769 10 20 10Z" fill="#C9D5E3"/>
<path d="M9.99994 20C9.99994 18.4837 10.3462 16.9875 11.0124 15.625L2.03745 14.6125C0.981821 18.1287 0.981821 21.8775 2.03745 25.3937L11.0062 24.375C10.3418 23.0125 9.99807 21.5156 9.99994 20Z" fill="url(#paint2_linear_367_5399)"/>
<path d="M8.40621 15.3438C8.14434 15.9819 7.93559 16.64 7.78121 17.3125C7.53246 18.5231 8.31246 19.7056 9.52309 19.9544C9.67996 19.9869 9.83996 20.0019 9.99996 20C10.0006 19.6306 10.0212 19.2613 10.0625 18.8938C10.0625 18.8188 10.0625 18.75 10.0937 18.675C10.1312 18.375 10.1875 18.05 10.25 17.7875L10.2875 17.6313C10.3668 17.3106 10.4606 16.9981 10.5687 16.6938V16.6313C10.6981 16.2881 10.8462 15.9519 11.0125 15.625L8.40621 15.3438Z" fill="#2BA357"/>
<path d="M14.0875 2.20623L15.4563 11.1C18.3081 9.63373 21.6919 9.63373 24.5438 11.1L25.9125 2.20623C22.0738 0.930606 17.9263 0.930606 14.0875 2.20623Z" fill="url(#paint3_linear_367_5399)"/>
<path d="M15.0625 8.51878L15.4625 11.1C15.7694 10.9444 16.0844 10.8044 16.4062 10.6813L16.7125 10.5688C16.9 10.5063 17.0875 10.4438 17.275 10.3875L17.8062 10.25L18.125 10.1875C18.3831 10.1375 18.6456 10.0982 18.9125 10.0688H19.1125C19.375 10 19.6938 10 20 10C20.0069 8.76065 19.0075 7.75065 17.7681 7.7444C17.6063 7.74378 17.4456 7.76003 17.2875 7.79378C16.525 7.96503 15.78 8.20815 15.0625 8.51878Z" fill="#2BA357"/>
</g>
<defs>
<linearGradient id="paint0_linear_367_5399" x1="28.7998" y1="15.6" x2="37.8664" y2="25.8667" gradientUnits="userSpaceOnUse">
<stop stop-color="#3FC2E2"/>
<stop offset="1" stop-color="#4CDB80"/>
</linearGradient>
<linearGradient id="paint1_linear_367_5399" x1="15.8664" y1="29.7331" x2="25.8664" y2="37.5997" gradientUnits="userSpaceOnUse">
<stop stop-color="#3FC2E2"/>
<stop offset="1" stop-color="#4CDB80"/>
</linearGradient>
<linearGradient id="paint2_linear_367_5399" x1="2.13323" y1="25.3333" x2="10.9332" y2="15.6" gradientUnits="userSpaceOnUse">
<stop stop-color="#3FC2E2"/>
<stop offset="1" stop-color="#4CDB80"/>
</linearGradient>
<linearGradient id="paint3_linear_367_5399" x1="25.8667" y1="2.39997" x2="15.4667" y2="11.2" gradientUnits="userSpaceOnUse">
<stop stop-color="#3FC2E2"/>
<stop offset="1" stop-color="#4CDB80"/>
</linearGradient>
<clipPath id="clip0_367_5399">
<rect width="40" height="40" fill="white"/>
</clipPath>
</defs>
</svg>
