<svg width="62" height="96" viewBox="0 0 62 96" fill="none" xmlns="http://www.w3.org/2000/svg">
<g filter="url(#filter0_f_625_1972)">
<ellipse cx="31.0002" cy="88.3292" rx="10.8" ry="5.67073" fill="black" fill-opacity="0.12"/>
</g>
<mask id="path-2-outside-1_625_1972" maskUnits="userSpaceOnUse" x="0" y="0" width="62" height="89" fill="black">
<rect fill="white" width="62" height="89"/>
<path fill-rule="evenodd" clip-rule="evenodd" d="M31.0004 87.1951H30.9996H30.8687C29.6159 87.1951 28.6004 86.1795 28.6004 84.9268C28.6004 69.1135 19.2401 59.4247 12.232 52.1706C10.2182 50.0862 8.39863 48.2027 7.05118 46.4328C3.25276 41.6826 1 35.7668 1 29.3537C1 13.6944 14.4315 1 31 1C47.5685 1 61 13.6944 61 29.3537C61 35.7668 58.7472 41.6826 54.9488 46.4328C53.6014 48.2028 51.7818 50.0862 49.768 52.1706C42.7599 59.4247 33.3996 69.1135 33.3996 84.9268C33.3996 86.1795 32.3841 87.1951 31.1313 87.1951H31.0004Z"/>
</mask>
<path fill-rule="evenodd" clip-rule="evenodd" d="M31.0004 87.1951H30.9996H30.8687C29.6159 87.1951 28.6004 86.1795 28.6004 84.9268C28.6004 69.1135 19.2401 59.4247 12.232 52.1706C10.2182 50.0862 8.39863 48.2027 7.05118 46.4328C3.25276 41.6826 1 35.7668 1 29.3537C1 13.6944 14.4315 1 31 1C47.5685 1 61 13.6944 61 29.3537C61 35.7668 58.7472 41.6826 54.9488 46.4328C53.6014 48.2028 51.7818 50.0862 49.768 52.1706C42.7599 59.4247 33.3996 69.1135 33.3996 84.9268C33.3996 86.1795 32.3841 87.1951 31.1313 87.1951H31.0004Z" fill="#EA352B"/>
<path d="M12.232 52.1706L12.9512 51.4758H12.9512L12.232 52.1706ZM7.05118 46.4328L7.84684 45.8271L7.83962 45.8176L7.83219 45.8083L7.05118 46.4328ZM54.9488 46.4328L54.1678 45.8083L54.1604 45.8176L54.1532 45.8271L54.9488 46.4328ZM49.768 52.1706L50.4872 52.8654L49.768 52.1706ZM30.9996 88.1951H31.0004V86.1951H30.9996V88.1951ZM30.8687 88.1951H30.9996V86.1951H30.8687V88.1951ZM27.6004 84.9268C27.6004 86.7318 29.0636 88.1951 30.8687 88.1951V86.1951C30.1682 86.1951 29.6004 85.6273 29.6004 84.9268H27.6004ZM11.5128 52.8654C18.5327 60.1318 27.6004 69.5571 27.6004 84.9268H29.6004C29.6004 68.6698 19.9475 58.7176 12.9512 51.4758L11.5128 52.8654ZM6.25551 47.0385C7.64609 48.8651 9.51178 50.7942 11.5128 52.8654L12.9512 51.4758C10.9246 49.3781 9.15118 47.5404 7.84684 45.8271L6.25551 47.0385ZM0 29.3537C0 36.0067 2.3383 42.1402 6.27016 47.0573L7.83219 45.8083C4.16723 41.225 2 35.5268 2 29.3537H0ZM31 0C13.9331 0 0 13.0897 0 29.3537H2C2 14.2991 14.9298 2 31 2V0ZM62 29.3537C62 13.0897 48.0669 0 31 0V2C47.0702 2 60 14.2991 60 29.3537H62ZM55.7298 47.0573C59.6617 42.1402 62 36.0067 62 29.3537H60C60 35.5268 57.8328 41.225 54.1678 45.8083L55.7298 47.0573ZM50.4872 52.8654C52.4882 50.7942 54.3539 48.8651 55.7445 47.0386L54.1532 45.8271C52.8488 47.5404 51.0754 49.3781 49.0488 51.4758L50.4872 52.8654ZM34.3996 84.9268C34.3996 69.5571 43.4673 60.1318 50.4872 52.8654L49.0488 51.4758C42.0525 58.7176 32.3996 68.6698 32.3996 84.9268H34.3996ZM31.1313 88.1951C32.9364 88.1951 34.3996 86.7318 34.3996 84.9268H32.3996C32.3996 85.6273 31.8318 86.1951 31.1313 86.1951V88.1951ZM31.0004 88.1951H31.1313V86.1951H31.0004V88.1951Z" fill="url(#paint0_linear_625_1972)" mask="url(#path-2-outside-1_625_1972)"/>
<circle cx="31" cy="31" r="20" fill="black" fill-opacity="0.4"/>
<path d="M27.129 42.129L27.129 34.871H19.871C17.7331 34.871 16 33.1379 16 31C16 28.8621 17.7331 27.129 19.871 27.129L27.129 27.129V19.871C27.129 17.7331 28.8621 16 31 16C33.1379 16 34.871 17.7331 34.871 19.871V27.129H42.129C44.2669 27.129 46 28.8621 46 31C46 33.1379 44.2669 34.871 42.129 34.871L34.871 34.871V42.129C34.871 44.2669 33.1379 46 31 46C28.8621 46 27.129 44.2669 27.129 42.129Z" fill="white"/>
<defs>
<filter id="filter0_f_625_1972" x="18.2002" y="80.6584" width="25.6001" height="15.3416" filterUnits="userSpaceOnUse" color-interpolation-filters="sRGB">
<feFlood flood-opacity="0" result="BackgroundImageFix"/>
<feBlend mode="normal" in="SourceGraphic" in2="BackgroundImageFix" result="shape"/>
<feGaussianBlur stdDeviation="1" result="effect1_foregroundBlur_625_1972"/>
</filter>
<linearGradient id="paint0_linear_625_1972" x1="31" y1="1" x2="31" y2="87.1951" gradientUnits="userSpaceOnUse">
<stop stop-color="white"/>
<stop offset="1" stop-color="white" stop-opacity="0.35"/>
</linearGradient>
</defs>
</svg>
