<svg width="311" height="234" viewBox="0 0 311 234" fill="none" xmlns="http://www.w3.org/2000/svg">
<path d="M82.5005 209C76.5811 197.337 65.647 169.676 93.0529 124.566C120.459 79.4557 189.221 84.6961 216.627 102.329C244.033 119.963 257.417 142.765 260.25 166.772C263.012 190.779 251 209 251 209H82.5005Z" fill="url(#paint0_linear_209_2312)"/>
<path d="M284.823 137.738H253.239C251.256 137.738 249.698 136.18 249.698 134.197V118.405C249.698 116.422 251.256 114.864 253.239 114.864H284.823C286.806 114.864 288.364 116.422 288.364 118.405V134.197C288.364 136.18 286.735 137.738 284.823 137.738Z" fill="url(#paint1_linear_209_2312)"/>
<path d="M269.031 146.731L273.988 134.834H264.003L269.031 146.731Z" fill="url(#paint2_linear_209_2312)"/>
<path d="M268.89 122.441H277.954V123.716L282.345 121.167L277.954 118.617V119.963H268.89V122.441Z" fill="#263238"/>
<path d="M282.345 127.611H273.28V126.265L268.89 128.885L273.28 131.435V130.089H282.345V127.611Z" fill="white"/>
<path d="M263.295 129.948L262.87 130.09C262.87 130.09 261.525 128.532 260.817 126.903C260.108 125.203 260.108 123.221 260.108 123.221L260.392 123.079L258.48 118.476C258.126 118.759 257.842 119.113 257.559 119.538C256.497 121.379 256.568 124.141 257.701 126.903C258.763 129.665 259.967 132.073 262.091 133.631C263.366 134.551 264.428 134.693 265.278 134.551L263.295 129.948Z" fill="#263238"/>
<path d="M264.712 129.381L264.146 129.594L266.128 134.268C266.341 134.197 266.553 134.126 266.695 133.984C267.191 133.701 267.403 133.135 267.191 132.568L266.199 130.019C265.916 129.452 265.279 129.169 264.712 129.381Z" fill="#263238"/>
<path d="M260.038 117.697C259.825 117.768 259.542 117.909 259.259 118.051L261.242 122.725L261.879 122.441C262.446 122.229 262.729 121.521 262.516 120.954L261.454 118.334C261.242 117.768 260.604 117.484 260.038 117.697Z" fill="#263238"/>
<path d="M82.7843 212.732V159.974C82.7843 159.974 82.2178 145.74 89.6535 141.633C97.16 137.525 128.602 139.721 128.602 139.721V212.661H82.7843V212.732Z" fill="url(#paint3_linear_209_2312)"/>
<path d="M138.517 90.3618C138.517 90.3618 136.605 106.366 135.896 107.641C135.188 108.986 135.188 108.986 135.188 108.986L131.506 111.465C131.506 111.465 138.517 121.45 147.156 123.008C155.796 124.637 155.088 119.467 155.088 119.467L153.742 116.705L155.513 101.48C155.513 101.551 139.791 94.3275 138.517 90.3618Z" fill="#FF9D8C"/>
<path d="M126.902 112.811L132.638 110.332C132.638 110.332 136.321 116.351 144.819 119.821C153.317 123.291 153.458 121.309 153.883 119.821C154.308 118.334 153.742 116.776 153.742 116.776L154.379 111.678L157.778 112.811L169.534 208.2L139.224 209.687L126.902 112.811Z" fill="white"/>
<path d="M154.946 111.749C154.946 111.749 157 116.493 158.912 127.611C160.824 138.73 162.594 157.496 163.019 170.384C163.444 183.273 163.727 212.732 163.727 212.732C163.727 212.732 201.543 212.732 201.968 212.732C202.393 212.732 205.013 198.215 205.013 198.215C205.013 198.215 188.301 183.91 187.451 181.573C186.884 180.015 187.168 151.052 184.689 137.738C182.211 124.425 178.953 121.734 172.225 118.405C165.215 114.935 154.946 111.749 154.946 111.749Z" fill="#263238"/>
<path d="M174.845 195.949C174.633 195.949 174.491 195.807 174.491 195.595C174.491 194.533 174.279 179.661 174.137 165.285C173.925 150.91 173.783 136.038 173.783 134.976C173.783 134.764 173.925 134.622 174.137 134.622C174.35 134.622 174.491 134.764 174.491 134.976C174.491 136.038 174.704 150.91 174.845 165.285C175.058 179.661 175.2 194.533 175.2 195.595C175.2 195.807 175.058 195.949 174.845 195.949Z" fill="#263238"/>
<path d="M98.6475 192.337L98.3643 212.732H142.908C142.908 212.732 144.82 195.453 144.112 193.824C143.333 192.195 98.6475 192.337 98.6475 192.337Z" fill="#263238"/>
<path d="M148.219 107.216C150.06 108.703 152.538 109.836 154.45 110.544L155.513 101.48C155.513 101.48 143.757 96.0978 139.721 92.0613C140.57 96.6643 142.624 102.755 148.219 107.216Z" fill="#263238"/>
<path d="M169.251 60.6189C169.251 60.6189 172.296 65.8593 172.934 72.3744C173.5 78.8187 172.934 95.3897 167.693 102.401C162.453 109.411 151.406 107.358 146.448 103.109C141.845 99.2138 137.384 94.894 136.18 86.396C134.976 77.8981 138.659 61.752 149.069 58.4236C159.479 55.0953 169.251 60.6189 169.251 60.6189Z" fill="#FF9D8C"/>
<path d="M182.494 203.526C182.494 203.526 181.998 203.526 181.219 203.526C181.007 203.526 180.794 203.526 180.653 203.526C179.874 203.526 178.953 203.455 178.032 203.455C177.82 203.455 177.608 203.455 177.395 203.455C176.475 203.455 175.696 203.526 174.917 203.526C174.775 203.526 174.562 203.526 174.35 203.526C174.279 203.526 174.208 203.526 174.138 203.526C173.713 203.455 173.642 203.384 173.146 203.172C172.58 202.889 164.507 201.118 157.921 201.118C151.406 201.118 145.528 201.614 144.536 200.764C143.545 199.985 142.978 191.7 148.573 191.204L155.442 193.824C155.442 193.824 171.092 191.983 176.899 196.232C182.636 200.41 182.494 203.526 182.494 203.526Z" fill="#FF9D8C"/>
<path d="M174.917 203.456C174.775 203.456 174.563 203.456 174.35 203.456C174.209 203.243 173.926 202.818 173.784 202.677C172.014 200.835 167.765 199.702 166.207 199.348C166.065 199.277 165.994 199.207 165.994 198.994C165.994 198.853 166.136 198.782 166.348 198.782C168.614 199.348 173.43 200.694 174.775 203.031C174.705 203.102 174.846 203.314 174.917 203.456Z" fill="#263238"/>
<path d="M177.961 203.455C177.749 203.455 177.536 203.455 177.324 203.455C175.412 199.915 172.225 198.923 168.33 197.649L168.118 197.578C167.976 197.507 167.905 197.365 167.976 197.224C168.047 197.082 168.188 197.011 168.33 197.082L168.543 197.153C172.65 198.427 175.978 199.49 177.961 203.455Z" fill="#263238"/>
<path d="M181.219 203.526C181.007 203.526 180.794 203.526 180.582 203.526C179.378 201.048 175.554 196.941 170.384 195.949C170.243 195.949 170.172 195.807 170.172 195.666C170.172 195.524 170.314 195.453 170.455 195.453C175.766 196.445 180.015 200.765 181.219 203.526Z" fill="#263238"/>
<path d="M139.65 79.1729C139.65 79.1729 142.907 77.615 145.174 73.2952C147.44 68.9754 147.156 65.0805 147.156 65.0805C147.156 65.0805 151.264 64.4431 157.425 66.2844C163.586 68.1256 170.88 70.6041 177.041 67.0633C183.202 63.5225 183.202 57.928 180.157 55.5911C176.758 52.9709 170.101 54.5997 170.101 54.5997C170.101 54.5997 172.65 52.1211 171.305 50.634C169.888 49.1468 164.86 51.0589 164.86 51.0589C164.86 51.0589 158.699 46.1725 147.086 46.7391C135.472 47.3056 129.877 55.4495 129.24 64.5139C128.603 73.5784 131.86 82.7137 131.86 82.7137L139.65 79.1729Z" fill="#263238"/>
<path d="M163.302 81.368C162.665 82.9968 162.665 84.9088 162.523 86.6084C162.381 87.9539 162.169 89.5119 163.373 90.4325C163.939 90.8574 166.772 92.0612 165.285 92.9819C164.718 93.3359 163.798 93.2651 163.231 93.1943C162.806 93.1943 162.381 93.1235 161.956 93.1235C161.531 93.1235 161.036 92.9819 160.611 92.9819C160.328 92.9819 160.257 93.3359 160.469 93.4776C161.177 93.9733 162.31 94.1149 163.16 94.1149C164.01 94.1149 164.577 94.1149 165.356 93.69C165.851 93.4776 166.276 93.1235 166.347 92.557C166.418 91.9196 165.922 91.3531 165.497 90.999C164.931 90.5741 164.293 90.3616 163.727 90.0076C162.948 89.441 163.019 88.5204 163.089 87.6706C163.231 85.617 163.727 83.5633 163.868 81.4388C163.868 81.1555 163.373 81.1555 163.302 81.368Z" fill="#263238"/>
<path d="M169.321 86.2545C169.109 87.4583 168.188 88.3789 167.339 88.2373C166.418 88.0957 165.922 86.9626 166.135 85.6879C166.347 84.4841 167.268 83.5634 168.118 83.7051C168.967 83.9175 169.534 85.0506 169.321 86.2545Z" fill="#263238"/>
<path d="M158.062 85.263C157.85 86.6085 156.929 87.5291 155.938 87.3875C154.946 87.2458 154.38 86.042 154.592 84.6965C154.805 83.351 155.725 82.4303 156.717 82.572C157.708 82.7136 158.275 83.9175 158.062 85.263Z" fill="#263238"/>
<path d="M166.701 81.1559C167.409 81.2975 168.047 81.1559 168.755 81.2267C168.897 81.2267 169.109 81.2975 169.251 81.2975C169.392 81.2975 169.038 81.2975 169.18 81.2975H169.251C169.321 81.2975 169.392 81.2975 169.534 81.3683C169.676 81.4392 169.817 81.4392 169.959 81.51C170.1 81.51 170.242 81.5808 170.384 81.5808C170.455 81.5808 170.525 81.5808 170.596 81.5808C170.525 81.5808 170.525 81.5808 170.455 81.5808H170.738C171.163 81.51 171.375 81.0143 171.234 80.6602C171.234 80.5185 171.163 80.4477 171.092 80.3769C171.092 80.3061 171.021 80.3061 171.021 80.2353L171.092 80.3061C171.092 80.2353 171.021 80.2353 171.021 80.1645C170.95 80.0936 170.95 80.0228 170.879 80.0228C170.809 79.952 170.738 79.952 170.738 79.8812C170.525 79.7396 170.313 79.6688 170.1 79.5979C169.676 79.5271 169.251 79.4563 168.826 79.4563C168.401 79.4563 167.976 79.5271 167.551 79.5271C167.197 79.5979 166.772 79.6688 166.489 79.952C166.276 80.0936 166.135 80.3769 166.135 80.6602C166.206 80.8726 166.418 81.1559 166.701 81.1559Z" fill="#263238"/>
<path d="M158.841 79.2438C158.77 79.1729 158.629 79.1729 158.558 79.1021C158.487 79.0313 158.275 78.9605 158.416 79.0313C158.345 79.0313 158.275 78.9605 158.204 78.9605C157.921 78.8189 157.637 78.748 157.354 78.6772C156.717 78.5356 156.009 78.4648 155.3 78.5356C154.592 78.6064 153.884 78.8189 153.247 79.1729C153.176 79.2438 153.034 79.3146 152.963 79.3854C152.893 79.4562 152.893 79.527 152.822 79.5978C152.822 79.5978 152.822 79.527 152.893 79.527C152.68 79.6687 152.609 79.8811 152.609 80.0935C152.609 80.306 152.751 80.5185 152.893 80.5893C153.105 80.7309 153.388 80.6601 153.601 80.5893C153.459 80.5893 153.388 80.5893 153.247 80.5893C153.459 80.5893 153.601 80.6601 153.813 80.5893C153.813 80.5893 154.026 80.5185 153.884 80.5893C153.742 80.5893 154.097 80.5893 154.097 80.5893C154.167 80.5893 154.38 80.5893 154.097 80.5893C154.167 80.5893 154.167 80.5893 154.238 80.5893C154.38 80.5893 154.451 80.5893 154.592 80.5184C155.088 80.4476 155.584 80.4476 156.009 80.4476C156.433 80.4476 156.929 80.4476 157.354 80.4476C157.567 80.4476 157.708 80.4476 157.921 80.4476C157.991 80.4476 158.062 80.4476 157.921 80.4476C157.991 80.4476 157.991 80.4476 158.062 80.4476C158.133 80.4476 158.204 80.5184 158.275 80.5184C158.558 80.6601 158.983 80.3768 159.054 80.0935C159.266 79.7395 159.195 79.3854 158.841 79.2438Z" fill="#263238"/>
<path d="M162.381 99.5679C163.019 98.2224 164.294 97.231 165.71 96.5936C164.506 96.452 158.699 95.9563 157.212 96.7353C155.583 97.6559 157.495 101.409 160.894 101.622C161.248 101.622 161.602 101.622 161.886 101.551C161.886 100.913 162.027 100.205 162.381 99.5679Z" fill="#263238"/>
<path d="M135.542 91.7074C135.542 91.7074 136.109 93.9735 139.508 96.5937C142.907 99.2139 147.793 101.126 147.793 101.126L148.218 99.4264C148.218 99.4264 143.19 97.2311 140.853 94.8233C138.516 92.4156 138.233 91.0701 138.233 91.0701L135.542 91.7074Z" fill="#263238"/>
<path d="M148.785 98.2223C151.476 98.0807 153.034 100.205 153.175 101.621C153.388 103.038 152.042 104.596 148.997 103.179C145.244 101.48 146.023 98.3639 148.785 98.2223Z" fill="#263238"/>
<path d="M137.667 74.9239C137.667 74.9239 138.871 66.4968 144.465 60.7607C155.229 49.855 164.365 50.4923 164.365 50.4923C164.365 50.4923 164.294 48.9344 160.824 47.8013C157.566 46.6682 156.15 47.3056 156.15 47.3056C156.15 47.3056 147.298 48.0137 139.791 56.2992C132.285 64.5847 131.506 75.1364 131.506 75.1364L137.667 74.9239Z" fill="#263238"/>
<path d="M136.888 73.9323C129.806 72.7284 125.912 78.2521 125.628 83.8466C125.345 89.4411 129.382 93.6192 134.764 93.1943C146.944 92.2029 145.528 75.3486 136.888 73.9323Z" fill="white"/>
<path d="M133.347 87.7414C131.506 87.7414 129.877 86.8208 129.027 85.192C128.036 83.4216 128.177 81.2263 129.239 79.6684C129.31 79.5267 129.452 79.5267 129.594 79.5976C129.735 79.6684 129.735 79.8808 129.664 79.9516C128.673 81.368 128.602 83.3508 129.452 84.9088C130.302 86.3959 131.718 87.2457 133.488 87.2457C135.117 87.1749 136.463 86.4667 137.313 85.192C138.304 83.7049 138.516 81.6512 137.879 80.0224C137.242 78.3229 135.542 77.1898 133.913 77.4022C133.772 77.4022 133.63 77.3314 133.63 77.1898C133.63 77.0482 133.701 76.9065 133.843 76.9065C135.684 76.6941 137.667 77.898 138.375 79.81C139.083 81.6512 138.8 83.8465 137.737 85.4753C136.746 86.8916 135.259 87.7414 133.488 87.8122C133.488 87.7414 133.418 87.7414 133.347 87.7414Z" fill="#263238"/>
<path d="M128.248 110.757C128.248 110.757 106.862 115.997 99.3553 124.495C91.8487 132.993 88.3787 174.916 88.2371 182.635C88.0955 190.425 93.4775 193.612 96.7351 195.807C99.9926 198.002 114.156 201.968 125.628 202.535C137.029 203.101 147.864 202.535 147.864 202.535C147.864 202.535 147.794 200.056 149.564 196.374C151.193 192.974 153.246 192.266 153.246 192.266L143.403 188.726C143.403 188.726 141.703 157.92 139.012 142.978C136.038 125.982 128.248 110.757 128.248 110.757Z" fill="#263238"/>
<path d="M163.727 183.91C163.656 183.91 163.656 183.91 163.585 183.91C163.373 183.839 163.302 183.627 163.373 183.414C165.356 178.882 167.48 170.03 168.613 163.798L168.684 163.302C169.038 161.461 169.463 159.195 168.613 157.637C168.188 156.858 167.126 155.088 166.205 153.388C165.214 151.618 164.222 149.989 164.01 149.493C163.514 148.502 165.143 145.952 167.48 142.482C168.117 141.562 168.684 140.712 168.967 140.146C169.817 138.729 169.25 137.384 168.613 135.826L168.401 135.33C167.834 133.914 167.126 132.427 166.489 131.081C166.205 130.515 165.993 129.948 165.71 129.381C165.356 128.603 165.001 127.824 164.647 127.045C162.594 122.441 160.469 117.626 157.707 113.023C157.637 112.881 157.637 112.669 157.849 112.527C157.991 112.456 158.203 112.456 158.345 112.669C161.107 117.343 163.231 122.087 165.356 126.761C165.71 127.54 166.064 128.319 166.418 129.098C166.701 129.665 166.914 130.231 167.197 130.798C167.834 132.214 168.542 133.63 169.109 135.118L169.321 135.613C169.959 137.171 170.667 138.8 169.675 140.57C169.321 141.137 168.755 141.987 168.117 142.907C166.914 144.749 164.364 148.573 164.718 149.21C165.001 149.706 165.922 151.335 166.914 153.034C167.905 154.734 168.896 156.433 169.321 157.283C170.313 159.053 169.888 161.532 169.463 163.444L169.392 163.94C168.967 166.206 166.701 177.82 164.081 183.698C163.939 183.839 163.868 183.91 163.727 183.91Z" fill="#263238"/>
<path d="M142.836 185.185C142.766 185.185 142.624 185.185 142.553 185.114C140.853 183.414 132.851 169.534 132.285 166.914C131.931 165.498 132.78 161.886 133.559 158.345C134.197 155.654 134.834 152.822 134.622 152.043C134.338 150.91 132.285 149.21 130.302 147.581C127.894 145.599 125.416 143.616 124.92 141.774C124.353 139.721 124.849 126.691 125.132 118.122C125.274 115.006 125.345 112.598 125.345 111.748C125.345 111.536 125.486 111.394 125.699 111.394C125.911 111.394 126.053 111.536 126.053 111.748C126.053 112.598 125.982 115.077 125.84 118.193C125.557 126.195 125.061 139.65 125.557 141.633C125.982 143.262 128.461 145.244 130.656 147.086C132.851 148.856 134.905 150.556 135.188 151.901C135.401 152.822 134.834 155.442 134.126 158.487C133.418 161.745 132.568 165.498 132.851 166.773C133.418 169.322 141.349 182.99 142.978 184.618C143.12 184.76 143.12 184.972 142.978 185.114C142.978 185.114 142.907 185.185 142.836 185.185Z" fill="#263238"/>
<path d="M114.014 179.094C113.802 179.094 113.66 178.882 113.66 178.67C113.943 176.828 117.98 140.145 118.192 137.313C118.192 137.1 118.405 136.959 118.546 136.959C118.759 136.959 118.901 137.171 118.901 137.313C118.688 140.145 114.652 176.828 114.368 178.67C114.368 178.953 114.227 179.094 114.014 179.094Z" fill="#263238"/>
<path d="M143.19 189.08C143.119 189.08 143.119 189.08 143.049 189.08C142.128 188.725 138.162 187.38 133.134 185.68C122.937 182.281 109.057 177.537 106.366 176.191C106.224 176.12 106.153 175.908 106.224 175.695C106.295 175.554 106.507 175.483 106.72 175.554C109.34 176.899 123.786 181.785 133.347 185.043C138.375 186.743 142.411 188.088 143.332 188.442C143.544 188.513 143.615 188.725 143.544 188.938C143.473 189.009 143.332 189.08 143.19 189.08Z" fill="#263238"/>
<path d="M138.304 203.668C129.381 203.668 112.031 202.039 98.8591 197.365C98.6467 197.295 98.5759 197.082 98.6467 196.94C98.7175 196.728 98.9299 196.657 99.0716 196.728C115.713 202.606 139.012 203.597 143.332 202.677C143.544 202.606 143.686 202.747 143.757 202.96C143.827 203.172 143.686 203.314 143.473 203.385C142.553 203.526 140.712 203.668 138.304 203.668Z" fill="#263238"/>
<path d="M35.9043 115.713C38.6662 118.192 42.207 119.75 44.6147 122.583C45.6061 123.716 46.4559 124.849 47.3057 126.053C47.9431 126.902 49.7135 128.319 49.9967 129.381C50.1384 129.877 50.0676 129.239 49.9967 128.744V128.673C49.7843 126.548 49.5719 124.353 49.501 122.158C49.4302 119.962 49.5719 117.838 49.4302 115.643C49.2178 112.598 48.2972 109.623 45.8186 107.711C44.6147 106.791 43.0568 106.224 41.9237 105.162C40.8615 104.17 41.2864 103.037 41.9237 101.975C42.4902 100.913 43.1984 99.9214 43.4817 98.7884C43.7649 97.4429 43.2692 96.0265 42.561 94.8935C41.1447 92.4857 37.8872 89.7239 34.8421 90.078C32.2927 90.3612 32.0094 93.3355 32.0802 95.3892C32.0802 97.372 32.2927 99.3549 32.3635 101.338C32.3635 103.391 32.0094 105.374 32.0094 107.428C31.7262 110.827 33.3549 113.447 35.9043 115.713Z" fill="url(#paint4_linear_209_2312)"/>
<path d="M61.6809 147.439C62.4599 145.598 63.3097 143.898 64.4427 142.199C65.9299 139.862 67.6295 137.666 68.6209 135.046C69.6123 132.426 69.4707 129.593 69.6123 126.832C69.6831 124.778 70.3205 122.795 70.108 120.741C70.0372 119.75 69.4707 118.192 68.196 118.334C67.2046 118.475 66.638 119.679 66.2131 120.458C65.5758 121.804 65.0801 123.291 64.5844 124.707C64.3719 125.274 64.2303 125.84 63.947 126.407C63.8054 126.69 63.3805 127.469 62.9556 127.398C62.2474 127.186 62.8848 124.282 63.0264 123.786C63.5929 121.166 64.3719 118.758 64.5135 116.067C64.6552 112.173 64.3719 107.499 60.5478 105.374C59.5564 104.808 58.2817 104.454 57.3611 105.303C56.4405 106.153 56.1572 107.57 56.0156 108.703C55.5907 112.314 56.4405 115.713 57.5736 119.113C58.4942 121.945 59.6272 124.778 59.7689 127.823C59.8397 130.726 58.3525 133.276 57.6444 135.967C56.5113 140.287 56.7238 142.624 56.7238 144.04C56.7238 145.81 56.7946 147.51 56.9362 149.28C57.0778 150.909 57.2195 152.538 57.3611 154.096C57.4319 154.45 57.4319 154.733 57.5027 155.087C56.8654 153.6 56.6529 151.9 56.1572 150.413C55.2366 147.722 54.1744 145.173 53.3246 142.482C52.6164 140.287 51.9083 138.021 50.9876 135.896C50.067 133.913 49.0048 131.789 47.3052 130.302C46.3138 129.381 45.0391 128.885 43.6936 128.885C42.8438 128.885 42.0648 129.168 41.215 129.381C40.2236 129.664 39.3738 129.523 38.5948 128.885C35.833 126.761 35.054 123.007 33.0003 120.387C31.5132 118.404 27.9015 115.005 25.2813 117.201C23.865 118.334 23.5109 120.6 23.5818 122.299C23.6526 124.424 24.5732 126.407 25.7062 128.177C26.9101 130.089 28.3973 131.789 29.5303 133.701C30.1677 134.834 30.2385 135.967 30.1677 137.242C30.0968 138.445 29.9552 139.649 30.3801 140.853C31.6548 144.394 35.5497 143.898 38.5948 143.969C40.7193 144.04 42.9854 144.323 45.0391 145.031C47.376 145.81 48.8631 147.368 49.7129 149.634C50.3503 151.334 50.6336 153.175 51.7666 154.662C52.3331 155.3 53.0413 155.795 53.8203 156.149C55.0242 156.645 58.6358 156.928 58.6358 156.574C58.7066 155.441 59.2731 154.308 59.5564 153.246C60.1937 151.263 60.9019 149.351 61.6809 147.439Z" fill="url(#paint5_linear_209_2312)"/>
<path d="M78.4644 146.731C78.1812 144.677 78.1812 142.482 77.2605 140.57C77.1897 140.428 76.9773 140.428 76.9065 140.499C76.1983 140.853 76.1983 141.986 76.1275 142.694C76.0567 143.827 76.1275 144.96 75.9859 146.093C75.7734 148.076 75.2777 150.13 74.5695 151.971C73.7906 154.096 72.3034 155.3 70.1789 155.937C68.8334 156.362 67.4879 156.716 66.3548 157.636C65.3634 158.415 64.6553 159.548 64.0887 160.752C62.6724 163.939 61.9642 167.48 61.3269 170.95C60.902 173.216 60.5479 175.553 59.9814 177.819C59.4149 180.085 58.8483 182.351 58.4942 184.688C58.4234 184.83 58.3526 184.901 58.3526 185.042C58.211 185.396 58.7775 185.609 58.9191 185.255C61.1144 181.856 63.8055 178.81 67.4879 176.969C69.1167 176.119 71.312 175.978 72.7283 174.632C73.7906 173.641 73.9322 172.083 73.7906 170.737C73.5781 168.967 72.7283 167.48 71.8077 165.922C71.312 165.072 70.7455 164.152 70.9579 163.16C71.1704 162.169 71.9493 161.461 72.7283 160.965C74.2155 160.044 76.0567 159.619 77.2605 158.203C78.3936 156.928 79.031 155.37 79.1726 153.671C79.2434 151.405 78.8185 148.997 78.4644 146.731Z" fill="url(#paint6_linear_209_2312)"/>
<path d="M48.5095 158.416C46.5974 155.937 44.1897 153.742 41.5695 151.971C40.1531 151.051 36.8248 149.21 36.1874 151.971C35.7625 153.6 37.3913 155.158 38.3827 156.22C39.9407 157.707 41.7819 159.053 43.0566 160.823C41.4278 161.319 39.7282 161.461 38.3119 162.594C36.6123 163.939 35.9042 166.489 37.5329 168.117C38.3119 168.896 39.445 169.392 40.4364 169.888C41.7819 170.525 43.0566 171.092 44.4021 171.658C47.3056 172.862 50.2799 174.137 52.7584 176.12C55.3078 178.173 57.6447 181.573 57.8572 184.901C57.8572 185.184 57.7864 184.901 57.928 184.759C57.9988 184.83 58.3529 184.688 58.3529 184.476C58.2821 179.59 57.4323 174.916 55.3786 170.384C53.6082 166.276 51.2713 162.027 48.5095 158.416Z" fill="url(#paint7_linear_209_2312)"/>
<path d="M41.7818 112.739C42.8441 114.934 43.9771 117.13 45.181 119.325C46.3141 121.379 47.4471 123.503 48.2969 125.698C49.3592 128.46 50.4214 131.151 51.5545 133.842C52.6875 136.675 53.7498 139.578 54.5996 142.482C56.2283 148.218 57.4322 154.096 57.9988 160.044C58.282 163.089 58.4237 166.064 58.3528 169.109C58.282 171.446 57.9988 173.853 57.7863 176.19C57.5739 178.669 57.3614 181.148 57.5739 183.555C57.7155 185.609 58.0696 188.088 59.6983 189.504C59.9816 189.787 60.4773 189.433 60.2649 189.079C58.3528 185.184 58.4945 180.935 58.8485 176.757C59.061 174.42 59.3443 172.083 59.4151 169.746C59.4859 166.772 59.4151 163.798 59.1318 160.823C58.5653 155.016 57.4322 149.28 55.9451 143.615C55.1661 140.711 54.2455 137.879 53.1124 135.117C51.9794 132.355 50.7047 129.593 49.6424 126.831C47.7304 121.733 44.7561 117.271 42.1359 112.527C41.9943 112.243 41.6402 112.456 41.7818 112.739Z" fill="#263238"/>
<path d="M58.14 154.237C58.4233 150.555 58.7774 147.014 60.0521 143.473C60.6186 141.845 61.3268 140.216 61.8933 138.587C62.389 137.241 63.0263 135.329 62.6723 133.913C62.6014 133.771 62.389 133.771 62.3182 133.913C62.1057 134.763 62.1057 135.684 61.9641 136.533C61.8225 137.383 61.5392 138.162 61.3268 138.941C60.7602 140.641 60.0521 142.269 59.4147 143.969C58.2108 147.227 57.5735 150.838 57.8568 154.308C57.8568 154.379 58.0692 154.379 58.14 154.237Z" fill="#263238"/>
<path d="M36.6832 132.992C38.1703 136.533 42.5609 136.746 45.7477 137.525C48.0138 138.091 49.7134 139.649 50.9173 141.632C52.2628 143.827 53.1834 146.377 53.8915 148.784H53.9624C53.0417 144.535 51.7671 139.437 47.3764 137.454C43.8356 135.896 39.2326 136.675 36.9665 132.851C36.9665 132.638 36.6124 132.78 36.6832 132.992Z" fill="#263238"/>
<path d="M55.8032 153.671C55.9448 153.883 56.1573 154.167 56.2989 154.379C56.3697 154.521 56.5113 154.592 56.5822 154.662C56.7238 154.733 56.8654 154.875 57.007 154.875C57.0779 154.875 57.1487 154.804 57.0779 154.733C57.007 154.592 56.8654 154.521 56.7946 154.45C56.7238 154.379 56.5822 154.237 56.5113 154.167C56.2989 153.954 56.0864 153.742 55.9448 153.529C55.8032 153.6 55.7324 153.6 55.8032 153.671Z" fill="#263238"/>
<path d="M46.5976 164.931C49.147 166.984 51.4839 169.463 53.3252 172.154C54.2458 173.429 55.0247 174.774 55.8037 176.191C56.5827 177.678 57.1492 179.306 57.7866 180.864C57.8574 181.006 58.0698 181.006 58.0698 180.864C57.7158 177.536 55.5913 174.703 53.8917 171.871C53.0419 170.454 51.9088 169.251 50.7758 168.047C49.5719 166.772 48.2972 165.639 46.8809 164.647C46.6684 164.506 46.456 164.789 46.5976 164.931Z" fill="#263238"/>
<path d="M66.7795 160.965C65.5756 161.673 65.5048 163.585 65.5048 164.789C65.434 167.126 66.0713 169.392 65.0091 171.587C64.0885 173.641 62.6013 175.341 61.3975 177.182C60.2644 178.952 59.2021 181.218 59.2021 183.343C59.2021 183.484 59.4146 183.555 59.4146 183.414C59.8395 182.422 60.0519 181.36 60.3352 180.369C60.6893 179.235 61.185 178.173 61.8224 177.182C62.9554 175.411 64.3717 173.853 65.2923 171.941C66.2838 169.959 66.1421 167.976 66.0713 165.851C66.0005 164.506 65.8589 162.24 66.9919 161.248C67.2044 161.177 66.9919 160.894 66.7795 160.965Z" fill="#263238"/>
<path d="M58.6354 183.626C53.7491 183.555 44.4014 183.484 44.4014 183.484L46.7383 200.693C47.234 204.588 50.5624 207.42 54.4573 207.42H58.4938H58.9187H62.9552C66.8501 207.42 70.1785 204.517 70.6742 200.693L73.0111 183.484C72.8695 183.555 63.5218 183.555 58.6354 183.626Z" fill="white"/>
<path d="M295.941 152.113L267.898 207.562L186.247 208.128L211.458 151.263L295.941 152.113Z" fill="#263238"/>
<path d="M132.072 207.775V203.313H184.901L209.191 149.989H293.746L295.87 152.042H213.369L188.088 207.704C188.088 207.775 132.072 207.633 132.072 207.775Z" fill="#263238"/>
<path d="M253.522 182.706C252.602 185.467 247.574 187.592 242.333 187.45C237.093 187.309 233.552 184.972 234.473 182.21C235.393 179.448 240.421 177.324 245.662 177.465C250.973 177.607 254.443 179.944 253.522 182.706Z" fill="#263238"/>
<path d="M188.088 208.129C188.018 208.129 188.018 208.129 187.947 208.129C187.734 208.058 187.664 207.845 187.805 207.633L213.157 151.759H295.941C296.154 151.759 296.296 151.9 296.296 152.113C296.296 152.325 296.154 152.467 295.941 152.467H213.582L188.372 207.916C188.372 208.058 188.23 208.129 188.088 208.129Z" fill="white"/>
<path d="M128.389 212.023H127.823H31.2295V215.989H127.823H128.389H302.597V212.023H128.389Z" fill="white"/>
<path d="M132.638 207.775H26.5557V213.015H132.638V207.775Z" fill="#263238"/>
<path d="M306.847 207.774H132.072V213.015H306.847V207.774Z" fill="#263238"/>
<path d="M103.888 94.752H69.5418C67.4174 94.752 65.7178 93.0524 65.7178 90.9279V73.7904C65.7178 71.6659 67.4174 69.9663 69.5418 69.9663H103.817C105.941 69.9663 107.641 71.6659 107.641 73.7904V90.9279C107.712 93.0524 106.012 94.752 103.888 94.752Z" fill="white"/>
<path d="M117.484 82.3591L104.596 76.9062V87.812L117.484 82.3591Z" fill="white"/>
<path d="M78.6065 84.6963C79.8971 84.6963 80.9434 83.6501 80.9434 82.3594C80.9434 81.0687 79.8971 80.0225 78.6065 80.0225C77.3158 80.0225 76.2695 81.0687 76.2695 82.3594C76.2695 83.6501 77.3158 84.6963 78.6065 84.6963Z" fill="#263238"/>
<path d="M86.75 84.6963C88.0407 84.6963 89.087 83.6501 89.087 82.3594C89.087 81.0687 88.0407 80.0225 86.75 80.0225C85.4594 80.0225 84.4131 81.0687 84.4131 82.3594C84.4131 83.6501 85.4594 84.6963 86.75 84.6963Z" fill="#263238"/>
<path d="M94.8233 84.6963C96.1139 84.6963 97.1602 83.6501 97.1602 82.3594C97.1602 81.0687 96.1139 80.0225 94.8233 80.0225C93.5326 80.0225 92.4863 81.0687 92.4863 82.3594C92.4863 83.6501 93.5326 84.6963 94.8233 84.6963Z" fill="#263238"/>
<path d="M278.45 17.2793H199.277C194.179 17.2793 190.071 21.3866 190.071 26.4854V64.018C190.071 69.1168 194.179 73.2241 199.277 73.2241H206.359C206.571 76.6233 206.076 81.7221 203.243 88.1663C212.378 83.9174 217.69 77.6147 220.381 73.2241H278.45C283.549 73.2241 287.656 69.1168 287.656 64.018V26.4854C287.656 21.3866 283.549 17.2793 278.45 17.2793Z" fill="url(#paint8_linear_209_2312)"/>
<path d="M244.67 35.1957H205.438C204.376 35.1957 203.455 34.3459 203.455 33.2128C203.455 32.1506 204.305 31.23 205.438 31.23H244.67C245.732 31.23 246.653 32.0798 246.653 33.2128C246.653 34.2751 245.732 35.1957 244.67 35.1957Z" fill="white"/>
<path d="M272.855 46.597H204.659C204.022 46.597 203.455 46.0304 203.455 45.3931C203.455 44.7557 204.022 44.1892 204.659 44.1892H272.855C273.492 44.1892 274.059 44.7557 274.059 45.3931C274.059 46.0304 273.492 46.597 272.855 46.597Z" fill="url(#paint9_linear_209_2312)"/>
<path d="M272.855 53.1829H204.659C204.022 53.1829 203.455 52.6164 203.455 51.979C203.455 51.3417 204.022 50.7751 204.659 50.7751H272.855C273.492 50.7751 274.059 51.3417 274.059 51.979C274.059 52.6872 273.492 53.1829 272.855 53.1829Z" fill="url(#paint10_linear_209_2312)"/>
<path d="M257.984 60.2644H204.659C204.022 60.2644 203.455 59.6979 203.455 59.0606C203.455 58.4232 204.022 57.8567 204.659 57.8567H257.984C258.621 57.8567 259.187 58.4232 259.187 59.0606C259.187 59.7687 258.621 60.2644 257.984 60.2644Z" fill="url(#paint11_linear_209_2312)"/>
<path d="M272.289 35.1957H253.523C252.461 35.1957 251.54 34.3459 251.54 33.2128C251.54 32.1506 252.39 31.23 253.523 31.23H272.289C273.351 31.23 274.272 32.0798 274.272 33.2128C274.272 34.2751 273.351 35.1957 272.289 35.1957Z" fill="white"/>
<path d="M225.054 121.591H203.809C203.03 121.591 202.393 120.954 202.393 120.175V105.658C202.393 104.879 203.03 104.241 203.809 104.241H225.054C225.833 104.241 226.47 104.879 226.47 105.658V120.175C226.47 120.954 225.904 121.591 225.054 121.591Z" fill="white"/>
<path d="M214.573 115.501C214.431 115.501 214.36 115.43 214.219 115.36L202.676 105.799C202.463 105.587 202.392 105.304 202.605 105.02C202.817 104.808 203.101 104.737 203.384 104.95L214.644 114.227L225.62 104.737C225.833 104.525 226.187 104.596 226.399 104.808C226.612 105.02 226.541 105.375 226.328 105.587L215.068 115.43C214.856 115.43 214.714 115.501 214.573 115.501Z" fill="#263238"/>
<path d="M203.03 121.166C202.888 121.166 202.747 121.095 202.676 121.025C202.463 120.812 202.463 120.458 202.676 120.246L210.749 111.748C210.961 111.535 211.316 111.535 211.528 111.748C211.74 111.96 211.74 112.314 211.528 112.527L203.455 121.025C203.313 121.095 203.172 121.166 203.03 121.166Z" fill="#263238"/>
<path d="M225.903 120.883C225.762 120.883 225.62 120.812 225.549 120.742L217.405 112.598C217.193 112.385 217.193 112.031 217.405 111.819C217.618 111.606 217.972 111.606 218.184 111.819L226.257 119.892C226.47 120.104 226.47 120.458 226.257 120.671C226.116 120.812 226.045 120.883 225.903 120.883Z" fill="#263238"/>
<path d="M227.603 110.757C231.514 110.757 234.685 107.586 234.685 103.675C234.685 99.7638 231.514 96.5933 227.603 96.5933C223.692 96.5933 220.521 99.7638 220.521 103.675C220.521 107.586 223.692 110.757 227.603 110.757Z" fill="#FF5F42"/>
<path d="M225.621 103.675C225.762 103.675 225.975 103.817 226.116 103.958C226.258 104.1 226.4 104.242 226.47 104.454C226.541 104.667 226.612 104.879 226.612 105.092C226.612 105.375 226.541 105.658 226.4 105.871C226.258 106.083 226.046 106.295 225.762 106.437C225.479 106.579 225.196 106.649 224.842 106.649C224.488 106.649 224.204 106.579 223.921 106.437C223.638 106.295 223.425 106.083 223.284 105.871C223.142 105.658 223.071 105.375 223.071 105.092C223.071 104.808 223.142 104.596 223.213 104.454C223.284 104.313 223.425 104.1 223.567 103.958C223.709 103.817 223.921 103.746 224.063 103.604C223.921 103.534 223.779 103.392 223.638 103.321C223.496 103.179 223.425 103.038 223.284 102.825C223.213 102.613 223.142 102.471 223.142 102.259C223.142 101.976 223.213 101.692 223.355 101.48C223.496 101.267 223.709 101.055 223.921 100.913C224.204 100.772 224.417 100.701 224.771 100.701C225.125 100.701 225.337 100.772 225.621 100.913C225.904 101.055 226.046 101.267 226.187 101.48C226.329 101.692 226.4 101.976 226.4 102.259C226.4 102.471 226.329 102.684 226.258 102.825C226.187 103.038 226.046 103.179 225.904 103.321C225.904 103.463 225.762 103.604 225.621 103.675ZM224.913 106.366C225.337 106.366 225.691 106.225 225.975 106.012C226.258 105.8 226.4 105.446 226.4 105.092C226.4 104.808 226.329 104.596 226.187 104.454C226.046 104.242 225.904 104.1 225.691 104.029C225.479 103.888 225.267 103.888 224.983 103.888C224.7 103.888 224.488 103.958 224.275 104.029C224.063 104.171 223.921 104.313 223.779 104.454C223.638 104.667 223.567 104.879 223.567 105.092C223.567 105.446 223.709 105.729 223.921 106.012C224.134 106.295 224.488 106.366 224.913 106.366ZM223.638 102.259C223.638 102.542 223.709 102.755 223.85 102.896C223.992 103.109 224.134 103.25 224.346 103.321C224.558 103.392 224.771 103.463 224.983 103.463C225.196 103.463 225.408 103.392 225.621 103.321C225.833 103.25 225.975 103.038 226.116 102.896C226.258 102.684 226.329 102.471 226.329 102.259C226.329 101.905 226.187 101.622 225.975 101.338C225.762 101.055 225.408 100.984 225.054 100.984C224.7 100.984 224.346 101.126 224.134 101.338C223.921 101.551 223.638 101.905 223.638 102.259Z" fill="white"/>
<path d="M229.161 106.649C228.949 106.649 228.666 106.578 228.453 106.508C228.241 106.437 228.028 106.295 227.816 106.154L227.745 106.083V106.012C227.745 105.941 227.745 105.941 227.816 105.87C227.816 105.799 227.887 105.799 227.958 105.799C228.028 105.799 228.028 105.799 228.099 105.87C228.241 106.012 228.453 106.083 228.666 106.154C228.878 106.224 229.091 106.224 229.232 106.224C229.586 106.224 229.87 106.154 230.153 106.012C230.436 105.87 230.649 105.658 230.79 105.445C230.932 105.162 231.003 104.879 231.003 104.596C231.003 104.312 230.932 104.029 230.79 103.746C230.649 103.533 230.436 103.321 230.224 103.179C229.94 103.038 229.657 102.967 229.303 102.967C229.091 102.967 228.878 102.967 228.737 103.038C228.524 103.108 228.382 103.179 228.312 103.25C228.241 103.321 228.099 103.321 228.028 103.321H227.958L227.887 103.25C227.887 103.25 227.887 103.179 227.887 103.108L228.312 100.772C228.312 100.772 228.312 100.701 228.382 100.701C228.453 100.701 228.453 100.63 228.524 100.63H231.144C231.215 100.63 231.215 100.63 231.286 100.701C231.357 100.772 231.357 100.772 231.357 100.842C231.357 100.913 231.357 100.913 231.286 100.984C231.215 101.055 231.215 101.055 231.144 101.055H228.595L228.666 100.984L228.241 103.108L228.099 103.038C228.17 102.967 228.312 102.896 228.453 102.896C228.595 102.896 228.737 102.754 228.949 102.754C229.161 102.684 229.303 102.684 229.516 102.684C229.87 102.684 230.224 102.754 230.507 102.896C230.79 103.038 231.003 103.25 231.215 103.533C231.357 103.817 231.498 104.171 231.498 104.525C231.498 104.95 231.428 105.304 231.215 105.587C231.073 105.87 230.79 106.154 230.507 106.295C229.94 106.578 229.586 106.649 229.161 106.649Z" fill="white"/>
<path d="M298.986 101.055H257.488C255.93 101.055 254.655 99.78 254.655 98.222V91.7069C254.655 90.149 255.93 88.8743 257.488 88.8743H298.986C300.544 88.8743 301.819 90.149 301.819 91.7069V98.222C301.819 99.78 300.544 101.055 298.986 101.055Z" fill="#263238"/>
<path d="M260.462 98.151C260.25 98.151 260.108 98.0802 260.037 97.9386C259.896 97.7969 259.896 97.6553 259.896 97.4429L260.108 95.8849C260.108 95.8141 260.108 95.8141 260.108 95.8141H260.037L258.763 96.7347C258.621 96.8763 258.408 96.8763 258.267 96.8763C258.125 96.8763 257.984 96.7347 257.842 96.5931C257.7 96.3806 257.7 96.1682 257.771 96.0265C257.842 95.8849 257.984 95.7433 258.125 95.6725L259.612 95.0351C259.683 95.0351 259.683 95.0351 259.683 94.9643C259.683 94.9643 259.683 94.8935 259.612 94.8935L258.125 94.2561C257.913 94.1853 257.842 94.0437 257.771 93.902C257.7 93.7604 257.771 93.548 257.842 93.4063C257.913 93.2647 258.054 93.1231 258.267 93.1231C258.408 93.1231 258.621 93.1231 258.763 93.2647L260.037 94.2561C260.108 94.2561 260.108 94.2561 260.108 94.2561V94.1853L259.896 92.6274C259.896 92.4149 259.966 92.2733 260.037 92.1316C260.179 91.99 260.321 91.9192 260.533 91.9192C260.745 91.9192 260.887 91.99 260.958 92.1316C261.099 92.2733 261.099 92.4149 261.099 92.6274L260.887 94.1853C260.887 94.2561 260.887 94.2561 260.887 94.2561H260.958L262.233 93.3355C262.374 93.1939 262.587 93.1939 262.728 93.1939C262.941 93.1939 263.012 93.3355 263.153 93.4771C263.295 93.6896 263.295 93.902 263.224 94.0437C263.153 94.1853 263.012 94.3269 262.87 94.3978L261.383 95.0351C261.312 95.0351 261.312 95.0351 261.312 95.1059C261.312 95.1059 261.312 95.1767 261.383 95.1767L262.87 95.8141C263.082 95.8849 263.153 96.0265 263.224 96.1682C263.295 96.3098 263.295 96.5222 263.153 96.6639C263.082 96.8055 262.941 96.9471 262.728 96.9471C262.516 96.9471 262.374 96.9471 262.233 96.8055L260.958 95.8141C260.887 95.8141 260.887 95.8141 260.887 95.8141V95.8849L261.099 97.4429C261.099 97.6553 261.099 97.7969 260.958 97.9386C260.816 98.0802 260.675 98.151 260.462 98.151Z" fill="white"/>
<path d="M269.03 98.151C268.818 98.151 268.676 98.0802 268.606 97.9386C268.464 97.7969 268.464 97.6553 268.464 97.4429L268.676 95.8849C268.676 95.8141 268.676 95.8141 268.676 95.8141H268.606L267.331 96.7347C267.189 96.8763 266.977 96.8763 266.835 96.8763C266.694 96.8763 266.552 96.7347 266.41 96.5931C266.269 96.3806 266.269 96.1682 266.339 96.0265C266.41 95.8849 266.552 95.7433 266.694 95.6725L268.181 95.0351C268.252 95.0351 268.252 95.0351 268.252 94.9643C268.252 94.9643 268.252 94.8935 268.181 94.8935L266.694 94.2561C266.481 94.1853 266.41 94.0437 266.339 93.902C266.269 93.7604 266.339 93.548 266.41 93.4063C266.552 93.2647 266.623 93.1231 266.835 93.1231C266.977 93.1231 267.189 93.1231 267.331 93.2647L268.606 94.2561C268.676 94.2561 268.676 94.2561 268.676 94.2561V94.1853L268.464 92.6274C268.464 92.4149 268.535 92.2733 268.606 92.1316C268.747 91.99 268.889 91.9192 269.101 91.9192C269.314 91.9192 269.455 91.99 269.526 92.1316C269.668 92.2733 269.668 92.4149 269.668 92.6274L269.455 94.1853C269.455 94.2561 269.455 94.2561 269.455 94.2561H269.526L270.801 93.3355C270.943 93.1939 271.155 93.1939 271.297 93.1939C271.509 93.1939 271.58 93.3355 271.722 93.4771C271.863 93.6896 271.863 93.902 271.792 94.0437C271.722 94.1853 271.58 94.3269 271.438 94.3978L269.951 95.0351C269.88 95.0351 269.88 95.0351 269.88 95.1059C269.88 95.1059 269.88 95.1767 269.951 95.1767L271.438 95.8141C271.651 95.8849 271.722 96.0265 271.792 96.1682C271.863 96.3098 271.863 96.5222 271.722 96.6639C271.651 96.8055 271.509 96.9471 271.297 96.9471C271.084 96.9471 270.943 96.9471 270.801 96.8055L269.526 95.8141C269.455 95.8141 269.455 95.8141 269.455 95.8141V95.8849L269.668 97.4429C269.668 97.6553 269.668 97.7969 269.526 97.9386C269.385 98.0802 269.243 98.151 269.03 98.151Z" fill="white"/>
<path d="M277.6 98.151C277.387 98.151 277.246 98.0802 277.175 97.9386C277.033 97.7969 277.033 97.6553 277.033 97.4429L277.246 95.8849C277.246 95.8141 277.246 95.8141 277.246 95.8141H277.175L275.9 96.7347C275.759 96.8763 275.546 96.8763 275.405 96.8763C275.263 96.8763 275.121 96.7347 274.98 96.5931C274.838 96.3806 274.838 96.1682 274.909 96.0265C274.98 95.8849 275.121 95.7433 275.263 95.6725L276.75 95.0351C276.821 95.0351 276.821 95.0351 276.821 94.9643C276.821 94.9643 276.821 94.8935 276.75 94.8935L275.263 94.2561C275.05 94.1853 274.98 94.0437 274.909 93.902C274.838 93.7604 274.909 93.548 274.98 93.4063C275.05 93.2647 275.192 93.1231 275.405 93.1231C275.546 93.1231 275.759 93.1231 275.9 93.2647L277.175 94.2561C277.246 94.2561 277.246 94.2561 277.246 94.2561V94.1853L277.033 92.6274C277.033 92.4149 277.104 92.2733 277.175 92.1316C277.317 91.99 277.458 91.9192 277.671 91.9192C277.883 91.9192 278.025 91.99 278.096 92.1316C278.237 92.2733 278.237 92.4149 278.237 92.6274L278.025 94.1853C278.025 94.2561 278.025 94.2561 278.025 94.2561H278.096L279.37 93.3355C279.512 93.1939 279.724 93.1939 279.866 93.1939C280.078 93.1939 280.149 93.3355 280.291 93.4771C280.432 93.6896 280.432 93.902 280.362 94.0437C280.291 94.1853 280.149 94.3269 280.008 94.3978L278.52 95.0351C278.45 95.0351 278.45 95.0351 278.45 95.1059C278.45 95.1059 278.45 95.1767 278.52 95.1767L280.008 95.8141C280.22 95.8849 280.291 96.0265 280.362 96.1682C280.432 96.3098 280.432 96.5222 280.291 96.6639C280.22 96.8055 280.078 96.9471 279.866 96.9471C279.654 96.9471 279.512 96.9471 279.37 96.8055L278.096 95.8141C278.025 95.8141 278.025 95.8141 278.025 95.8141V95.8849L278.237 97.4429C278.237 97.6553 278.237 97.7969 278.096 97.9386C278.025 98.0802 277.812 98.151 277.6 98.151Z" fill="white"/>
<path d="M286.239 98.151C286.027 98.151 285.885 98.0802 285.815 97.9386C285.673 97.7969 285.673 97.6553 285.673 97.4429L285.885 95.8849C285.885 95.8141 285.885 95.8141 285.885 95.8141H285.815L284.54 96.7347C284.398 96.8763 284.186 96.8763 284.044 96.8763C283.903 96.8763 283.761 96.7347 283.619 96.5931C283.478 96.3806 283.478 96.1682 283.548 96.0265C283.619 95.8849 283.761 95.7433 283.903 95.6725L285.39 95.0351C285.461 95.0351 285.461 95.0351 285.461 94.9643C285.461 94.9643 285.461 94.8935 285.39 94.8935L283.903 94.2561C283.69 94.1853 283.619 94.0437 283.548 93.902C283.478 93.7604 283.548 93.548 283.619 93.4063C283.761 93.2647 283.832 93.1231 284.044 93.1231C284.186 93.1231 284.398 93.1231 284.54 93.2647L285.815 94.2561C285.885 94.2561 285.885 94.2561 285.885 94.2561V94.1853L285.673 92.6274C285.673 92.4149 285.744 92.2733 285.815 92.1316C285.956 91.99 286.098 91.9192 286.31 91.9192C286.523 91.9192 286.664 91.99 286.735 92.1316C286.877 92.2733 286.877 92.4149 286.877 92.6274L286.664 94.1853C286.664 94.2561 286.664 94.2561 286.664 94.2561H286.735L288.01 93.3355C288.152 93.1939 288.364 93.1939 288.506 93.1939C288.718 93.1939 288.789 93.3355 288.931 93.4771C289.072 93.6896 289.072 93.902 289.001 94.0437C288.931 94.1853 288.789 94.3269 288.647 94.3978L287.16 95.0351C287.089 95.0351 287.089 95.0351 287.089 95.1059C287.089 95.1059 287.089 95.1767 287.16 95.1767L288.647 95.8141C288.86 95.8849 288.931 96.0265 289.001 96.1682C289.072 96.3098 289.072 96.5222 288.931 96.6639C288.86 96.8055 288.718 96.9471 288.506 96.9471C288.293 96.9471 288.152 96.9471 288.01 96.8055L286.735 95.8141C286.664 95.8141 286.664 95.8141 286.664 95.8141V95.8849L286.877 97.4429C286.877 97.6553 286.877 97.7969 286.735 97.9386C286.594 98.0802 286.452 98.151 286.239 98.151Z" fill="white"/>
<path d="M294.808 98.151C294.595 98.151 294.454 98.0802 294.383 97.9386C294.241 97.7969 294.241 97.6553 294.241 97.4429L294.454 95.8849C294.454 95.8141 294.454 95.8141 294.454 95.8141H294.383L293.108 96.7347C292.967 96.8763 292.754 96.8763 292.613 96.8763C292.471 96.8763 292.329 96.7347 292.188 96.5931C292.046 96.3806 292.046 96.1682 292.117 96.0265C292.188 95.8849 292.329 95.7433 292.471 95.6725L293.958 95.0351C294.029 95.0351 294.029 95.0351 294.029 94.9643C294.029 94.9643 294.029 94.8935 293.958 94.8935L292.471 94.2561C292.258 94.1853 292.188 94.0437 292.117 93.902C292.046 93.7604 292.117 93.548 292.188 93.4063C292.258 93.2647 292.4 93.1231 292.613 93.1231C292.754 93.1231 292.967 93.1231 293.108 93.2647L294.383 94.2561C294.454 94.2561 294.454 94.2561 294.454 94.2561V94.1853L294.241 92.6274C294.241 92.4149 294.312 92.2733 294.383 92.1316C294.525 91.99 294.666 91.9192 294.879 91.9192C295.091 91.9192 295.233 91.99 295.304 92.1316C295.445 92.2733 295.445 92.4149 295.445 92.6274L295.233 94.1853C295.233 94.2561 295.233 94.2561 295.233 94.2561H295.304L296.578 93.3355C296.72 93.1939 296.932 93.1939 297.074 93.1939C297.286 93.1939 297.357 93.3355 297.499 93.4771C297.64 93.6896 297.641 93.902 297.57 94.0437C297.499 94.1853 297.357 94.3269 297.216 94.3978L295.728 95.0351C295.658 95.0351 295.658 95.0351 295.658 95.1059C295.658 95.1059 295.658 95.1767 295.728 95.1767L297.216 95.8141C297.428 95.8849 297.499 96.0265 297.57 96.1682C297.641 96.3098 297.64 96.5222 297.499 96.6639C297.428 96.8055 297.286 96.9471 297.074 96.9471C296.862 96.9471 296.72 96.9471 296.578 96.8055L295.304 95.8141C295.233 95.8141 295.233 95.8141 295.233 95.8141V95.8849L295.445 97.4429C295.445 97.6553 295.445 97.7969 295.304 97.9386C295.162 98.0802 295.02 98.151 294.808 98.151Z" fill="url(#paint12_linear_209_2312)"/>
<defs>
<linearGradient id="paint0_linear_209_2312" x1="260.663" y1="89.4747" x2="70.364" y2="98.3447" gradientUnits="userSpaceOnUse">
<stop stop-color="#3FC3E0"/>
<stop offset="1" stop-color="#4CDB80"/>
</linearGradient>
<linearGradient id="paint1_linear_209_2312" x1="288.364" y1="114.864" x2="248.689" y2="116.88" gradientUnits="userSpaceOnUse">
<stop stop-color="#3FC3E0"/>
<stop offset="1" stop-color="#4CDB80"/>
</linearGradient>
<linearGradient id="paint2_linear_209_2312" x1="273.988" y1="134.834" x2="263.722" y2="135.093" gradientUnits="userSpaceOnUse">
<stop stop-color="#3FC3E0"/>
<stop offset="1" stop-color="#4CDB80"/>
</linearGradient>
<linearGradient id="paint3_linear_209_2312" x1="128.602" y1="139.135" x2="81.4736" y2="140.016" gradientUnits="userSpaceOnUse">
<stop stop-color="#3FC3E0"/>
<stop offset="1" stop-color="#4CDB80"/>
</linearGradient>
<linearGradient id="paint4_linear_209_2312" x1="50.0785" y1="90.0471" x2="31.4608" y2="90.3035" gradientUnits="userSpaceOnUse">
<stop stop-color="#3FC3E0"/>
<stop offset="1" stop-color="#4CDB80"/>
</linearGradient>
<linearGradient id="paint5_linear_209_2312" x1="70.1512" y1="104.796" x2="22.2692" y2="106.087" gradientUnits="userSpaceOnUse">
<stop stop-color="#3FC3E0"/>
<stop offset="1" stop-color="#4CDB80"/>
</linearGradient>
<linearGradient id="paint6_linear_209_2312" x1="79.1804" y1="140.452" x2="57.7349" y2="140.751" gradientUnits="userSpaceOnUse">
<stop stop-color="#3FC3E0"/>
<stop offset="1" stop-color="#4CDB80"/>
</linearGradient>
<linearGradient id="paint7_linear_209_2312" x1="58.3529" y1="150.513" x2="35.4876" y2="150.955" gradientUnits="userSpaceOnUse">
<stop stop-color="#3FC3E0"/>
<stop offset="1" stop-color="#4CDB80"/>
</linearGradient>
<linearGradient id="paint8_linear_209_2312" x1="287.656" y1="17.2793" x2="187.438" y2="21.4254" gradientUnits="userSpaceOnUse">
<stop stop-color="#3FC3E0"/>
<stop offset="1" stop-color="#4CDB80"/>
</linearGradient>
<linearGradient id="paint9_linear_209_2312" x1="274.059" y1="44.1892" x2="233.175" y2="80.2175" gradientUnits="userSpaceOnUse">
<stop stop-color="#3FC3E0"/>
<stop offset="1" stop-color="#4CDB80"/>
</linearGradient>
<linearGradient id="paint10_linear_209_2312" x1="274.059" y1="50.7751" x2="233.175" y2="86.8034" gradientUnits="userSpaceOnUse">
<stop stop-color="#3FC3E0"/>
<stop offset="1" stop-color="#4CDB80"/>
</linearGradient>
<linearGradient id="paint11_linear_209_2312" x1="259.187" y1="57.8567" x2="220.55" y2="84.734" gradientUnits="userSpaceOnUse">
<stop stop-color="#3FC3E0"/>
<stop offset="1" stop-color="#4CDB80"/>
</linearGradient>
<linearGradient id="paint12_linear_209_2312" x1="297.616" y1="91.9192" x2="291.915" y2="92.0717" gradientUnits="userSpaceOnUse">
<stop stop-color="#3FC3E0"/>
<stop offset="1" stop-color="#4CDB80"/>
</linearGradient>
</defs>
</svg>
