<svg width="25" height="29" viewBox="0 0 25 29" fill="none" xmlns="http://www.w3.org/2000/svg">
<path d="M24.6479 9.43663C23.169 2.92958 17.493 0 12.5071 0C12.5071 0 12.5071 0 12.493 0C7.5211 0 1.83096 2.91549 0.352082 9.42254C-1.29581 16.6902 3.1549 22.8451 7.18307 26.7183C8.67603 28.155 10.5916 28.8733 12.5071 28.8733C14.4226 28.8733 16.3381 28.155 17.8169 26.7183C21.8451 22.8451 26.2958 16.7042 24.6479 9.43663ZM12.5071 16.493C10.0564 16.493 8.0704 14.5071 8.0704 12.0563C8.0704 9.60564 10.0564 7.61972 12.5071 7.61972C14.9578 7.61972 16.9437 9.60564 16.9437 12.0563C16.9437 14.5071 14.9578 16.493 12.5071 16.493Z" fill="#292D32"/>
</svg>
