<svg width="248" height="227" viewBox="0 0 248 227" fill="none" xmlns="http://www.w3.org/2000/svg">
<g clip-path="url(#clip0_209_871)">
<path d="M248 218.991C248 222.974 192.463 226.206 124 226.206C55.537 226.206 0 222.974 0 218.991C0 215.008 55.537 211.777 124 211.777C192.463 211.777 248 215.008 248 218.991Z" fill="url(#paint0_linear_209_871)"/>
<path d="M121.22 40.5063H95.7434H70.3422C-49.9002 154.737 32.8416 218.991 95.8186 218.991C158.72 218.991 241.462 154.737 121.22 40.5063Z" fill="#E9E2D0"/>
<path d="M95.7429 218.991C57.3405 218.991 11.6484 195.093 9.01808 150.603C7.36475 122.121 23.372 85.1463 70.2666 40.5063H121.144C241.462 154.737 158.72 218.991 95.7429 218.991Z" fill="#E9E2D0"/>
<path d="M29.5345 152.783C22.846 152.783 15.9321 152.031 9.09328 150.603C7.43995 122.121 23.4472 85.1463 70.3418 40.5063H106.414C140.684 113.028 78.9842 152.783 29.5345 152.783Z" fill="#F2EADA"/>
<path d="M95.7426 218.991C68.5377 218.991 37.5753 206.967 20.9668 184.046C37.8007 196.521 59.8201 203.059 79.8104 203.059C139.781 203.059 217.638 144.741 121.069 40.5063H121.219C241.461 154.737 158.72 218.991 95.7426 218.991Z" fill="#D8CEB6"/>
<path d="M66.1335 40.5067L53.959 0.526131C62.902 -2.70538 69.0644 9.92007 77.3311 9.31886C85.5978 8.71765 83.5687 3.08128 89.205 1.6534C99.125 -0.901748 101.53 11.9492 110.323 9.92007C115.132 8.86795 118.74 -1.57811 137.603 2.32977L125.729 40.5067H66.1335Z" fill="#E9E2D0"/>
<path d="M110.172 49.6005C121.444 69.6659 127.306 94.5411 125.503 121.52C125.352 123.399 127.231 124.226 129.711 123.249C132.191 122.272 134.22 119.867 134.22 117.913C134.671 90.7835 127.532 65.9835 115.282 46.2938C114.38 44.9411 112.576 44.5653 111.224 45.4671C109.871 46.369 109.42 48.1726 110.172 49.6005Z" fill="#FFBE2E"/>
<path d="M126.329 69.1392C120.016 59.2943 112.802 52.8313 112.802 52.8313C116.259 55.2361 120.467 58.7683 123.774 62.9768C123.924 63.2022 124.074 63.4277 124.225 63.6531C124.901 65.3816 125.653 67.2604 126.329 69.1392Z" fill="#E5A320"/>
<path d="M107.016 49.1493C117.537 55.5372 128.96 62.1505 136.776 92.5117C137.227 94.3905 139.331 94.5408 141.285 92.7372C143.239 91.0087 144.516 87.9275 143.765 86.199C131.365 57.8669 120.768 52.1554 110.698 44.3396C109.42 43.3626 107.542 43.6632 106.565 44.9408C105.588 46.2184 105.738 48.022 107.016 49.1493Z" fill="#FFBE2E"/>
<path d="M111.675 52.2305H120.843L121.445 52.7565H111.9L111.675 52.2305Z" fill="#E5A320"/>
<path d="M128.96 41.5585C128.434 40.8821 127.608 40.5063 126.706 40.5063H95.7434H64.781C63.9543 40.5063 63.1277 40.8821 62.5265 41.5585C60.9483 43.4373 62.301 46.3682 64.781 46.3682H95.7434H126.706C129.186 46.3682 130.539 43.5124 128.96 41.5585Z" fill="#FFBE2E"/>
<path d="M129.712 52.2302H61.7748C59.2948 52.2302 57.942 49.2993 59.5954 47.4205C60.1214 46.7442 60.9481 46.3684 61.7748 46.3684H129.712C130.538 46.3684 131.365 46.7442 131.891 47.4205C133.62 49.2993 132.267 52.2302 129.712 52.2302Z" fill="#FFBE2E"/>
<path d="M126.706 46.3684C126.706 46.3684 111.225 47.4957 95.7437 47.4957C79.511 47.4957 64.7812 46.3684 64.7812 46.3684H126.706Z" fill="#E5A320"/>
<path d="M114.155 128.133C110.022 125.277 105.513 122.947 100.478 121.144V104.385C102.657 104.911 104.611 105.888 106.339 107.316C108.068 108.744 109.721 110.247 111.299 111.75L120.092 103.107C118.439 101.529 116.861 100.177 115.433 98.9742C114.005 97.7717 112.577 96.7948 111.074 95.9681C109.571 95.1414 107.993 94.4651 106.264 93.939C104.611 93.4881 102.582 93.0372 100.402 92.8117V86.0481H91.3842V92.8869C88.9042 93.1875 86.4242 93.8639 84.0194 94.8408C81.6145 95.8178 79.5103 97.0954 77.6315 98.5984C75.7527 100.177 74.2497 102.055 73.1224 104.31C71.9951 106.489 71.3939 109.044 71.3939 111.825C71.3939 117.537 73.423 121.895 77.406 124.901C80.5624 127.306 85.2969 129.786 91.4594 132.191V150.754C88.8291 150.077 86.6497 148.95 84.846 147.447C83.0424 145.944 81.4642 144.065 80.1115 141.735L70.3418 150.077C73.1224 153.835 76.2036 156.691 79.5854 158.569C82.8921 160.523 86.8751 161.726 91.3842 162.252V173.6H100.402V162.252C106.339 161.651 110.999 160.072 114.456 157.367C118.589 154.06 120.844 149.401 121.069 143.238C121.069 142.863 121.069 142.487 121.069 142.111C121.144 136.099 118.815 131.44 114.155 128.133ZM100.478 135.648C102.281 136.55 103.709 137.301 104.761 137.978C107.316 139.406 108.594 141.284 108.594 143.464C108.594 144.741 108.368 145.794 107.918 146.62C107.467 147.447 106.865 148.198 106.114 148.8C105.362 149.401 104.461 149.852 103.484 150.227C102.507 150.603 101.455 150.829 100.478 151.054V135.648ZM89.0545 116.56C88.1527 116.109 87.4012 115.658 86.6497 115.057C85.8982 114.455 85.297 113.854 84.846 113.103C84.32 112.351 84.0945 111.524 84.0945 110.547C84.0945 109.571 84.32 108.669 84.7709 107.917C85.2218 107.166 85.823 106.564 86.4994 106.038C87.1757 105.512 88.0024 105.061 88.8291 104.836C89.7309 104.535 90.5576 104.31 91.4594 104.16V117.762C90.7079 117.386 89.8812 117.011 89.0545 116.56Z" fill="#263238"/>
<path opacity="0.15" d="M97.3964 220.72C87.777 220.72 77.7819 219.217 68.0122 216.286C65.6073 215.534 63.2025 214.708 60.7976 213.806C60.7976 213.806 60.7976 213.806 60.7225 213.806C60.1213 213.58 59.5952 213.355 58.994 213.129H58.9188C57.1904 212.378 55.4619 211.626 53.7334 210.875C53.7334 210.875 53.7334 210.875 53.6582 210.875C53.1322 210.649 52.6061 210.349 52.08 210.123C52.0049 210.123 51.9297 210.048 51.9297 210.048C51.4037 209.823 50.8776 209.522 50.4267 209.297C50.4267 209.297 50.3516 209.297 50.3516 209.222V206.967L50.8776 206.14L50.3516 205.163V192.087L50.8776 191.26L50.3516 190.434V177.357L50.8776 176.531L50.3516 175.704V162.628L50.8776 161.801L50.3516 160.974V147.898L51.9297 145.418H100.853L102.432 147.898V160.148H120.468V143.915H133.394V122.196H117.236V93.7888H166.385C216.737 175.554 150.153 220.72 97.3964 220.72Z" fill="#231F20"/>
<path d="M222.899 93.8643H117.236V118.89H222.899V93.8643Z" fill="#75BF7A"/>
<path d="M184.722 93.8643H155.338V118.89H184.722V93.8643Z" fill="white"/>
<path d="M184.797 93.8643H181.415V118.89H184.797V93.8643Z" fill="#F3F9A2"/>
<path d="M158.72 93.8643H155.338V118.89H158.72V93.8643Z" fill="#F3F9A2"/>
<path d="M239.057 118.889H133.394V143.915H239.057V118.889Z" fill="#75BF7A"/>
<path d="M200.955 118.889H171.57V143.915H200.955V118.889Z" fill="white"/>
<path d="M200.954 118.889H197.572V143.915H200.954V118.889Z" fill="#F3F9A2"/>
<path d="M174.952 118.889H171.57V143.915H174.952V118.889Z" fill="#F3F9A2"/>
<path opacity="0.25" d="M133.421 121.531L239.084 121.531V118.826L133.421 118.826V121.531Z" fill="#231F20"/>
<path d="M226.206 143.915H120.543V168.941H226.206V143.915Z" fill="#75BF7A"/>
<path d="M188.029 143.915H158.645V168.941H188.029V143.915Z" fill="white"/>
<path d="M188.028 143.915H184.646V168.941H188.028V143.915Z" fill="#F3F9A2"/>
<path d="M162.026 143.915H158.645V168.941H162.026V143.915Z" fill="#F3F9A2"/>
<path opacity="0.25" d="M120.454 146.584H226.117V143.879H120.454V146.584Z" fill="#231F20"/>
<path d="M239.057 168.94H133.394V193.965H239.057V168.94Z" fill="#75BF7A"/>
<path d="M200.955 168.94H171.57V193.965H200.955V168.94Z" fill="white"/>
<path d="M200.954 168.94H197.572V193.965H200.954V168.94Z" fill="#F3F9A2"/>
<path d="M174.952 168.94H171.57V193.965H174.952V168.94Z" fill="#F3F9A2"/>
<path opacity="0.25" d="M133.429 171.636H239.092V168.931H133.429V171.636Z" fill="#231F20"/>
<path d="M235.9 193.966H130.237V218.991H235.9V193.966Z" fill="#75BF7A"/>
<path d="M197.723 193.966H168.339V218.991H197.723V193.966Z" fill="white"/>
<path d="M197.799 193.966H194.417V218.991H197.799V193.966Z" fill="#F3F9A2"/>
<path d="M171.721 193.966H168.339V218.991H171.721V193.966Z" fill="#F3F9A2"/>
<path opacity="0.25" d="M130.245 196.688H235.908V193.983H130.245V196.688Z" fill="#231F20"/>
<path opacity="0.15" d="M135.648 161.726C135.573 161.726 135.423 161.726 135.348 161.726V161.2L133.319 158.044H120.543V218.992H133.319L133.394 218.917C134.145 218.992 134.972 218.992 135.724 218.992C151.956 218.992 165.108 206.141 165.108 190.359C165.108 174.577 151.881 161.726 135.648 161.726Z" fill="#231F20"/>
<path d="M132.943 161.5H84.1699V173.599H132.943V161.5Z" fill="#FFB229"/>
<path d="M132.117 160.147H84.9966L84.1699 161.5H132.943L132.117 160.147Z" fill="#FFC550"/>
<path d="M84.9966 174.876H132.117L132.943 173.599H84.1699L84.9966 174.876Z" fill="#EA9A0C"/>
<path d="M102.732 161.5H98.9746V173.599H102.732V161.5Z" fill="#FFD694"/>
<path d="M104.987 161.5H103.635V173.599H104.987V161.5Z" fill="#FFD694"/>
<path opacity="0.05" d="M122.422 174.877V160.147H132.116L132.943 161.5V173.599L132.116 174.877H122.422Z" fill="#231F20"/>
<path opacity="0.1" d="M94.7663 160.147V174.877H84.9966L84.1699 173.599V161.5L84.9966 160.147H94.7663Z" fill="white"/>
<path d="M132.943 176.155H84.1699V188.254H132.943V176.155Z" fill="#FFB229"/>
<path d="M132.117 174.877H84.9966L84.1699 176.155H132.943L132.117 174.877Z" fill="#FFC550"/>
<path d="M84.9966 189.607H132.117L132.943 188.329H84.1699L84.9966 189.607Z" fill="#EA9A0C"/>
<path d="M102.732 176.155H98.9746V188.254H102.732V176.155Z" fill="#FFD694"/>
<path d="M104.987 176.155H103.634V188.254H104.987V176.155Z" fill="#FFD694"/>
<path opacity="0.05" d="M122.422 189.607V174.877H132.116L132.943 176.155V188.33L132.116 189.607H122.422Z" fill="#231F20"/>
<path opacity="0.1" d="M94.7663 174.877V189.607H84.9966L84.1699 188.33V176.155L84.9966 174.877H94.7663Z" fill="white"/>
<path d="M132.943 190.885H84.1699V202.984H132.943V190.885Z" fill="#FFB229"/>
<path d="M132.117 189.607H84.9966L84.1699 190.885H132.943L132.117 189.607Z" fill="#FFC550"/>
<path d="M84.9966 204.337H132.117L132.943 202.984H84.1699L84.9966 204.337Z" fill="#EA9A0C"/>
<path d="M102.732 190.885H98.9746V202.984H102.732V190.885Z" fill="#FFD694"/>
<path d="M104.987 190.885H103.634V202.984H104.987V190.885Z" fill="#FFD694"/>
<path opacity="0.05" d="M122.422 204.337V189.607H132.116L132.943 190.885V202.984L132.116 204.337H122.422Z" fill="#231F20"/>
<path opacity="0.1" d="M94.7663 189.607V204.337H84.9966L84.1699 202.984V190.885L84.9966 189.607H94.7663Z" fill="white"/>
<path d="M132.943 205.614H84.1699V217.713H132.943V205.614Z" fill="#FFB229"/>
<path d="M132.117 204.336H84.9966L84.1699 205.614H132.943L132.117 204.336Z" fill="#FFC550"/>
<path d="M84.9966 218.99H132.117L132.943 217.713H84.1699L84.9966 218.99Z" fill="#EA9A0C"/>
<path d="M102.732 205.614H98.9746V217.713H102.732V205.614Z" fill="#FFD694"/>
<path d="M104.987 205.614H103.634V217.713H104.987V205.614Z" fill="#FFD694"/>
<path opacity="0.05" d="M122.422 218.99V204.336H132.116L132.943 205.614V217.713L132.116 218.99H122.422Z" fill="#231F20"/>
<path opacity="0.1" d="M94.7663 204.336V218.991H84.9966L84.1699 217.713V205.614L84.9966 204.336H94.7663Z" fill="white"/>
<path d="M99.1249 146.771H50.3516V158.87H99.1249V146.771Z" fill="#FFB229"/>
<path d="M98.2982 145.493H51.1782L50.3516 146.771H99.1249L98.2982 145.493Z" fill="#FFC550"/>
<path d="M51.1782 160.148H98.2982L99.1249 158.87H50.3516L51.1782 160.148Z" fill="#EA9A0C"/>
<path d="M68.9138 146.771H65.1562V158.87H68.9138V146.771Z" fill="#FFD694"/>
<path d="M71.1682 146.771H69.8154V158.87H71.1682V146.771Z" fill="#FFD694"/>
<path opacity="0.05" d="M88.6035 160.148V145.493H98.2981L99.1247 146.771V158.87L98.2981 160.148H88.6035Z" fill="#231F20"/>
<path opacity="0.1" d="M60.9479 145.493V160.148H51.1782L50.3516 158.87V146.771L51.1782 145.493H60.9479Z" fill="white"/>
<path d="M99.1249 161.5H50.3516V173.599H99.1249V161.5Z" fill="#FFB229"/>
<path d="M98.2982 160.147H51.1782L50.3516 161.5H99.1249L98.2982 160.147Z" fill="#FFC550"/>
<path d="M51.1782 174.876H98.2982L99.1249 173.599H50.3516L51.1782 174.876Z" fill="#EA9A0C"/>
<path d="M68.9138 161.5H65.1562V173.599H68.9138V161.5Z" fill="#FFD694"/>
<path d="M71.1682 161.5H69.8154V173.599H71.1682V161.5Z" fill="#FFD694"/>
<path opacity="0.05" d="M88.6035 174.877V160.147H98.2981L99.1247 161.5V173.599L98.2981 174.877H88.6035Z" fill="#231F20"/>
<path opacity="0.1" d="M60.9479 160.147V174.877H51.1782L50.3516 173.599V161.5L51.1782 160.147H60.9479Z" fill="white"/>
<path d="M99.1249 176.155H50.3516V188.254H99.1249V176.155Z" fill="#FFB229"/>
<path d="M98.2982 174.878H51.1782L50.3516 176.156H99.1249L98.2982 174.878Z" fill="#FFC550"/>
<path d="M51.1782 189.608H98.2982L99.1249 188.33H50.3516L51.1782 189.608Z" fill="#EA9A0C"/>
<path d="M68.9138 176.155H65.1562V188.254H68.9138V176.155Z" fill="#FFD694"/>
<path d="M71.1682 176.155H69.8154V188.254H71.1682V176.155Z" fill="#FFD694"/>
<path opacity="0.05" d="M88.6035 189.608V174.878H98.2981L99.1247 176.156V188.33L98.2981 189.608H88.6035Z" fill="#231F20"/>
<path opacity="0.1" d="M60.9479 174.878V189.608H51.1782L50.3516 188.33V176.156L51.1782 174.878H60.9479Z" fill="white"/>
<path d="M99.1249 190.885H50.3516V202.984H99.1249V190.885Z" fill="#FFB229"/>
<path d="M98.2982 189.608H51.1782L50.3516 190.885H99.1249L98.2982 189.608Z" fill="#FFC550"/>
<path d="M51.1782 204.337H98.2982L99.1249 202.984H50.3516L51.1782 204.337Z" fill="#EA9A0C"/>
<path d="M68.9138 190.885H65.1562V202.984H68.9138V190.885Z" fill="#FFD694"/>
<path d="M71.1682 190.885H69.8154V202.984H71.1682V190.885Z" fill="#FFD694"/>
<path opacity="0.05" d="M88.6035 204.337V189.607H98.2981L99.1247 190.885V202.984L98.2981 204.337H88.6035Z" fill="#231F20"/>
<path opacity="0.1" d="M60.9479 189.608V204.337H51.1782L50.3516 202.985V190.885L51.1782 189.608H60.9479Z" fill="white"/>
<path d="M99.1249 205.615H50.3516V217.714H99.1249V205.615Z" fill="#FFB229"/>
<path d="M98.2982 204.337H51.1782L50.3516 205.614H99.1249L98.2982 204.337Z" fill="#FFC550"/>
<path d="M51.1782 218.991H98.2982L99.1249 217.713H50.3516L51.1782 218.991Z" fill="#EA9A0C"/>
<path d="M68.9138 205.615H65.1562V217.714H68.9138V205.615Z" fill="#FFD694"/>
<path d="M71.1682 205.615H69.8154V217.714H71.1682V205.615Z" fill="#FFD694"/>
<path opacity="0.05" d="M88.6035 218.991V204.337H98.2981L99.1247 205.614V217.714L98.2981 218.991H88.6035Z" fill="#231F20"/>
<path opacity="0.1" d="M60.9479 204.337V218.991H51.1782L50.3516 217.714V205.614L51.1782 204.337H60.9479Z" fill="white"/>
<path opacity="0.25" d="M99.1245 218.992V161.501L98.2979 160.148H101.379V218.992H99.1245Z" fill="#231F20"/>
<path opacity="0.1" d="M120.317 218.991H131.289V164.056C117.085 166.385 106.188 178.71 106.188 193.59C106.264 204.337 111.9 213.731 120.317 218.991Z" fill="#231F20"/>
<path d="M146.472 217.069C160.559 211.383 167.369 195.354 161.683 181.268C155.997 167.181 139.968 160.371 125.882 166.057C111.795 171.743 104.985 187.772 110.671 201.858C116.357 215.945 132.386 222.755 146.472 217.069Z" fill="#FFB229"/>
<path d="M136.174 215.009C149.123 215.009 159.621 204.511 159.621 191.561C159.621 178.612 149.123 168.114 136.174 168.114C123.224 168.114 112.727 178.612 112.727 191.561C112.727 204.511 123.224 215.009 136.174 215.009Z" fill="#AF7000"/>
<path d="M136.174 214.107C148.626 214.107 158.72 204.013 158.72 191.561C158.72 179.11 148.626 169.016 136.174 169.016C123.723 169.016 113.629 179.11 113.629 191.561C113.629 204.013 123.723 214.107 136.174 214.107Z" fill="#FFBE2E"/>
<path d="M158.719 191.561C158.719 204.036 148.649 214.107 136.174 214.107C127.607 214.107 120.242 209.372 116.409 202.383C119.641 204.112 123.323 205.164 127.231 205.164C139.706 205.164 149.776 195.093 149.776 182.618C149.776 178.71 148.799 174.953 146.996 171.796C153.985 175.629 158.719 182.994 158.719 191.561Z" fill="#F2AB1D"/>
<path d="M142.712 190.96C141.284 189.907 139.631 189.081 137.902 188.48V182.543C138.654 182.693 139.33 183.069 140.006 183.595C140.607 184.121 141.209 184.647 141.735 185.173L144.816 182.092C144.215 181.566 143.689 181.04 143.163 180.664C142.637 180.213 142.186 179.912 141.66 179.612C141.134 179.311 140.532 179.086 140.006 178.86C139.405 178.71 138.729 178.56 137.902 178.484V176.08H134.746V178.484C133.844 178.635 133.017 178.86 132.115 179.161C131.289 179.537 130.537 179.987 129.861 180.514C129.184 181.04 128.658 181.716 128.283 182.543C127.907 183.294 127.681 184.196 127.681 185.173C127.681 187.202 128.358 188.705 129.786 189.832C130.913 190.659 132.566 191.561 134.746 192.387V198.926C133.844 198.7 133.017 198.324 132.416 197.798C131.815 197.272 131.214 196.596 130.763 195.769L127.306 198.7C128.283 200.053 129.41 201.03 130.537 201.706C131.74 202.383 133.092 202.834 134.746 202.984V207.042H137.902V203.059C140.006 202.834 141.66 202.307 142.862 201.33C144.365 200.203 145.117 198.475 145.192 196.37C145.192 196.22 145.192 196.07 145.192 195.995C145.192 193.815 144.365 192.162 142.712 190.96ZM137.827 193.665C138.428 193.966 138.954 194.266 139.33 194.492C140.232 195.018 140.683 195.619 140.683 196.446C140.683 196.897 140.607 197.272 140.457 197.573C140.307 197.874 140.081 198.099 139.781 198.324C139.48 198.55 139.18 198.7 138.879 198.851C138.503 199.001 138.203 199.076 137.827 199.151V193.665ZM133.844 186.901C133.543 186.751 133.243 186.601 133.017 186.375C132.792 186.15 132.566 185.924 132.341 185.699C132.191 185.398 132.04 185.173 132.04 184.797C132.04 184.421 132.115 184.121 132.266 183.895C132.416 183.595 132.641 183.369 132.867 183.219C133.092 182.994 133.393 182.918 133.694 182.768C133.994 182.693 134.295 182.618 134.595 182.543V187.352C134.37 187.202 134.144 187.052 133.844 186.901Z" fill="#D38D02"/>
</g>
<defs>
<linearGradient id="paint0_linear_209_871" x1="248" y1="211.777" x2="68.0358" y2="329.879" gradientUnits="userSpaceOnUse">
<stop stop-color="#4CDB80"/>
<stop offset="1" stop-color="#3FC2E2"/>
</linearGradient>
<clipPath id="clip0_209_871">
<rect width="248" height="226.206" fill="white"/>
</clipPath>
</defs>
</svg>
