<svg width="24" height="23" viewBox="0 0 24 23" fill="none" xmlns="http://www.w3.org/2000/svg">
<g clip-path="url(#clip0_243_1007)">
<path d="M5.59728 13.8992L4.79669 16.888L1.87052 16.9499C0.996027 15.3279 0.5 13.4721 0.5 11.5C0.5 9.59307 0.963773 7.79475 1.78584 6.2113H1.78647L4.39158 6.68891L5.53278 9.27839C5.29393 9.97472 5.16374 10.7222 5.16374 11.5C5.16383 12.3442 5.31675 13.153 5.59728 13.8992Z" fill="#FBBB00"/>
<path d="M23.2992 9.35168C23.4312 10.0473 23.5001 10.7658 23.5001 11.5C23.5001 12.3234 23.4135 13.1265 23.2486 13.9011C22.6888 16.5373 21.226 18.8392 19.1996 20.4681L19.199 20.4675L15.9177 20.3001L15.4533 17.4011C16.7979 16.6125 17.8488 15.3784 18.4023 13.9011H12.2529V9.35168H18.492H23.2992Z" fill="#518EF8"/>
<path d="M19.1985 20.4675L19.1991 20.4682C17.2283 22.0523 14.7248 23.0001 11.9996 23.0001C7.62012 23.0001 3.81249 20.5522 1.87012 16.9499L5.59688 13.8993C6.56805 16.4912 9.06835 18.3363 11.9996 18.3363C13.2595 18.3363 14.4399 17.9957 15.4527 17.4011L19.1985 20.4675Z" fill="#28B446"/>
<path d="M19.3407 2.64752L15.6152 5.69753C14.5669 5.0423 13.3278 4.66379 12.0003 4.66379C9.0027 4.66379 6.45563 6.5935 5.53311 9.27834L1.78676 6.21126H1.78613C3.70007 2.52115 7.55572 0 12.0003 0C14.7906 0 17.349 0.993941 19.3407 2.64752Z" fill="#F14336"/>
</g>
<defs>
<clipPath id="clip0_243_1007">
<rect width="23" height="23" fill="white" transform="translate(0.5)"/>
</clipPath>
</defs>
</svg>
