<svg width="539" height="565" viewBox="0 0 539 565" fill="none" xmlns="http://www.w3.org/2000/svg">
<path d="M486.523 234.724C478.977 220.644 465.879 208.575 450.065 206.372C433.798 204.112 417.843 212.451 405.08 222.813C392.261 233.176 381.309 245.854 372.74 260.25C367.749 268.68 362.65 278.466 353.26 281.212C344.421 283.788 335.128 278.952 328.003 273.098C320.877 267.245 314.474 260.103 305.882 256.77C283.503 248.08 258.537 268.917 235.295 262.906C215.276 257.73 205.693 235.786 193.253 219.231C172.706 191.976 137.003 176.223 103.391 181.941C69.7788 187.659 44.1979 246.882 39.5732 280.703L499.976 280.545C497.087 264.815 494.101 248.792 486.523 234.724Z" fill="#EBEBEB"/>
<path d="M126.503 112.559C126.913 109.407 122.676 106.819 119.485 106.548C117.962 106.612 116.437 106.476 114.947 106.141C111.831 105.011 110.635 100.773 107.541 99.4287C105.266 98.423 102.647 99.3157 100.448 100.48C98.2486 101.643 96.0603 103.112 93.5917 103.271C91.4357 103.418 89.118 102.581 87.2422 103.677C85.8516 104.502 85.0862 106.186 83.825 107.18C82.4901 108.061 80.9388 108.512 79.3621 108.48C77.7949 108.44 76.2343 108.704 74.759 109.26C74.0273 109.559 73.4075 110.098 72.9918 110.796C72.5761 111.495 72.3868 112.315 72.4521 113.136L126.503 112.559Z" fill="#F5F5F5"/>
<path d="M269.748 142.538C270.158 139.385 265.921 136.798 262.73 136.527C261.207 136.591 259.683 136.455 258.192 136.12C255.077 134.99 253.88 130.752 250.786 129.408C248.512 128.402 245.892 129.295 243.693 130.458C241.494 131.622 239.306 133.091 236.837 133.261C234.681 133.396 232.363 132.572 230.498 133.668C229.097 134.481 228.342 136.165 227.081 137.171C225.737 138.034 224.184 138.474 222.607 138.436C221.039 138.394 219.477 138.662 218.004 139.227C217.274 139.526 216.656 140.063 216.24 140.759C215.825 141.455 215.634 142.273 215.697 143.092L269.748 142.538Z" fill="#F5F5F5"/>
<path d="M504.612 140.685C505.355 135.035 497.723 130.345 491.977 129.86C489.239 129.634 486.404 130.074 483.806 129.125C478.19 127.068 475.948 119.464 470.46 117.034C466.364 115.226 461.653 116.842 457.675 118.932C453.698 121.023 449.774 123.667 445.343 123.972C441.484 124.221 437.29 122.729 433.906 124.707C431.394 126.176 430.079 129.227 427.75 131.012C425.422 132.798 422.522 133.137 419.708 133.272C416.895 133.408 413.973 133.464 411.408 134.696C408.842 135.928 406.729 138.764 407.257 141.668L504.612 140.685Z" fill="#EBEBEB"/>
<path d="M283.018 84.4336C283.956 77.2581 274.308 71.3595 267.042 70.7493C263.582 70.4555 259.992 71.0092 256.715 69.8114C249.611 67.2124 246.776 57.5961 239.845 54.5338C234.659 52.2738 228.698 54.2852 223.675 56.9294C218.651 59.5736 213.692 62.9184 208.054 63.28C203.171 63.6077 197.867 61.7093 193.598 64.2179C190.364 66.0711 188.747 69.8679 185.815 72.1279C182.883 74.3879 179.207 74.8173 175.639 75.0207C172.071 75.2241 168.395 75.258 165.15 76.8174C161.905 78.3768 159.232 81.9702 159.9 85.6427L283.018 84.4336Z" fill="#EBEBEB"/>
<path d="M20.083 411.749L23.511 378.787L219.093 392.2C223.333 392.494 227.521 391.093 230.816 388.279C234.11 385.465 236.265 381.448 236.847 377.036L249.6 280.24H293.938L313.116 379.239C313.912 383.36 316.089 387.046 319.252 389.63C322.416 392.215 326.357 393.527 330.364 393.33L514.098 384.516V419.117L352.775 447.932C349.004 448.324 345.347 449.512 342.024 451.423C338.701 453.334 335.782 455.93 333.44 459.055C331.099 462.179 329.385 465.767 328.401 469.604C327.416 473.44 327.182 477.446 327.712 481.38L335.258 537.767H221.54L226.143 486.137C226.995 476.601 224.356 467.082 218.761 459.509C213.166 451.936 205.034 446.877 196.013 445.356L20.083 411.749Z" fill="#E0E0E0"/>
<path d="M280.226 369.454H269.5L272.044 321.18L276.701 321.191L280.226 369.454Z" fill="#F5F5F5"/>
<path d="M284.085 480.871H269.5L272.098 421.094L280.075 421.117L284.085 480.871Z" fill="#F5F5F5"/>
<path d="M349.833 423.547L348.798 414.201L405.63 408.992L407.172 415.196L349.833 423.547Z" fill="#F5F5F5"/>
<path d="M465.027 410.699L464.003 401.353L514.087 396.754V403.546L465.027 410.699Z" fill="#F5F5F5"/>
<path d="M203.343 417.976L204.378 408.631L147.545 403.41L146.004 409.625L203.343 417.976Z" fill="#F5F5F5"/>
<path d="M77.4217 403.41L78.241 395.952L22.4976 388.494L21.7861 395.308L77.4217 403.41Z" fill="#F5F5F5"/>
<path d="M345.737 371.985H336.466V77.2808C336.466 75.9921 336.954 74.7562 337.824 73.8449C338.693 72.9337 339.872 72.4218 341.101 72.4218C342.33 72.4247 343.507 72.9376 344.376 73.8482C345.244 74.7588 345.734 75.993 345.737 77.2808V371.985Z" fill="#263238"/>
<path d="M297.141 196.507L322.829 194.01L386.334 229.842L382.087 238.102L374.077 238.068L379.414 243.323L373.603 254.634L310.508 219.039L297.141 196.507Z" fill="url(#paint0_linear_209_701)"/>
<path opacity="0.3" d="M297.141 196.507L322.829 194.01L386.334 229.842L382.087 238.102L374.077 238.068L379.414 243.323L373.603 254.634L310.508 219.039L297.141 196.507Z" fill="black"/>
<path d="M296.354 193.083L314.486 191.32C316.526 191.12 318.578 191.556 320.382 192.575L381.117 226.836L376.87 235.108H368.86L374.196 240.362L368.386 251.662L307.737 217.446C306.14 216.542 304.795 215.218 303.835 213.604L294.295 197.467C294.046 197.053 293.903 196.578 293.879 196.089C293.854 195.6 293.95 195.112 294.157 194.673C294.363 194.233 294.673 193.856 295.058 193.578C295.442 193.3 295.889 193.129 296.354 193.083Z" fill="url(#paint1_linear_209_701)"/>
<g opacity="0.2">
<path d="M365.776 250.261C365.556 249.293 365.192 248.366 364.698 247.515C363.177 245.315 361.249 243.459 359.028 242.057C352.003 236.9 344.502 232.494 336.638 228.904C332.035 226.791 327.507 225.141 323.433 223.514C319.793 222.13 316.234 220.527 312.771 218.712C310.438 217.477 308.215 216.025 306.131 214.372C305.387 213.796 304.859 213.242 304.481 212.96C304.283 212.801 304.102 212.619 303.942 212.417C303.942 212.417 304.762 213.073 306.26 214.18C308.378 215.758 310.617 217.149 312.954 218.339C316.425 220.097 319.984 221.655 323.616 223.006C327.691 224.599 332.24 226.237 336.864 228.362C344.763 231.967 352.272 236.444 359.265 241.718C361.498 243.167 363.416 245.092 364.892 247.368C365.261 248.015 365.524 248.721 365.669 249.459C365.716 249.647 365.745 249.841 365.755 250.035C365.776 250.193 365.787 250.261 365.776 250.261Z" fill="black"/>
<path d="M298.51 193.23C298.229 194.437 298.199 195.694 298.423 196.914C298.702 198.337 299.26 199.684 300.062 200.869C301.15 202.419 302.442 203.8 303.9 204.971C307.679 208.084 311.64 210.948 315.758 213.547C320.404 216.508 325.675 219.469 331.27 222.463L359.923 237.809C363.535 239.786 366.488 241.379 368.547 242.521L370.886 243.832C371.162 243.976 371.428 244.139 371.684 244.317C371.389 244.218 371.104 244.089 370.833 243.933L368.45 242.724L359.708 238.204L331.033 222.949C325.438 219.943 320.156 216.96 315.51 213.909C311.378 211.278 307.417 208.364 303.652 205.186C302.178 203.978 300.882 202.55 299.803 200.948C298.998 199.72 298.454 198.325 298.208 196.857C298.045 195.931 298.045 194.981 298.208 194.055C298.285 193.771 298.386 193.495 298.51 193.23Z" fill="black"/>
<path d="M323.476 205.536C323.274 205.285 323.093 205.017 322.937 204.733C322.443 203.949 321.907 203.194 321.33 202.473C319.216 199.876 316.591 197.791 313.634 196.36C312.668 195.874 311.656 195.495 310.615 195.23C309.514 194.938 308.355 194.993 307.284 195.388C306.725 195.588 306.223 195.932 305.824 196.388C305.424 196.844 305.141 197.398 304.999 197.999C304.883 199.338 305.269 200.671 306.077 201.716C309.181 206.406 314.108 210.225 319.563 213.468C320.932 214.282 322.301 215.084 323.659 215.807C324.95 216.559 326.388 216.992 327.863 217.073C328.555 217.109 329.245 216.978 329.88 216.69C330.516 216.402 331.08 215.965 331.528 215.412C332.307 214.262 332.624 212.838 332.412 211.446C332.202 210.095 331.748 208.799 331.076 207.626C330.44 206.496 329.739 205.366 329.06 204.315C327.784 202.384 326.34 200.579 324.748 198.925C322.418 196.538 319.744 194.552 316.824 193.038C315.746 192.507 314.97 192.134 314.399 191.908C314.111 191.794 313.831 191.662 313.558 191.512C313.86 191.58 314.156 191.674 314.442 191.795C315.286 192.099 316.113 192.45 316.921 192.846C319.908 194.293 322.645 196.253 325.017 198.643C326.658 200.291 328.145 202.1 329.459 204.044C330.148 205.095 330.86 206.191 331.518 207.434C332.228 208.658 332.71 210.011 332.941 211.423C333.177 212.966 332.824 214.545 331.96 215.819C331.461 216.44 330.834 216.932 330.126 217.259C329.417 217.587 328.647 217.739 327.874 217.706C326.306 217.64 324.774 217.191 323.4 216.395C322.01 215.661 320.651 214.858 319.271 214.045C313.784 210.79 308.793 206.914 305.646 202.089C304.785 200.916 304.397 199.435 304.568 197.965C304.729 197.283 305.052 196.654 305.506 196.136C305.96 195.619 306.53 195.23 307.166 195.004C308.326 194.585 309.578 194.534 310.766 194.857C311.83 195.116 312.863 195.495 313.849 195.987C317.677 197.842 320.892 200.847 323.088 204.62C323.234 204.917 323.364 205.223 323.476 205.536Z" fill="black"/>
<path d="M379.284 230.599C379.284 230.656 378.411 230.215 376.761 229.865C374.408 229.473 372.01 229.473 369.657 229.865C366.671 230.215 363.189 231.187 359.082 231.232C356.947 231.244 354.827 230.861 352.819 230.102C350.674 229.284 348.655 228.142 346.825 226.712C343.339 223.918 340.378 220.469 338.093 216.542C336.237 213.359 334.567 210.061 333.091 206.666C331.787 203.795 330.72 201.49 329.922 199.886L329.017 198.078C328.895 197.876 328.797 197.66 328.726 197.434C328.873 197.615 329.003 197.812 329.114 198.021C329.362 198.417 329.696 199.004 330.116 199.773C330.968 201.321 332.1 203.603 333.447 206.451C334.964 209.802 336.659 213.062 338.525 216.214C340.799 220.063 343.721 223.448 347.149 226.203C350.567 228.98 354.748 230.529 359.071 230.622C363.038 230.622 366.617 229.695 369.603 229.39C371.996 229.045 374.428 229.129 376.794 229.639C377.431 229.791 378.055 229.999 378.659 230.26C378.881 230.343 379.091 230.457 379.284 230.599Z" fill="black"/>
<path d="M357.045 219.22C356.823 219.157 356.607 219.074 356.398 218.971C355.989 218.791 355.396 218.508 354.63 218.101C353.865 217.695 352.97 217.175 351.946 216.497C351.429 216.165 350.89 215.789 350.329 215.367C349.678 214.976 349.124 214.43 348.712 213.773C348.585 213.561 348.528 213.31 348.552 213.061C348.575 212.811 348.677 212.577 348.842 212.395C349.028 212.242 349.247 212.139 349.48 212.096C349.713 212.052 349.953 212.07 350.178 212.146C351.019 212.384 351.806 212.677 352.658 212.982C354.339 213.604 356.118 214.35 357.94 215.242C359.847 216.166 361.704 217.2 363.502 218.339C364.538 218.884 365.43 219.687 366.1 220.678C366.285 220.961 366.405 221.284 366.453 221.623C366.5 221.962 366.474 222.307 366.375 222.634C366.276 222.96 366.108 223.259 365.883 223.508C365.658 223.756 365.382 223.947 365.076 224.068C363.953 224.478 362.755 224.618 361.573 224.475C360.453 224.417 359.339 224.266 358.242 224.023C356.163 223.583 354.153 222.841 352.27 221.819C349.6 220.374 347.234 218.383 345.312 215.962C343.39 213.542 341.951 210.742 341.08 207.728C340.886 207.076 340.731 206.412 340.616 205.739C340.561 205.506 340.532 205.267 340.53 205.027C340.584 205.027 340.757 205.988 341.296 207.66C342.053 210.017 343.143 212.242 344.53 214.259C346.609 217.241 349.331 219.664 352.474 221.333C354.32 222.318 356.286 223.033 358.317 223.458C359.383 223.686 360.464 223.83 361.551 223.887C362.641 224.026 363.748 223.902 364.785 223.525C365.022 223.426 365.234 223.273 365.407 223.078C365.581 222.883 365.711 222.65 365.788 222.395C365.854 222.15 365.869 221.892 365.829 221.64C365.79 221.388 365.699 221.148 365.561 220.938C364.941 220.027 364.12 219.287 363.168 218.779C361.387 217.65 359.552 216.617 357.67 215.683C355.87 214.79 354.113 214.033 352.453 213.423C351.623 213.107 350.793 212.79 350.038 212.576C349.879 212.513 349.709 212.491 349.54 212.51C349.372 212.53 349.21 212.591 349.068 212.689C348.965 212.805 348.902 212.954 348.891 213.112C348.879 213.27 348.919 213.427 349.003 213.559C349.383 214.167 349.892 214.674 350.491 215.039C351.03 215.468 351.569 215.841 352.054 216.169C353.057 216.858 353.951 217.412 354.684 217.841C355.417 218.271 356 218.599 356.398 218.813C356.63 218.918 356.848 219.055 357.045 219.22Z" fill="black"/>
</g>
<path d="M397.782 168.935L397.642 168.811L379.478 157.511L307.532 152.234L306.907 161.59L313.698 166.11L306.519 167.568L305.656 180.382L373.053 185.32C375.696 185.514 378.342 184.98 380.728 183.772L394.063 176.992C396.866 175.579 397.782 172.302 397.782 168.935Z" fill="url(#paint2_linear_209_701)"/>
<path opacity="0.3" d="M397.782 168.935L397.642 168.811L379.478 157.511L307.532 152.234L306.907 161.59L313.698 166.11L306.519 167.568L305.656 180.382L373.053 185.32C375.696 185.514 378.342 184.98 380.728 183.772L394.063 176.992C395.304 176.11 396.301 174.901 396.954 173.487C397.607 172.072 397.893 170.502 397.782 168.935Z" fill="black"/>
<path d="M396.704 167.421L382.28 155.771C380.659 154.451 378.701 153.665 376.653 153.511L307.844 148.459L307.219 157.827L314.011 162.279L306.831 163.737L305.969 176.551L374.68 181.602C376.492 181.734 378.306 181.368 379.941 180.54L396.23 172.28C396.648 172.064 397.006 171.741 397.272 171.34C397.538 170.939 397.703 170.474 397.75 169.988C397.798 169.502 397.726 169.012 397.543 168.563C397.36 168.114 397.072 167.721 396.704 167.421Z" fill="url(#paint3_linear_209_701)"/>
<g opacity="0.2">
<path d="M308.837 176.879C308.837 176.879 308.837 176.811 308.945 176.709C309.055 176.552 309.177 176.404 309.311 176.269C309.815 175.734 310.397 175.288 311.036 174.947C313.446 173.831 316.056 173.269 318.69 173.297C327.289 172.744 335.92 173.164 344.432 174.551C349.424 175.342 354.134 176.506 358.36 177.444C362.12 178.336 365.924 179.011 369.755 179.467C372.335 179.765 374.934 179.845 377.527 179.704C379.36 179.602 380.373 179.444 380.384 179.512C380.145 179.586 379.899 179.636 379.651 179.659C378.937 179.791 378.218 179.881 377.495 179.93C374.891 180.179 372.272 180.179 369.668 179.93C365.817 179.525 361.991 178.887 358.209 178.02C353.897 177.105 349.262 175.964 344.303 175.173C335.824 173.812 327.237 173.338 318.668 173.76C316.087 173.704 313.521 174.192 311.122 175.195C310.282 175.628 309.51 176.196 308.837 176.879Z" fill="black"/>
<path d="M394.786 166.302C394.74 166.623 394.66 166.937 394.549 167.24C394.225 168.118 393.75 168.926 393.147 169.624C392.183 170.72 391.012 171.593 389.709 172.189C387.987 172.934 386.171 173.414 384.319 173.613C379.514 174.194 374.677 174.435 369.841 174.336C364.397 174.269 358.414 173.839 352.151 173.206L320.124 169.963L310.422 168.901L307.781 168.585C307.475 168.563 307.172 168.514 306.875 168.438C307.18 168.408 307.487 168.408 307.791 168.438L310.443 168.641L320.145 169.511L352.194 172.585C358.446 173.184 364.408 173.625 369.841 173.715C374.652 173.842 379.466 173.646 384.254 173.127C386.101 172.955 387.916 172.51 389.644 171.805C390.924 171.257 392.081 170.433 393.04 169.387C393.821 168.498 394.416 167.447 394.786 166.302Z" fill="black"/>
<path d="M367.394 162.72C367.654 162.54 367.924 162.378 368.203 162.234C369.005 161.826 369.829 161.468 370.671 161.161C373.791 160.058 377.105 159.699 380.373 160.11C381.473 160.235 382.557 160.481 383.607 160.844C384.778 161.233 385.813 161.976 386.583 162.98C387.005 163.528 387.288 164.179 387.407 164.872C387.525 165.565 387.476 166.279 387.262 166.946C386.646 168.28 385.554 169.307 384.222 169.805C379.091 172.065 372.903 172.596 366.597 172.269C365.012 172.189 363.46 172.11 361.918 171.952C360.356 171.857 358.836 171.385 357.477 170.574C356.805 170.169 356.231 169.609 355.799 168.935C355.367 168.26 355.089 167.491 354.987 166.686C354.907 165.127 355.414 163.598 356.399 162.426C357.31 161.359 358.408 160.484 359.633 159.85C360.786 159.217 361.94 158.72 363.072 158.177C365.16 157.273 367.326 156.576 369.54 156.098C372.763 155.402 376.076 155.28 379.339 155.737C380.224 155.85 381.102 156.016 381.969 156.234C382.277 156.293 382.58 156.38 382.874 156.494C382.563 156.464 382.253 156.415 381.947 156.347C381.354 156.234 380.46 156.087 379.317 155.963C376.076 155.605 372.801 155.788 369.615 156.505C367.423 157.008 365.28 157.719 363.212 158.629C362.134 159.138 360.948 159.68 359.816 160.302C358.653 160.917 357.61 161.757 356.744 162.777C355.853 163.836 355.392 165.219 355.461 166.63C355.559 167.35 355.814 168.037 356.207 168.637C356.599 169.236 357.119 169.733 357.725 170.088C359.011 170.846 360.445 171.286 361.918 171.376C363.438 171.523 365.001 171.602 366.575 171.681C372.838 172.009 378.951 171.534 383.952 169.308C385.164 168.875 386.166 167.962 386.744 166.765C386.935 166.178 386.98 165.55 386.877 164.94C386.773 164.329 386.524 163.756 386.152 163.274C385.447 162.339 384.494 161.643 383.413 161.274C382.405 160.905 381.36 160.655 380.298 160.528C377.068 160.076 373.784 160.366 370.671 161.375C369.593 161.737 368.753 162.11 368.192 162.347C367.936 162.493 367.669 162.618 367.394 162.72Z" fill="black"/>
<path d="M307.446 152.686C307.674 152.678 307.903 152.701 308.125 152.753C308.772 152.866 309.407 153.04 310.023 153.273C312.28 154.165 314.376 155.452 316.221 157.081C318.625 159.036 321.148 161.793 324.5 164.031C328.203 166.374 332.527 167.404 336.833 166.969C341.154 166.572 345.37 165.351 349.273 163.364C352.457 161.743 355.552 159.936 358.543 157.951C361.131 156.302 363.254 155.002 364.753 154.177C365.507 153.759 366.1 153.454 366.499 153.262C366.699 153.141 366.913 153.046 367.135 152.979C366.955 153.13 366.76 153.259 366.553 153.364L364.861 154.381C363.394 155.262 361.314 156.641 358.759 158.313C355.781 160.352 352.689 162.201 349.499 163.85C345.561 165.893 341.295 167.15 336.919 167.556C334.647 167.738 332.362 167.566 330.138 167.048C328.059 166.564 326.077 165.7 324.285 164.494C320.867 162.234 318.377 159.387 316.027 157.409C314.231 155.773 312.197 154.449 310.001 153.488C309.164 153.172 308.311 152.904 307.446 152.686Z" fill="black"/>
<path d="M332.025 155.511C332.251 155.488 332.478 155.488 332.704 155.511C333.146 155.511 333.782 155.612 334.644 155.658C335.507 155.703 336.52 155.737 337.717 155.714C338.32 155.714 338.956 155.714 339.636 155.624C340.326 155.638 341.011 155.491 341.641 155.194C341.78 155.132 341.894 155.022 341.965 154.882C342.035 154.742 342.058 154.581 342.029 154.426C341.964 154.132 341.641 153.917 341.274 153.782C340.519 153.544 339.657 153.352 338.805 153.149C337.07 152.753 335.205 152.414 333.221 152.155C331.238 151.895 329.157 151.748 326.991 151.703C325.931 151.589 324.86 151.752 323.875 152.177C323.65 152.283 323.45 152.439 323.288 152.634C323.126 152.829 323.006 153.059 322.937 153.307C322.881 153.561 322.878 153.825 322.928 154.081C322.978 154.336 323.081 154.577 323.228 154.787C323.917 155.685 324.79 156.407 325.783 156.901C326.736 157.469 327.731 157.956 328.758 158.358C330.69 159.137 332.714 159.639 334.774 159.85C338.283 160.193 341.821 159.667 345.101 158.313C347.311 157.395 349.376 156.13 351.224 154.561C352.539 153.431 353.175 152.731 353.208 152.765C353.24 152.799 353.078 152.968 352.776 153.318C352.356 153.843 351.906 154.341 351.429 154.81C349.16 156.874 346.518 158.439 343.661 159.409C340.803 160.38 337.788 160.737 334.795 160.46C332.682 160.264 330.603 159.766 328.618 158.98C327.569 158.569 326.552 158.07 325.578 157.488C324.506 156.971 323.565 156.197 322.829 155.228C322.638 154.949 322.505 154.63 322.442 154.293C322.379 153.955 322.386 153.608 322.463 153.273C322.553 152.948 322.71 152.647 322.922 152.392C323.134 152.136 323.397 151.932 323.692 151.793C324.758 151.327 325.917 151.145 327.066 151.262C329.168 151.307 331.266 151.473 333.351 151.759C335.345 152.03 337.232 152.392 338.967 152.81C339.851 153.025 340.66 153.217 341.49 153.488C341.718 153.551 341.929 153.672 342.103 153.839C342.278 154.006 342.411 154.215 342.492 154.448C342.54 154.694 342.509 154.949 342.404 155.174C342.299 155.399 342.125 155.581 341.91 155.691C341.233 156.008 340.495 156.159 339.754 156.132C339.064 156.132 338.417 156.132 337.814 156.132C336.606 156.132 335.571 156.053 334.731 155.974C333.89 155.895 333.232 155.804 332.79 155.725C332.526 155.694 332.268 155.622 332.025 155.511Z" fill="black"/>
</g>
<path d="M294.941 118.503L316.933 132.651L388.997 129.939L388.684 120.56L381.483 116.865L388.479 114.627L388.037 101.79L316.437 104.48L294.941 118.503Z" fill="url(#paint4_linear_209_701)"/>
<path opacity="0.3" d="M294.941 118.503L316.933 132.651L388.997 129.939L388.684 120.56L381.483 116.865L388.479 114.627L388.037 101.79L316.437 104.48L294.941 118.503Z" fill="black"/>
<path d="M292.785 121.215L308.308 131.193C310.054 132.321 312.08 132.879 314.13 132.798L383.057 130.21L382.734 120.831L375.532 117.147L382.529 114.887L382.098 102.05L313.267 104.649C311.45 104.716 309.68 105.281 308.136 106.288L292.774 116.311C292.376 116.57 292.047 116.932 291.82 117.361C291.592 117.791 291.474 118.275 291.475 118.766C291.476 119.258 291.597 119.741 291.826 120.169C292.055 120.598 292.386 120.958 292.785 121.215Z" fill="url(#paint5_linear_209_701)"/>
<g opacity="0.2">
<path d="M379.176 102.084C379.154 102.15 379.121 102.211 379.079 102.265C378.988 102.432 378.884 102.591 378.767 102.74C378.316 103.327 377.782 103.838 377.182 104.254C374.897 105.621 372.362 106.468 369.744 106.74C361.246 108.238 352.619 108.776 344.012 108.344C338.967 108.107 334.202 107.463 329.869 107C326.04 106.525 322.189 106.265 318.334 106.22C315.739 106.206 313.146 106.414 310.583 106.842C308.772 107.147 307.78 107.418 307.759 107.35C307.992 107.261 308.229 107.186 308.47 107.124C308.945 107 309.635 106.785 310.54 106.616C313.11 106.1 315.718 105.828 318.334 105.802C322.205 105.776 326.074 105.984 329.922 106.423C334.234 106.864 339.021 107.486 344.034 107.723C352.606 108.143 361.198 107.662 369.679 106.288C372.26 106.059 374.771 105.29 377.063 104.028C377.856 103.493 378.568 102.838 379.176 102.084Z" fill="black"/>
<path d="M294.769 122.119C294.776 121.794 294.823 121.471 294.909 121.159C295.141 120.251 295.532 119.397 296.062 118.639C296.906 117.438 297.983 116.436 299.221 115.701C300.869 114.766 302.637 114.085 304.471 113.678C309.187 112.598 313.965 111.843 318.776 111.418C324.166 110.887 330.202 110.65 336.487 110.548L368.676 110.175H378.432H381.084C381.393 110.149 381.703 110.149 382.011 110.175C381.705 110.228 381.395 110.254 381.084 110.254L378.432 110.333L368.73 110.548L336.552 111.034C330.267 111.136 324.295 111.35 318.883 111.859C314.067 112.301 309.282 113.06 304.557 114.13C302.751 114.508 301.006 115.151 299.372 116.04C298.154 116.729 297.085 117.675 296.235 118.82C295.528 119.798 295.029 120.923 294.769 122.119Z" fill="black"/>
<path d="M322.322 122.605C322.088 122.821 321.835 123.014 321.568 123.181C320.814 123.684 320.029 124.133 319.217 124.526C316.219 125.977 312.947 126.703 309.645 126.65C308.558 126.641 307.474 126.517 306.411 126.278C305.212 126.019 304.112 125.394 303.252 124.481C302.777 123.982 302.429 123.365 302.24 122.687C302.052 122.01 302.029 121.294 302.174 120.605C302.654 119.211 303.638 118.071 304.912 117.43C309.774 114.571 315.886 113.407 322.16 113.023C323.745 112.932 325.297 112.842 326.85 112.819C328.412 112.745 329.969 113.05 331.399 113.712C332.108 114.038 332.737 114.531 333.236 115.152C333.735 115.773 334.091 116.506 334.277 117.294C334.512 118.837 334.16 120.416 333.296 121.69C332.493 122.85 331.487 123.839 330.332 124.605C329.254 125.374 328.176 126.029 327.098 126.65C325.102 127.786 323.009 128.72 320.845 129.442C317.71 130.483 314.431 130.972 311.143 130.888C310.253 130.871 309.364 130.803 308.481 130.685C308.171 130.664 307.864 130.611 307.564 130.526C307.873 130.504 308.183 130.504 308.491 130.526C309.095 130.526 309.99 130.628 311.143 130.628C314.399 130.62 317.633 130.075 320.727 129.012C322.859 128.276 324.92 127.33 326.882 126.187C327.96 125.566 329.038 124.899 330.116 124.142C331.216 123.409 332.171 122.462 332.93 121.351C333.704 120.195 334.021 118.769 333.814 117.373C333.642 116.669 333.319 116.015 332.868 115.463C332.418 114.91 331.853 114.474 331.216 114.187C329.856 113.574 328.381 113.296 326.904 113.373C325.384 113.373 323.821 113.486 322.247 113.576C315.983 113.961 309.957 115.102 305.203 117.87C304.038 118.429 303.131 119.449 302.681 120.707C302.555 121.31 302.577 121.936 302.742 122.529C302.908 123.121 303.213 123.66 303.63 124.097C304.424 124.95 305.44 125.539 306.551 125.792C307.591 126.043 308.653 126.176 309.72 126.187C312.977 126.273 316.212 125.622 319.207 124.277C320.018 123.907 320.809 123.492 321.578 123.034C321.817 122.875 322.066 122.732 322.322 122.605Z" fill="black"/>
<path d="M382.992 125.995C382.766 126.017 382.539 126.017 382.313 125.995C381.659 125.954 381.01 125.852 380.373 125.69C378.036 125.051 375.819 124 373.819 122.582C371.231 120.91 368.429 118.447 364.893 116.593C360.975 114.673 356.571 114.127 352.334 115.034C348.095 115.915 344.045 117.596 340.379 119.995C337.375 121.96 334.478 124.099 331.701 126.402C329.297 128.334 327.314 129.86 325.901 130.843C325.201 131.34 324.64 131.713 324.263 131.973C324.073 132.11 323.871 132.227 323.659 132.323C323.824 132.154 324.005 132.002 324.198 131.871L325.783 130.673C327.152 129.634 329.082 128.063 331.453 126.097C334.2 123.737 337.08 121.552 340.077 119.554C343.786 117.093 347.898 115.373 352.205 114.48C354.448 114.044 356.74 113.96 359.007 114.232C361.123 114.491 363.18 115.133 365.087 116.13C368.709 118.051 371.468 120.56 374.002 122.255C375.971 123.661 378.139 124.733 380.427 125.43C382.054 125.927 383.003 125.927 382.992 125.995Z" fill="black"/>
<path d="M358.241 125.905C358.015 125.919 357.788 125.919 357.562 125.905C357.12 125.905 356.484 125.905 355.621 125.972C354.759 126.04 353.746 126.108 352.56 126.266C351.967 126.345 351.331 126.447 350.663 126.571C349.974 126.627 349.306 126.847 348.711 127.215C348.58 127.291 348.477 127.413 348.42 127.559C348.363 127.705 348.355 127.867 348.399 128.018C348.484 128.171 348.603 128.301 348.745 128.397C348.888 128.493 349.05 128.553 349.218 128.571C349.983 128.73 350.867 128.831 351.741 128.933C353.498 129.136 355.395 129.272 357.378 129.295C359.465 129.335 361.552 129.259 363.631 129.069C364.695 129.058 365.742 128.779 366.682 128.255C366.893 128.124 367.076 127.948 367.217 127.738C367.358 127.527 367.455 127.287 367.501 127.035C367.528 126.776 367.503 126.515 367.426 126.267C367.35 126.02 367.225 125.792 367.059 125.6C366.286 124.783 365.346 124.161 364.31 123.78C363.305 123.32 362.267 122.942 361.205 122.65C359.205 122.092 357.142 121.819 355.072 121.837C351.546 121.879 348.081 122.796 344.96 124.515C342.853 125.666 340.926 127.148 339.247 128.91C338.061 130.165 337.489 130.956 337.446 130.922C337.558 130.71 337.688 130.51 337.834 130.323C338.221 129.774 338.639 129.249 339.085 128.752C341.137 126.453 343.608 124.609 346.352 123.328C349.096 122.047 352.058 121.355 355.061 121.294C357.18 121.257 359.295 121.523 361.346 122.085C362.431 122.377 363.494 122.755 364.526 123.215C365.647 123.63 366.662 124.31 367.49 125.204C367.71 125.459 367.873 125.761 367.97 126.088C368.067 126.416 368.094 126.762 368.051 127.102C367.999 127.44 367.875 127.76 367.689 128.04C367.502 128.32 367.257 128.552 366.973 128.718C365.955 129.295 364.82 129.605 363.663 129.622C361.57 129.808 359.468 129.872 357.368 129.814C355.352 129.814 353.444 129.622 351.676 129.396C350.781 129.272 349.951 129.17 349.099 128.99C348.869 128.951 348.651 128.855 348.463 128.709C348.276 128.564 348.124 128.373 348.021 128.153C347.95 127.914 347.957 127.656 348.041 127.42C348.125 127.185 348.281 126.986 348.485 126.854C349.142 126.451 349.881 126.218 350.641 126.176C351.309 126.063 351.956 125.984 352.56 125.916C353.756 125.792 354.791 125.735 355.643 125.724C356.495 125.713 357.152 125.724 357.594 125.724C357.817 125.752 358.035 125.813 358.241 125.905Z" fill="black"/>
</g>
<path d="M481.542 280.24C481.542 280.398 387.455 280.534 271.419 280.534C155.383 280.534 61.2842 280.342 61.2842 280.24C61.2842 280.138 155.35 279.946 271.419 279.946C387.487 279.946 481.542 280.014 481.542 280.24Z" fill="#263238"/>
<path d="M72.409 464.871C72.312 464.871 71.9239 463.198 71.137 460.52C70.1043 457.037 68.8288 453.638 67.3209 450.35C65.8068 447.063 64.0629 443.898 62.1033 440.881C60.5941 438.564 59.5701 437.186 59.6455 437.129C59.9464 437.389 60.2177 437.685 60.454 438.011C60.9499 438.609 61.629 439.502 62.4267 440.643C64.4906 443.62 66.2946 446.786 67.8167 450.102C69.346 453.414 70.5801 456.868 71.5035 460.418C71.8593 461.786 72.1072 462.893 72.2366 463.673C72.3372 464.064 72.395 464.466 72.409 464.871Z" fill="#263238"/>
<path d="M79.5022 469.741C79.3621 469.741 76.6348 460.294 73.4331 448.542C70.2314 436.79 67.752 427.219 67.9137 427.14C68.0754 427.061 70.7812 436.587 73.9829 448.339C77.1845 460.091 79.6532 469.696 79.5022 469.741Z" fill="#263238"/>
<path d="M85.3021 444.271C85.238 445.559 85.0976 446.842 84.8817 448.113C84.5906 450.474 84.2564 453.763 84.0732 457.379C83.8899 460.995 83.8792 464.294 83.9331 466.679C83.9999 467.966 83.9999 469.256 83.9331 470.543C83.8185 470.213 83.7566 469.866 83.7498 469.515C83.6636 468.848 83.5881 467.888 83.5126 466.69C83.3369 463.578 83.3369 460.457 83.5126 457.345C83.6686 454.231 83.9962 451.13 84.4936 448.056C84.6876 446.87 84.8709 445.921 85.0218 445.276C85.0745 444.93 85.1687 444.592 85.3021 444.271Z" fill="#263238"/>
<path d="M392.898 250.419C393.049 250.419 395 257.007 397.21 265.234C399.42 273.46 401.177 280.172 401.037 280.217C400.897 280.263 398.935 273.63 396.671 265.403C394.407 257.177 392.747 250.465 392.898 250.419Z" fill="#263238"/>
<path d="M405.705 252.521C405.791 252.521 405.381 254.058 404.918 256.544C404.306 259.77 403.945 263.043 403.84 266.33C403.751 269.616 403.92 272.904 404.346 276.161C404.67 278.669 404.993 280.195 404.896 280.217C404.744 279.884 404.635 279.53 404.573 279.167C404.32 278.199 404.115 277.218 403.958 276.229C402.86 269.665 403.055 262.935 404.53 256.454C404.741 255.472 405 254.503 405.306 253.549C405.385 253.186 405.52 252.839 405.705 252.521Z" fill="#263238"/>
<path d="M413.671 257.798C413.747 257.855 413.003 258.928 411.979 260.872C410.653 263.346 409.57 265.955 408.745 268.658C407.947 271.369 407.42 274.16 407.171 276.986C406.977 279.167 406.988 280.523 406.891 280.523C406.803 280.215 406.763 279.894 406.772 279.573C406.728 278.704 406.728 277.833 406.772 276.963C407.055 271.187 408.724 265.578 411.623 260.657C412.061 259.916 412.536 259.199 413.046 258.51C413.423 258.036 413.639 257.776 413.671 257.798Z" fill="#263238"/>
<path d="M343.267 358.492C342.696 356.232 344.14 353.859 345.768 352.187C347.396 350.515 349.326 349 350.166 346.786C351.536 343.181 349.703 338.525 352.031 335.486C353.4 333.723 355.869 333.135 357.087 331.248C357.645 330.198 358.01 329.049 358.165 327.858C359.463 321.882 362.266 316.38 366.283 311.925C366.54 317.256 365.423 322.56 363.049 327.282C361.944 329.07 361.128 331.036 360.634 333.101C360.116 336.491 361.938 340.051 361.141 343.396C360.224 347.238 356.106 349.803 355.912 353.758C355.751 357.148 358.532 360.029 358.327 363.363C358.156 364.783 357.668 366.142 356.904 367.329C354.435 371.623 350.824 374.584 345.337 374.482L338.621 374.731L343.267 358.492Z" fill="url(#paint6_linear_209_701)"/>
<g opacity="0.3">
<path d="M343.267 358.492C342.696 356.232 344.14 353.859 345.768 352.187C347.396 350.515 349.326 349 350.166 346.786C351.536 343.181 349.703 338.525 352.031 335.486C353.4 333.723 355.869 333.135 357.087 331.248C357.645 330.198 358.01 329.049 358.165 327.858C359.463 321.882 362.266 316.38 366.283 311.925C366.54 317.256 365.423 322.56 363.049 327.282C361.944 329.07 361.128 331.036 360.634 333.101C360.116 336.491 361.938 340.051 361.141 343.396C360.224 347.238 356.106 349.803 355.912 353.758C355.751 357.148 358.532 360.029 358.327 363.363C358.156 364.783 357.668 366.142 356.904 367.329C354.435 371.623 350.824 374.584 345.337 374.482L338.621 374.731L343.267 358.492Z" fill="black"/>
</g>
<path d="M337.317 374.979C336.707 375.09 336.083 375.09 335.474 374.979C334.739 374.858 334.018 374.665 333.318 374.403C332.346 374.041 331.436 373.519 330.623 372.855C330.147 372.435 329.777 371.9 329.545 371.295C329.345 370.614 329.239 369.906 329.232 369.194C329.214 368.438 329.16 367.684 329.07 366.934C328.943 366.131 328.664 365.363 328.251 364.674C327.464 363.216 326.149 361.837 325.718 359.86C325.393 357.807 325.455 355.707 325.901 353.679C326.389 351.498 326.337 349.222 325.75 347.068C325.028 344.865 323.594 342.876 322.818 340.39C322.042 337.904 322.419 335.181 322.268 332.48C322.221 331.13 321.924 329.802 321.395 328.57C320.845 327.316 320.09 326.141 319.508 324.83C318.312 322.174 318.107 319.18 317.773 316.23C317.622 314.739 317.46 313.236 317.298 311.71C317.2 310.18 316.947 308.665 316.544 307.19C316.092 305.704 315.556 304.248 314.938 302.829C314.62 302.099 314.361 301.343 314.161 300.569C314.047 299.767 313.975 298.96 313.946 298.15C313.874 296.525 313.932 294.896 314.118 293.28C314.302 291.653 314.582 290.037 314.754 288.41V288.127V287.8L315.024 287.947C316.448 288.709 317.687 289.802 318.646 291.144C319.575 292.459 320.323 293.905 320.867 295.438C321.828 298.444 322.528 301.533 322.958 304.671C323.381 307.658 324.316 310.541 325.718 313.179C326.451 314.434 327.345 315.586 328.122 316.807C328.959 317.995 329.531 319.366 329.792 320.818C330.191 323.801 328.628 326.412 328.952 329.056C329.107 330.351 329.526 331.595 330.181 332.706C330.784 333.836 331.506 334.875 332.186 335.926C332.88 336.951 333.482 338.04 333.986 339.181C334.46 340.295 334.741 341.489 334.816 342.706C334.978 345.079 334.654 347.339 334.816 349.486C334.994 351.511 335.554 353.477 336.465 355.272C337.285 357.012 338.19 358.572 338.945 360.097C339.322 360.854 339.678 361.6 339.958 362.357C340.23 363.087 340.429 363.844 340.551 364.617C340.756 365.948 340.774 367.303 340.605 368.64C340.431 370.505 339.762 372.282 338.675 373.77C338.512 373.992 338.331 374.2 338.136 374.392C338.001 374.535 337.853 374.663 337.694 374.776C337.446 374.968 337.306 375.058 337.306 375.058C337.793 374.669 338.231 374.217 338.61 373.714C339.648 372.22 340.278 370.458 340.432 368.617C340.585 367.301 340.556 365.969 340.346 364.662C340.222 363.915 340.024 363.184 339.753 362.481C339.451 361.709 339.109 360.955 338.729 360.221C337.964 358.718 337.058 357.159 336.228 355.419C335.288 353.591 334.701 351.586 334.503 349.52C334.331 347.351 334.643 345.091 334.503 342.74C334.429 341.569 334.155 340.421 333.695 339.35C333.198 338.23 332.599 337.163 331.905 336.164C331.226 335.124 330.504 334.073 329.879 332.921C329.2 331.764 328.763 330.47 328.596 329.124C328.272 326.31 329.825 323.677 329.426 320.909C329.167 319.518 328.614 318.205 327.809 317.067C327.044 315.869 326.149 314.716 325.394 313.428C323.956 310.748 322.998 307.814 322.57 304.772C322.136 301.666 321.44 298.607 320.489 295.631C319.963 294.137 319.237 292.729 318.333 291.45C317.42 290.16 316.236 289.109 314.873 288.376L315.175 288.195V288.478C315.002 290.127 314.722 291.743 314.539 293.348C314.352 294.941 314.295 296.547 314.366 298.15C314.395 298.937 314.463 299.722 314.571 300.501C314.761 301.253 315.014 301.987 315.326 302.693C315.942 304.13 316.482 305.601 316.943 307.1C317.345 308.598 317.598 310.135 317.697 311.688C317.859 313.202 318.021 314.705 318.172 316.208C318.495 319.168 318.711 322.129 319.853 324.694C320.425 325.96 321.179 327.146 321.74 328.434C322.285 329.713 322.589 331.091 322.635 332.491C322.785 335.203 322.441 337.859 323.141 340.266C323.842 342.672 325.297 344.661 326.052 346.944C326.651 349.154 326.7 351.489 326.192 353.724C325.748 355.709 325.675 357.766 325.976 359.781C326.364 361.668 327.636 363.035 328.445 364.538C328.864 365.259 329.149 366.056 329.286 366.888C329.371 367.638 329.418 368.393 329.426 369.148C329.426 369.844 329.52 370.537 329.706 371.205C329.947 371.782 330.316 372.29 330.784 372.685C331.575 373.347 332.464 373.87 333.415 374.233C334.114 374.509 334.835 374.717 335.571 374.855C336.023 374.938 336.481 374.983 336.94 374.99L337.317 374.979Z" fill="#263238"/>
<path d="M316.091 292.003C316.123 292.071 316.145 292.143 316.155 292.218C316.155 292.387 316.242 292.602 316.306 292.851C316.436 293.404 316.597 294.252 316.845 295.292C317.093 296.331 317.719 297.552 318.236 298.975C318.856 300.609 319.392 302.276 319.842 303.97C320.349 305.846 320.802 307.936 321.276 310.162C321.688 312.55 322.413 314.866 323.432 317.044C323.982 318.174 324.596 319.304 325.092 320.615C325.575 321.916 325.901 323.275 326.062 324.66C326.402 327.525 326.884 330.369 327.507 333.181C328.854 338.943 330.137 344.48 331.312 349.452L334.546 362.719C335.43 366.482 336.152 369.499 336.702 371.68C336.939 372.719 337.123 373.533 337.252 374.12L337.381 374.764C337.381 374.9 337.381 374.979 337.381 374.979C337.352 374.913 337.327 374.845 337.306 374.776L337.133 374.143C336.982 373.555 336.778 372.753 336.508 371.725L334.266 362.798C333.328 359.024 332.218 354.537 331.032 349.554C329.846 344.571 328.552 339.045 327.194 333.271C326.565 330.449 326.083 327.593 325.75 324.717C325.6 323.367 325.289 322.041 324.823 320.773C324.348 319.541 323.745 318.389 323.184 317.236C322.159 315.025 321.433 312.674 321.028 310.253C320.565 307.993 320.133 305.925 319.637 304.049C319.142 302.173 318.635 300.512 318.117 299.066C317.6 297.619 317.039 296.422 316.781 295.337C316.522 294.252 316.425 293.438 316.317 292.873C316.317 292.613 316.242 292.399 316.209 292.229C316.156 292.163 316.116 292.086 316.091 292.003Z" fill="#263238"/>
<path d="M336.131 375.002C331.744 372.267 330.483 363.973 332.315 358.978C334.148 353.984 337.35 349.407 337.845 344.085C338.223 339.994 336.951 335.791 337.845 331.791C339.074 326.389 344.109 322.197 344.044 316.649C344.044 313.53 342.319 310.603 342.459 307.496C342.621 303.676 345.413 300.648 347.149 297.326C349.8 292.184 349.973 286.093 350.878 280.376C351.784 274.658 353.886 268.42 358.759 265.584C359.481 270.477 360.71 273.833 360.332 280.477C360.192 282.862 357.551 287.427 357.185 292.647C356.969 295.766 356.829 298.896 356.646 302.026C356.613 305.075 356.137 308.101 355.234 310.999C354.436 313.179 353.164 315.168 352.571 317.417C351.493 321.654 352.916 326.231 352.021 330.525C351.256 334.164 348.863 337.305 348.367 340.977C347.677 346.153 350.878 351.532 349.24 356.47C348.431 358.922 346.502 360.888 346.006 363.419C345.575 365.385 346.006 367.465 345.65 369.442C345.036 372.617 339.258 375.092 336.164 374.889" fill="url(#paint7_linear_209_701)"/>
<path d="M357.562 270.353C357.574 270.446 357.574 270.541 357.562 270.635C357.562 270.838 357.508 271.098 357.465 271.437C357.368 272.149 357.249 273.189 357.023 274.522C356.796 275.856 356.117 277.404 355.589 279.234C355.061 281.065 354.511 283.167 353.972 285.528C353.433 287.89 353.056 290.512 352.614 293.314C352.261 296.344 351.506 299.306 350.371 302.117C349.746 303.586 349.056 305.066 348.539 306.637C348.036 308.248 347.725 309.918 347.612 311.609C347.366 315.205 346.938 318.784 346.329 322.333C344.981 329.587 343.709 336.503 342.534 342.797C341.359 349.091 340.206 354.718 339.3 359.476C338.395 364.233 337.597 368.018 337.069 370.708C336.799 372.007 336.584 373.024 336.433 373.748C336.368 374.075 336.304 374.335 336.26 374.539C336.246 374.632 336.221 374.723 336.185 374.81C336.178 374.719 336.178 374.629 336.185 374.539C336.185 374.324 336.26 374.064 336.314 373.736C336.455 373.002 336.638 371.973 336.864 370.663C337.371 367.973 338.093 364.143 339.02 359.363C339.947 354.583 340.993 348.944 342.189 342.673C343.386 336.401 344.615 329.463 345.952 322.208C346.561 318.675 346.989 315.111 347.234 311.53C347.354 309.804 347.676 308.099 348.194 306.456C348.733 304.851 349.434 303.371 350.048 301.936C351.183 299.164 351.941 296.239 352.301 293.246C352.765 290.433 353.196 287.822 353.724 285.449C354.18 283.32 354.738 281.215 355.395 279.144C355.956 277.302 356.645 275.754 356.904 274.477C357.163 273.2 357.292 272.115 357.422 271.415L357.562 270.612V270.353Z" fill="#263238"/>
<path d="M430.639 480.939C431.687 481.463 432.624 482.204 433.393 483.116C434.161 484.029 434.746 485.095 435.112 486.25C435.831 488.571 436.034 491.033 435.705 493.448C435.199 498.115 432.676 502.827 429.949 506.568C426.197 503.178 425.335 497.144 425.076 494.081C424.667 489.234 426.747 480.216 430.639 480.939Z" fill="url(#paint8_linear_209_701)"/>
<path d="M434.304 514.274C434.051 512.939 434.137 511.556 434.556 510.267C434.974 508.978 435.709 507.826 436.687 506.929C437.679 506.054 438.828 505.394 440.066 504.989C441.304 504.583 442.607 504.44 443.898 504.568C444.498 504.562 445.092 504.693 445.639 504.95C446.186 505.208 446.673 505.586 447.068 506.059C447.359 506.572 447.513 507.157 447.513 507.754C447.513 508.351 447.359 508.937 447.068 509.449C446.5 510.467 445.686 511.31 444.707 511.89C441.473 514.026 437.937 515.472 434.261 514.32" fill="url(#paint9_linear_209_701)"/>
<path d="M429.496 528.591C429.515 528.268 429.558 527.947 429.625 527.631L430.078 525.032C430.503 522.146 431.365 519.35 432.633 516.749C433.955 514.154 435.912 511.974 438.303 510.432C439.034 509.982 439.812 509.622 440.621 509.359C440.84 509.286 441.063 509.229 441.289 509.189C441.368 509.174 441.448 509.174 441.527 509.189C440.443 509.562 439.402 510.058 438.422 510.67C436.114 512.245 434.223 514.406 432.924 516.952C431.673 519.526 430.79 522.279 430.305 525.122C430.078 526.252 429.895 527.089 429.755 527.687C429.696 527.997 429.61 528.3 429.496 528.591Z" fill="#263238"/>
<path d="M429.636 487.957C429.655 488.095 429.655 488.236 429.636 488.375C429.636 488.68 429.636 489.087 429.712 489.573C429.712 490.623 429.82 492.138 429.874 494.002C429.992 497.742 430.078 502.918 430.057 508.636C430.035 514.353 429.906 519.518 429.755 523.258C429.68 525.122 429.615 526.648 429.55 527.687C429.55 528.173 429.496 528.58 429.475 528.885C429.472 529.026 429.454 529.167 429.421 529.303C429.409 529.164 429.409 529.024 429.421 528.885C429.421 528.569 429.421 528.173 429.421 527.676C429.421 526.546 429.486 525.088 429.529 523.247C429.615 519.506 429.712 514.342 429.733 508.624C429.755 502.907 429.733 497.754 429.647 494.013C429.647 492.172 429.593 490.623 429.583 489.584V488.375C429.584 488.234 429.602 488.093 429.636 487.957Z" fill="#263238"/>
<path d="M427.815 517.111C427.36 514.284 426.271 511.61 424.636 509.311C423.002 507.013 420.869 505.154 418.415 503.89C417.153 503.257 415.515 502.839 414.491 503.822C413.467 504.805 413.693 506.556 414.189 507.912C415.285 510.741 417.156 513.165 419.566 514.879C421.976 516.592 424.817 517.519 427.729 517.54" fill="url(#paint10_linear_209_701)"/>
<path d="M419.018 508.308C419.293 508.411 419.56 508.535 419.816 508.681C420.122 508.83 420.421 508.996 420.711 509.178C421.045 509.404 421.455 509.619 421.853 509.935C422.309 510.253 422.748 510.596 423.169 510.963C423.653 511.383 424.118 511.828 424.559 512.297C425.567 513.376 426.456 514.57 427.211 515.856C427.942 517.161 428.528 518.548 428.957 519.992C429.13 520.67 429.302 521.303 429.399 521.913C429.506 522.477 429.582 523.047 429.626 523.619C429.651 524.09 429.651 524.561 429.626 525.032C429.649 525.389 429.649 525.748 429.626 526.105C429.62 526.409 429.588 526.712 429.529 527.009C429.453 527.009 429.529 525.71 429.356 523.619C429.3 523.057 429.214 522.499 429.098 521.947C428.977 521.313 428.822 520.687 428.634 520.071C427.783 517.225 426.306 514.627 424.322 512.489C423.897 512.018 423.448 511.573 422.974 511.155C422.543 510.749 422.101 510.421 421.702 510.105C420.118 508.918 418.986 508.376 419.018 508.308Z" fill="#263238"/>
<path d="M397.782 446.079C397.714 446.271 397.623 446.453 397.512 446.621C397.297 447.028 397.017 447.525 396.672 448.124C396.327 448.723 395.841 449.559 395.356 450.508C394.871 451.458 394.278 452.497 393.685 453.706C392.478 456.079 391.163 458.995 389.837 462.272C388.43 465.85 387.196 469.501 386.139 473.21C385.061 477.165 384.242 480.996 383.628 484.51C383.013 488.024 382.668 491.222 382.464 493.912C382.334 495.256 382.291 496.477 382.226 497.539C382.162 498.601 382.129 499.539 382.108 500.296C382.086 501.053 382.108 501.573 382.108 502.036C382.114 502.238 382.092 502.44 382.043 502.635C382.002 502.439 381.984 502.238 381.989 502.036C381.989 501.573 381.989 500.997 381.989 500.285C381.989 499.573 381.989 498.601 381.989 497.528C381.989 496.454 381.989 495.268 382.151 493.878C382.358 490.708 382.718 487.551 383.229 484.42C383.859 480.586 384.687 476.792 385.708 473.052C386.769 469.325 388.025 465.662 389.471 462.08C390.829 458.78 392.187 455.887 393.448 453.514C394.052 452.316 394.666 451.254 395.195 450.35C395.723 449.446 396.186 448.644 396.596 448.011C397.006 447.378 397.275 446.96 397.534 446.576C397.793 446.192 397.782 446.068 397.782 446.079Z" fill="#263238"/>
<path d="M380.76 462.373C380.789 462.879 380.767 463.387 380.695 463.888C380.598 465.018 380.469 466.374 380.329 468.023C380.005 471.504 379.596 476.329 379.251 481.651C378.906 486.974 378.701 491.821 378.561 495.313L378.378 499.46C378.388 499.972 378.345 500.484 378.248 500.986C378.17 500.481 378.141 499.97 378.162 499.46C378.162 498.477 378.162 497.064 378.162 495.302C378.162 491.799 378.345 486.951 378.69 481.617C379.035 476.284 379.51 471.447 379.93 467.978C380.146 466.238 380.329 464.837 380.48 463.865C380.531 463.36 380.625 462.861 380.76 462.373Z" fill="#263238"/>
<path d="M364.234 477.154C364.521 477.356 364.782 477.595 365.011 477.866C365.682 478.558 366.315 479.29 366.908 480.058C368.873 482.592 370.501 485.394 371.748 488.386C372.994 491.377 373.843 494.532 374.271 497.765C374.406 498.742 374.489 499.727 374.519 500.714C374.564 501.089 374.564 501.469 374.519 501.844C374.422 501.844 374.324 500.319 373.915 497.878C372.842 491.518 370.344 485.515 366.628 480.363C365.172 478.34 364.159 477.222 364.234 477.154Z" fill="#263238"/>
<path d="M430.262 291.02C430.447 291.175 430.616 291.349 430.768 291.54L432.148 293.099L433.129 294.229C433.485 294.659 433.841 295.145 434.207 295.653C434.983 296.693 435.91 297.834 436.794 299.213L438.217 301.337C438.702 302.083 439.144 302.897 439.64 303.721C440.664 305.36 441.57 307.213 442.562 309.134C446.722 317.613 449.426 326.793 450.55 336.254C450.755 338.435 451.002 340.503 451.046 342.447C451.046 343.43 451.143 344.368 451.143 345.272V347.871C451.143 349.52 451.002 351.012 450.916 352.323C450.916 352.978 450.83 353.6 450.776 354.153C450.722 354.707 450.636 355.216 450.571 355.679C450.453 356.549 450.356 357.25 450.269 357.781C450.254 358.031 450.207 358.278 450.129 358.515C450.115 358.267 450.115 358.018 450.129 357.769C450.183 357.227 450.248 356.526 450.323 355.656C450.323 355.193 450.42 354.684 450.474 354.131C450.528 353.577 450.539 353.001 450.571 352.3C450.625 351.001 450.755 349.509 450.711 347.859V345.272C450.711 344.379 450.614 343.441 450.571 342.48C450.517 340.537 450.259 338.492 450.032 336.322C448.854 326.939 446.176 317.832 442.109 309.383C441.128 307.462 440.244 305.609 439.252 303.981C438.767 303.156 438.325 302.332 437.851 301.586C437.377 300.84 436.913 300.128 436.471 299.45C435.619 298.06 434.714 296.908 433.959 295.857C433.582 295.337 433.237 294.84 432.881 294.41L431.933 293.28L430.639 291.653C430.49 291.458 430.364 291.246 430.262 291.02Z" fill="#263238"/>
<path d="M462.462 313.326C462.364 313.898 462.223 314.461 462.042 315.01C461.729 316.14 461.298 317.632 460.791 319.53C458.152 329.582 456.618 339.917 456.22 350.334C456.145 352.334 456.102 353.95 456.08 355.069C456.101 355.65 456.073 356.233 455.994 356.809C455.897 356.238 455.853 355.659 455.865 355.08C455.865 353.95 455.789 352.334 455.865 350.323C456.037 339.849 457.583 329.45 460.457 319.417C461.017 317.496 461.535 315.959 461.88 314.897C462.028 314.356 462.223 313.83 462.462 313.326Z" fill="#263238"/>
<path d="M464.79 335.452C463.434 338.054 462.249 340.749 461.243 343.52C460.426 346.353 459.792 349.241 459.346 352.164C459.226 351.291 459.226 350.405 459.346 349.532C459.573 347.42 460.017 345.339 460.672 343.328C461.324 341.312 462.188 339.38 463.248 337.565C463.658 336.784 464.178 336.071 464.79 335.452Z" fill="#263238"/>
<path d="M156.989 499.324L155.513 536.016L136.604 535.564L138.027 498.805L156.989 499.324Z" fill="url(#paint11_linear_209_701)"/>
<path d="M146.23 534.411C146.069 534.411 146.36 526.365 146.877 516.467C147.394 506.568 147.955 498.545 148.106 498.556C148.257 498.567 147.977 506.602 147.448 516.5C146.92 526.399 146.381 534.422 146.23 534.411Z" fill="#263238"/>
<path d="M155.61 533.484L136.712 532.976L136.604 535.564L155.513 536.016L155.61 533.484Z" fill="#263238"/>
<path d="M137.057 523.823C137.189 523.533 137.367 523.269 137.585 523.043C138.114 522.382 138.702 521.777 139.342 521.235C140.298 520.422 141.357 519.752 142.49 519.246C144.465 518.342 146.665 518.127 148.765 518.634C150.865 519.141 152.755 520.342 154.154 522.06C154.688 522.741 155.121 523.503 155.437 524.32C155.576 524.606 155.664 524.916 155.695 525.235C155.164 524.223 154.543 523.266 153.841 522.376C152.047 520.333 149.556 519.114 146.91 518.986C144.259 518.945 141.675 519.859 139.59 521.574C137.984 522.851 137.132 523.891 137.057 523.823Z" fill="#263238"/>
<g opacity="0.3">
<path d="M137.618 509.268L137.467 513.314L156.407 513.664L156.537 510.624L137.618 509.268Z" fill="black"/>
</g>
<path d="M201.478 501.517L200.562 523.857C200.562 523.857 221.906 532.332 222.122 536.479L180.759 536.163L180.834 501.302L201.478 501.517Z" fill="url(#paint12_linear_209_701)"/>
<path d="M188.057 521.958C187.654 522.08 187.308 522.354 187.087 522.728C186.866 523.102 186.785 523.548 186.86 523.981C186.965 524.406 187.221 524.773 187.576 525.006C187.931 525.24 188.358 525.322 188.768 525.235C189.194 525.103 189.557 524.811 189.788 524.414C190.019 524.017 190.101 523.545 190.019 523.088C189.951 522.864 189.84 522.656 189.694 522.477C189.548 522.298 189.37 522.152 189.169 522.046C188.968 521.941 188.748 521.879 188.524 521.864C188.3 521.849 188.075 521.881 187.863 521.958" fill="#E0E0E0"/>
<path d="M180.748 536.151V532.671L220.785 534.253C220.785 534.253 222.628 535.112 222.413 536.513L180.748 536.151Z" fill="#263238"/>
<path d="M200.929 523.992C200.929 524.207 199.905 524.297 198.902 524.975C197.9 525.653 197.361 526.546 197.167 526.456C196.972 526.365 197.296 525.145 198.525 524.343C199.754 523.54 200.983 523.8 200.929 523.992Z" fill="#263238"/>
<path d="M205.295 525.925C205.295 526.128 204.454 526.49 203.753 527.382C203.052 528.275 202.848 529.236 202.675 529.224C202.503 529.213 202.352 528.004 203.246 526.964C204.141 525.925 205.284 525.721 205.295 525.925Z" fill="#263238"/>
<path d="M207.73 531.428C207.547 531.428 207.267 530.399 207.806 529.236C208.345 528.072 209.283 527.62 209.369 527.8C209.455 527.981 208.862 528.591 208.442 529.552C208.022 530.512 207.935 531.405 207.73 531.428Z" fill="#263238"/>
<path d="M200.605 518.851C200.518 519.043 199.527 518.738 198.449 518.851C197.371 518.964 196.39 519.292 196.293 519.111C196.196 518.93 197.047 518.173 198.449 518.105C199.85 518.037 200.702 518.67 200.605 518.851Z" fill="#263238"/>
<path d="M201.381 514.037C200.697 514.235 199.974 514.235 199.29 514.037C198.547 513.886 197.823 513.643 197.134 513.314C196.719 513.121 196.319 512.894 195.937 512.636C195.705 512.497 195.494 512.322 195.312 512.116C195.18 511.964 195.1 511.771 195.085 511.567C195.069 511.362 195.119 511.158 195.226 510.986C195.326 510.835 195.46 510.711 195.616 510.627C195.772 510.542 195.945 510.499 196.121 510.5C196.387 510.507 196.651 510.549 196.907 510.624C197.351 510.742 197.784 510.9 198.201 511.099C198.904 511.44 199.551 511.893 200.12 512.444C201.079 513.382 201.403 514.184 201.327 514.229C201.252 514.274 200.767 513.619 199.797 512.839C199.225 512.384 198.602 512.005 197.942 511.709C197.554 511.542 197.154 511.406 196.746 511.302C196.304 511.178 195.927 511.178 195.819 511.382C195.711 511.585 195.819 511.495 195.819 511.63C195.95 511.779 196.103 511.905 196.271 512.003C196.618 512.247 196.978 512.47 197.349 512.67C197.995 513.013 198.67 513.293 199.365 513.506C200.048 513.633 200.722 513.81 201.381 514.037Z" fill="#263238"/>
<path d="M201.112 514.342C200.714 513.72 200.525 512.976 200.573 512.229C200.541 511.418 200.643 510.608 200.875 509.833C201.013 509.375 201.193 508.933 201.414 508.511C201.525 508.216 201.707 507.957 201.944 507.758C202.18 507.56 202.462 507.43 202.761 507.381C202.946 507.389 203.125 507.451 203.278 507.561C203.431 507.671 203.55 507.824 203.623 508.003C203.733 508.257 203.802 508.528 203.828 508.805C203.923 509.458 203.89 510.123 203.733 510.762C203.575 511.401 203.296 512 202.912 512.523C202.093 513.653 201.241 513.901 201.23 513.834C201.22 513.766 201.866 513.314 202.502 512.229C202.869 511.608 203.101 510.91 203.181 510.184C203.235 509.764 203.235 509.338 203.181 508.918C203.117 508.455 202.955 508.082 202.783 508.127C202.61 508.172 202.222 508.466 202.05 508.839C201.843 509.197 201.669 509.576 201.532 509.969C201.293 510.671 201.151 511.406 201.112 512.15C201.015 513.517 201.22 514.308 201.112 514.342Z" fill="#263238"/>
<g opacity="0.3">
<path d="M180.737 514.692L180.78 519.653H200.734V515.156L180.737 514.692Z" fill="black"/>
</g>
<path d="M169.268 359.374L163.155 421.14L158.768 514.15H135.354L134.718 316.197L201.759 321.203L215.654 425.061L203.624 515.969H177.935L183.939 429.536L169.268 359.374Z" fill="#263238"/>
<path d="M169.246 359.34C170.625 361.054 172.152 362.631 173.806 364.052C175.327 365.624 176.979 367.05 178.743 368.312C177.37 366.597 175.847 365.02 174.194 363.6C172.671 362.026 171.015 360.6 169.246 359.34Z" fill="#455A64"/>
<path d="M169.343 358.142C169.438 355.505 169.395 352.864 169.213 350.232C169.206 347.589 169.062 344.949 168.782 342.322C168.488 344.948 168.437 347.597 168.631 350.232C168.625 352.887 168.863 355.536 169.343 358.142Z" fill="#455A64"/>
<path d="M161.592 335.09C161.467 335.076 161.34 335.076 161.215 335.09L160.061 335.022L155.62 334.796L139.752 334.096H139.472V334.378C139.472 339.576 139.472 345.452 139.472 351.656V352.198L139.655 352.278L149.982 356.605H150.079H150.176L159.307 353.283L159.447 353.227V353.069C160.115 347.678 160.676 343.192 161.075 339.972C161.247 338.469 161.387 337.26 161.495 336.367C161.554 335.959 161.59 335.548 161.603 335.135C161.571 335.25 161.549 335.367 161.538 335.486C161.538 335.757 161.441 336.073 161.377 336.458C161.236 337.362 161.053 338.582 160.827 340.107C160.374 343.271 159.749 347.701 158.973 353.001L159.134 352.797L149.982 356.052H150.176L139.86 351.69L140.043 351.972V351.633C140.043 345.43 140.043 339.554 140.043 334.356L139.774 334.638L155.469 335.045L159.986 335.124H161.635L161.592 335.09Z" fill="#455A64"/>
<path d="M195.398 335.384H195.053H193.975L189.954 335.26L175.477 334.898H175.207V335.181C175.369 340.311 175.541 346.21 175.735 352.504V352.56L175.854 352.65L177.536 353.78L186.019 359.577L186.17 359.679L186.321 359.589L195.883 353.475L196.002 353.396V353.249C195.818 347.871 195.667 343.384 195.56 340.164C195.506 338.672 195.452 337.463 195.42 336.571C195.387 335.678 195.344 335.328 195.333 335.339C195.319 335.459 195.319 335.58 195.333 335.7V336.74C195.333 337.655 195.333 338.876 195.333 340.401C195.333 343.577 195.441 348.017 195.517 353.328L195.635 353.114L186.03 359.148H186.332L177.87 353.306L176.199 352.176L176.328 352.425C176.113 346.13 175.908 340.221 175.724 335.09L175.466 335.373L189.792 335.452H194.956L195.398 335.384Z" fill="#455A64"/>
<path d="M141.951 363.363C143.012 363.447 144.078 363.413 145.131 363.261C147.082 363.114 149.777 362.832 152.742 362.425C155.706 362.018 158.38 361.577 160.288 361.205C161.341 361.06 162.377 360.806 163.382 360.448C162.322 360.462 161.265 360.571 160.223 360.775L152.677 361.826L145.131 362.832C144.059 362.915 142.995 363.093 141.951 363.363Z" fill="#455A64"/>
<path d="M142.501 432.214C142.501 432.214 142.598 432.564 143.051 432.993C143.731 433.558 144.577 433.858 145.444 433.841C146.73 433.808 147.967 433.314 148.947 432.44C150.122 431.415 151.204 430.281 152.181 429.05C153.962 426.877 155.546 424.535 156.914 422.055C157.53 421.055 158.029 419.982 158.401 418.857C157.741 419.813 157.13 420.805 156.569 421.829C155.106 424.2 153.493 426.465 151.739 428.609C150.8 429.806 149.769 430.921 148.656 431.943C147.776 432.764 146.662 433.26 145.487 433.355C144.693 433.41 143.903 433.196 143.234 432.745C142.727 432.474 142.544 432.18 142.501 432.214Z" fill="#455A64"/>
<path d="M188.747 434.383C188.747 434.383 188.747 434.7 189.06 435.174C189.472 435.834 190.026 436.383 190.677 436.779C191.656 437.383 192.775 437.692 193.911 437.672C195.287 437.611 196.623 437.166 197.781 436.383C199.802 434.916 201.41 432.906 202.438 430.564C202.937 429.655 203.325 428.683 203.591 427.671C203.024 428.528 202.516 429.427 202.071 430.361C200.981 432.556 199.402 434.443 197.468 435.864C196.402 436.595 195.172 437.024 193.9 437.107C192.86 437.148 191.828 436.906 190.903 436.406C190.049 435.909 189.313 435.218 188.747 434.383Z" fill="#455A64"/>
<path d="M187.249 425.061C187.817 425.563 188.473 425.947 189.179 426.191C190.841 426.924 192.616 427.337 194.418 427.411C196.243 427.5 198.069 427.244 199.808 426.654C200.53 426.453 201.21 426.111 201.813 425.648C199.445 426.41 196.981 426.791 194.504 426.778C192.016 426.601 189.568 426.022 187.249 425.061Z" fill="#455A64"/>
<path d="M168.405 209.242L143.147 208.914L145.972 187.151C145.972 187.151 144.247 186.778 144.128 177.308C144.01 167.839 143.579 151.748 143.579 151.748C148.907 149.431 154.717 148.6 160.442 149.334C166.168 150.069 171.615 152.345 176.253 155.94L177.643 157.07L168.405 209.242Z" fill="#FFBE9D"/>
<path d="M174.711 168.63C174.873 168.562 181.179 166.709 180.931 173.15C180.683 179.591 174.345 178.077 174.345 177.885C174.345 177.693 174.711 168.63 174.711 168.63Z" fill="#FFBE9D"/>
<path d="M144.667 167.24C144.506 167.172 138.814 165.624 139.008 172.088C139.202 178.551 145.594 177.026 145.605 176.834C145.616 176.642 144.667 167.24 144.667 167.24Z" fill="#FFBE9D"/>
<path d="M176.792 167.907C175.843 173.331 176.026 176.178 175.142 179.806C173.741 185.535 170.927 189.976 165.829 192.801C160.73 195.626 153.82 195.614 149.443 191.671C146.392 188.959 144.236 185.908 143.783 181.828C143.331 177.749 142.889 170.528 142.856 166.449C142.856 159.059 142.317 151.996 142.317 151.996L163.177 148.177L175.035 155.318L176.792 167.907Z" fill="#263238"/>
<path d="M155.232 196.066C156.401 196.516 157.663 196.629 158.887 196.394C160.128 196.358 161.335 195.967 162.38 195.264C162.38 195.106 160.784 195.592 158.822 195.806C156.86 196.021 155.286 195.897 155.232 196.066Z" fill="#263238"/>
<path d="M175.778 177.128C176.382 171.568 176.781 165.217 177.643 159.353C177.967 157.093 178.721 153.985 178.549 151.77C178.486 149.529 178.017 147.32 177.169 145.262C176.535 143.989 175.637 142.882 174.539 142.023C173.442 141.165 172.174 140.576 170.83 140.301C169.473 140.037 168.077 140.088 166.74 140.449C165.403 140.81 164.157 141.473 163.09 142.391C162.286 141.242 161.184 140.361 159.914 139.852C158.645 139.343 157.262 139.228 155.932 139.521C154.621 139.837 153.429 140.553 152.506 141.578C151.583 142.604 150.971 143.894 150.747 145.284C149.973 144.583 149.012 144.147 147.994 144.036C146.976 143.925 145.951 144.143 145.055 144.663C144.198 145.203 143.533 146.022 143.16 146.994C142.786 147.967 142.725 149.041 142.985 150.053C142.245 150.181 141.545 150.494 140.944 150.966C140.343 151.438 139.86 152.055 139.536 152.765C139.236 153.472 139.11 154.248 139.17 155.02C139.23 155.792 139.475 156.536 139.881 157.183C140.851 158.686 142.597 159.511 143.654 160.946C144.257 161.775 144.61 162.774 144.668 163.815C144.725 164.856 144.485 165.891 143.977 166.788" fill="#263238"/>
<path d="M146.802 157.07C146.835 157.286 146.916 157.491 147.039 157.669C147.337 158.221 147.749 158.696 148.246 159.059C149.038 159.65 149.991 159.956 150.963 159.929C151.593 159.908 152.212 159.757 152.786 159.483C153.36 159.21 153.876 158.82 154.305 158.336L153.863 158.211C154.023 158.958 154.364 159.648 154.853 160.216C155.342 160.785 155.963 161.211 156.655 161.454C157.427 161.757 158.256 161.86 159.074 161.756C159.892 161.652 160.674 161.343 161.355 160.856C162.573 160.01 163.503 158.779 164.007 157.341L163.5 157.409C164.036 158.203 164.742 158.853 165.563 159.306C166.383 159.76 167.294 160.004 168.222 160.019C168.955 160.036 169.685 159.9 170.368 159.619C171.051 159.338 171.673 158.917 172.199 158.381C172.879 157.705 173.374 156.85 173.633 155.906C173.748 155.577 173.792 155.226 173.763 154.878C173.763 154.878 173.666 155.239 173.45 155.85C173.126 156.715 172.612 157.489 171.951 158.11C170.936 159.065 169.607 159.571 168.243 159.522C167.394 159.492 166.562 159.255 165.814 158.832C165.066 158.409 164.422 157.809 163.931 157.081L163.629 156.595L163.425 157.138C162.95 158.45 162.099 159.575 160.988 160.358C160.386 160.793 159.692 161.07 158.966 161.167C158.241 161.263 157.503 161.176 156.816 160.912C156.209 160.706 155.661 160.342 155.223 159.854C154.786 159.366 154.474 158.77 154.315 158.121L154.229 157.579L153.873 157.997C153.194 158.788 152.27 159.302 151.264 159.448C150.258 159.595 149.235 159.365 148.376 158.799C147.748 158.336 147.214 157.749 146.802 157.07Z" fill="#455A64"/>
<path d="M146.845 154.482C146.965 153.635 147.267 152.827 147.729 152.121C148.26 151.376 149.023 150.848 149.885 150.629C150.427 150.5 150.988 150.487 151.535 150.592C152.081 150.697 152.602 150.917 153.065 151.239L153.572 151.612L153.518 150.979C153.468 150.349 153.542 149.715 153.734 149.115C153.943 148.455 154.278 147.848 154.72 147.329C155.161 146.81 155.698 146.391 156.299 146.098C157.318 145.634 158.453 145.531 159.533 145.804C160.534 146.102 161.458 146.631 162.239 147.352C162.239 147.352 162.12 147.047 161.722 146.629C161.129 146.057 160.416 145.639 159.641 145.408C158.337 144.989 156.928 145.123 155.718 145.783C154.508 146.442 153.594 147.574 153.173 148.934C152.96 149.611 152.883 150.326 152.947 151.036L153.399 150.765C152.867 150.399 152.269 150.154 151.641 150.045C151.014 149.936 150.372 149.966 149.756 150.132C148.783 150.395 147.938 151.027 147.384 151.906C147.023 152.461 146.801 153.102 146.737 153.77C146.748 154.234 146.813 154.482 146.845 154.482Z" fill="#455A64"/>
<path d="M160.148 154.663C160.223 154.663 160.148 154.301 160.148 153.782C160.211 153.094 160.437 152.434 160.805 151.861C161.226 151.194 161.721 150.516 162.012 150.143C162.304 149.77 162.627 150.053 162.681 150.019C162.735 149.985 162.681 149.872 162.541 149.759C162.418 149.689 162.279 149.657 162.139 149.667C162 149.677 161.866 149.728 161.754 149.815C161.487 150.035 161.245 150.285 161.032 150.561C160.764 150.873 160.519 151.205 160.298 151.556C159.873 152.221 159.675 153.017 159.738 153.816C159.824 154.403 160.083 154.697 160.148 154.663Z" fill="#455A64"/>
<path d="M172.48 146.527C172.545 146.527 172.48 146.019 172.092 145.397C171.853 144.984 171.524 144.635 171.133 144.38C170.628 144.052 170.028 143.92 169.44 144.007C168.433 144.188 167.528 144.761 166.907 145.612C166.443 146.211 166.228 146.618 166.282 146.663C166.335 146.708 166.691 146.392 167.209 145.894C167.835 145.226 168.639 144.769 169.516 144.584C169.943 144.539 170.373 144.613 170.765 144.797C171.156 144.982 171.495 145.27 171.747 145.634C172.232 146.143 172.48 146.561 172.48 146.527Z" fill="#455A64"/>
<path d="M169.246 174.02C171.163 171.542 172.216 168.453 172.232 165.263C172.06 165.263 171.726 167.297 170.906 169.703C170.087 172.11 169.128 173.884 169.246 174.02Z" fill="#455A64"/>
<path d="M166.476 175.534C167.187 174.68 167.713 173.674 168.017 172.585C168.497 171.576 168.758 170.469 168.783 169.342C168.217 170.288 167.778 171.311 167.478 172.381C166.999 173.375 166.661 174.438 166.476 175.534Z" fill="#455A64"/>
<path d="M148.893 175.975C148.597 177.892 148.849 179.857 149.615 181.625C150.228 183.504 151.352 185.154 152.849 186.371C151.845 184.799 150.965 183.144 150.219 181.422C149.637 179.647 149.194 177.825 148.893 175.975Z" fill="#455A64"/>
<path d="M146.09 171.252C145.421 172.864 145.277 174.663 145.681 176.37C145.898 178.126 146.655 179.761 147.837 181.026C147.179 179.491 146.649 177.899 146.252 176.269C146.054 174.605 146 172.926 146.09 171.252Z" fill="#455A64"/>
<path d="M112.317 261.855V288.975C112.317 288.975 131.721 333.926 131.721 333.237C131.721 332.548 138.652 304.863 138.652 304.863L130.848 283.268L130.115 269.166L114.095 235.582C114.095 235.582 110.118 258.182 110.764 259.538C111.163 260.391 111.687 261.173 112.317 261.855Z" fill="url(#paint13_linear_209_701)"/>
<path d="M136.486 207.999C136.486 207.999 118.85 217.593 116.672 220.553C114.495 223.514 114.063 235.616 114.063 235.616L136.486 282.624L137.564 301.563C137.564 301.563 130.816 316.31 130.816 326.615V327.745L129.738 341.893L156.688 344.401C156.688 344.401 158.218 336.638 158.218 337.328C158.218 338.017 160.18 344.401 160.18 344.401H204.82L203.171 313.247L195.571 265.155C195.571 265.155 198.805 237.571 198.967 236.566C199.247 234.78 227.512 221.638 227.512 221.638L240.825 214.101C242.524 213.132 243.943 211.702 244.933 209.96C245.923 208.218 246.448 206.23 246.453 204.202C246.447 202.107 245.885 200.055 244.83 198.275C243.776 196.495 242.27 195.057 240.481 194.123L202.912 174.63L194.17 190.043L205.618 197.75L213.822 203.705L191.065 205.965C191.065 205.965 187.023 200.428 185.287 200.428C183.551 200.428 169.613 203.818 169.613 203.818L169.828 200.168C169.828 200.168 166.131 195.829 161.991 196.055C157.852 196.281 140.431 201.536 140.431 201.536L136.486 207.999Z" fill="url(#paint14_linear_209_701)"/>
<path d="M199.775 180.156L189.976 174.178L175.067 165.703C175.067 165.703 170.151 161.793 168.211 161.906C167.387 162.064 166.603 162.402 165.912 162.898C165.221 163.395 164.638 164.039 164.201 164.788C164.115 165.251 164.923 166.11 166.174 165.748C166.583 165.635 167.726 164.765 168.33 164.901C169.486 165.188 170.486 165.944 171.111 167.003C171.188 167.107 171.236 167.232 171.248 167.364C171.26 167.495 171.237 167.627 171.181 167.746C171.124 167.864 171.037 167.963 170.93 168.031C170.822 168.1 170.698 168.135 170.572 168.133C170.572 168.133 162.131 165.873 158.983 167.681C158.612 167.87 158.32 168.195 158.163 168.595C158.006 168.996 157.995 169.442 158.132 169.85C158.358 170.427 158.962 170.98 160.439 170.641C163.403 170.042 168.297 172.427 168.297 172.427C168.297 172.427 157.345 172.054 155.469 173.037C154.725 173.421 153.917 175.93 156.148 176.19C158.779 176.483 163.964 176.37 163.964 176.37C163.964 176.37 168.858 177.082 168.071 178.043C167.284 179.003 159.77 179.082 159.199 179.173C158.628 179.263 156.084 179.173 156.224 181.342C156.299 182.574 158.498 183.354 161.344 183.252C163.759 183.173 171.251 183.015 172.124 184.45C172.997 185.885 172.404 186.925 171.715 187.286C169.523 187.851 167.291 188.229 165.042 188.416C164.05 188.416 162.746 190.337 165.16 190.947C167.791 191.625 170.011 191.072 172.286 191.072C174.56 191.072 177.471 191.264 183.853 188.642C183.853 188.642 188.165 186.597 194.029 190.123L199.775 180.156Z" fill="#FFBE9D"/>
<path d="M168.512 204.044C168.512 204.214 161.646 205.174 153.129 206.304C144.613 207.434 137.682 208.135 137.671 207.965C137.66 207.796 144.538 206.835 153.065 205.705C161.592 204.575 168.502 203.886 168.512 204.044Z" fill="#263238"/>
<path d="M166.982 303.97C167.093 303.746 167.219 303.531 167.36 303.326L168.546 301.529C169.624 299.981 171.057 297.71 172.858 294.862C174.658 292.015 176.652 288.602 178.797 284.692C180.943 280.782 183.109 276.477 185.341 271.833C187.572 267.188 189.394 262.68 191.022 258.533C192.65 254.386 193.965 250.623 195.01 247.391C196.056 244.159 196.875 241.583 197.404 239.763C197.662 238.916 197.867 238.227 198.029 237.684C198.096 237.44 198.183 237.202 198.288 236.972C198.265 237.225 198.218 237.475 198.147 237.718C198.007 238.26 197.835 238.961 197.608 239.831C197.145 241.673 196.401 244.351 195.388 247.526C194.374 250.702 193.081 254.566 191.496 258.736C189.911 262.906 188.014 267.437 185.847 272.093C183.681 276.748 181.406 281.133 179.25 284.963C177.094 288.794 175.014 292.252 173.192 295.066C171.37 297.879 169.85 300.117 168.75 301.62L167.489 303.36C167.344 303.584 167.174 303.789 166.982 303.97Z" fill="#263238"/>
<path d="M130.438 333.282C130.424 333.072 130.424 332.86 130.438 332.649C130.438 332.197 130.535 331.587 130.6 330.841C130.762 329.271 131.074 326.977 131.559 324.118C132.936 316.425 134.864 308.851 137.327 301.461V301.574C137.09 297.642 136.842 293.404 136.594 289.009C136.464 286.828 136.346 284.681 136.227 282.636V282.749C131.43 272.951 127.463 264.171 124.757 257.798C123.399 254.623 122.364 252.035 121.674 250.25C121.362 249.391 121.103 248.702 120.909 248.182C120.83 247.951 120.772 247.712 120.736 247.47C120.865 247.688 120.973 247.919 121.06 248.159L121.911 250.182C122.666 251.933 123.744 254.499 125.145 257.651C127.937 263.968 131.969 272.725 136.766 282.511V282.568C136.885 284.613 137.014 286.76 137.133 288.941C137.391 293.337 137.629 297.574 137.844 301.507V301.563C135.369 308.917 133.385 316.442 131.904 324.084C131.365 326.932 131.01 329.214 130.826 330.774L130.568 332.57C130.564 332.814 130.521 333.055 130.438 333.282Z" fill="#263238"/>
<path d="M159.716 324.061C159.499 327.543 159.099 331.01 158.52 334.446C158.123 337.905 157.54 341.339 156.773 344.729C156.985 341.25 157.384 337.787 157.97 334.356C158.368 330.893 158.951 327.456 159.716 324.061Z" fill="#263238"/>
<path d="M191.658 228.136C191.433 227.893 191.241 227.619 191.087 227.322C190.752 226.78 190.3 225.966 189.782 224.938C188.45 222.24 187.392 219.403 186.624 216.474C185.849 213.547 185.365 210.544 185.179 207.513C185.115 206.383 185.104 205.411 185.125 204.767C185.111 204.43 185.14 204.091 185.212 203.762C185.309 203.762 185.341 205.185 185.578 207.479C186.16 213.463 187.701 219.3 190.138 224.746C190.7 225.847 191.207 226.979 191.658 228.136Z" fill="#263238"/>
<g opacity="0.3">
<path d="M168.168 301.812C169.277 302.302 170.48 302.515 171.682 302.432C172.883 302.35 174.05 301.975 175.089 301.337C177.152 300.035 178.96 298.332 180.414 296.32C191.73 281.914 197.374 263.525 196.196 244.905C189.828 264.768 180.684 283.53 169.063 300.58" fill="black"/>
</g>
<g opacity="0.3">
<path d="M121.62 249.82C120.678 248.639 119.47 247.723 118.106 247.154C117.471 246.893 116.765 246.9 116.136 247.174C115.506 247.448 115.003 247.967 114.732 248.623C114.615 249.388 114.712 250.173 115.012 250.883C117.093 257.312 119.238 263.889 123.313 269.166C124.047 270.02 124.91 270.742 125.867 271.302C126.838 271.946 129.479 272.511 129.845 271.415C130.035 270.483 130.035 269.521 129.845 268.59C129.845 268.59 124.035 256.16 121.221 249.775" fill="black"/>
</g>
<g opacity="0.3">
<path d="M213.584 203.694C216.178 204.335 218.883 204.284 221.454 203.547C217.411 200.338 212.14 199.637 207.116 198.925L213.584 203.694Z" fill="black"/>
</g>
<path d="M230.229 204.168C229.394 204.256 228.552 204.256 227.717 204.168L221.702 203.988L215.687 203.886C214.85 203.924 214.013 203.874 213.186 203.739C214.002 203.543 214.838 203.452 215.676 203.468C217.217 203.389 219.352 203.344 221.713 203.4C224.073 203.457 226.208 203.603 227.749 203.75C228.589 203.787 229.421 203.928 230.229 204.168Z" fill="#263238"/>
<path d="M118.58 280.24C118.58 280.172 119.151 280.579 119.971 281.234C120.992 282.113 122.115 282.853 123.312 283.438C124.509 283.982 125.828 284.162 127.118 283.958C128.099 283.766 128.638 283.381 128.692 283.472C128.746 283.562 128.25 284.048 127.204 284.365C125.832 284.716 124.388 284.58 123.097 283.98C121.846 283.377 120.701 282.555 119.712 281.551C118.979 280.749 118.58 280.24 118.58 280.24Z" fill="#263238"/>
<path opacity="0.3" d="M159.716 326.197L165.02 344.458H160.212L157.98 336.243L159.716 326.197Z" fill="black"/>
<defs>
<linearGradient id="paint0_linear_209_701" x1="386.334" y1="194.01" x2="294.756" y2="198.059" gradientUnits="userSpaceOnUse">
<stop stop-color="#3FC3E0"/>
<stop offset="1" stop-color="#4CDB80"/>
</linearGradient>
<linearGradient id="paint1_linear_209_701" x1="381.117" y1="191.273" x2="291.536" y2="195.162" gradientUnits="userSpaceOnUse">
<stop stop-color="#3FC3E0"/>
<stop offset="1" stop-color="#4CDB80"/>
</linearGradient>
<linearGradient id="paint2_linear_209_701" x1="397.782" y1="152.234" x2="303.666" y2="160.1" gradientUnits="userSpaceOnUse">
<stop stop-color="#3FC3E0"/>
<stop offset="1" stop-color="#4CDB80"/>
</linearGradient>
<linearGradient id="paint3_linear_209_701" x1="397.764" y1="148.459" x2="303.979" y2="156.26" gradientUnits="userSpaceOnUse">
<stop stop-color="#3FC3E0"/>
<stop offset="1" stop-color="#4CDB80"/>
</linearGradient>
<linearGradient id="paint4_linear_209_701" x1="388.997" y1="101.79" x2="293.043" y2="110.579" gradientUnits="userSpaceOnUse">
<stop stop-color="#3FC3E0"/>
<stop offset="1" stop-color="#4CDB80"/>
</linearGradient>
<linearGradient id="paint5_linear_209_701" x1="383.057" y1="102.05" x2="289.591" y2="110.415" gradientUnits="userSpaceOnUse">
<stop stop-color="#3FC3E0"/>
<stop offset="1" stop-color="#4CDB80"/>
</linearGradient>
<linearGradient id="paint6_linear_209_701" x1="366.319" y1="311.925" x2="337.83" y2="312.303" gradientUnits="userSpaceOnUse">
<stop stop-color="#3FC3E0"/>
<stop offset="1" stop-color="#4CDB80"/>
</linearGradient>
<linearGradient id="paint7_linear_209_701" x1="360.403" y1="265.584" x2="330.673" y2="265.82" gradientUnits="userSpaceOnUse">
<stop stop-color="#3FC3E0"/>
<stop offset="1" stop-color="#4CDB80"/>
</linearGradient>
<linearGradient id="paint8_linear_209_701" x1="435.858" y1="480.898" x2="424.716" y2="481.04" gradientUnits="userSpaceOnUse">
<stop stop-color="#3FC3E0"/>
<stop offset="1" stop-color="#4CDB80"/>
</linearGradient>
<linearGradient id="paint9_linear_209_701" x1="447.513" y1="504.522" x2="433.8" y2="505.062" gradientUnits="userSpaceOnUse">
<stop stop-color="#3FC3E0"/>
<stop offset="1" stop-color="#4CDB80"/>
</linearGradient>
<linearGradient id="paint10_linear_209_701" x1="427.815" y1="503.237" x2="413.378" y2="503.663" gradientUnits="userSpaceOnUse">
<stop stop-color="#3FC3E0"/>
<stop offset="1" stop-color="#4CDB80"/>
</linearGradient>
<linearGradient id="paint11_linear_209_701" x1="156.989" y1="498.805" x2="136.024" y2="499.15" gradientUnits="userSpaceOnUse">
<stop stop-color="#3FC3E0"/>
<stop offset="1" stop-color="#4CDB80"/>
</linearGradient>
<linearGradient id="paint12_linear_209_701" x1="222.122" y1="501.302" x2="179.623" y2="502.804" gradientUnits="userSpaceOnUse">
<stop stop-color="#3FC3E0"/>
<stop offset="1" stop-color="#4CDB80"/>
</linearGradient>
<linearGradient id="paint13_linear_209_701" x1="138.652" y1="235.582" x2="109.892" y2="235.83" gradientUnits="userSpaceOnUse">
<stop stop-color="#3FC3E0"/>
<stop offset="1" stop-color="#4CDB80"/>
</linearGradient>
<linearGradient id="paint14_linear_209_701" x1="246.453" y1="174.63" x2="110.333" y2="177.82" gradientUnits="userSpaceOnUse">
<stop stop-color="#3FC3E0"/>
<stop offset="1" stop-color="#4CDB80"/>
</linearGradient>
</defs>
</svg>
