<svg width="21" height="16" viewBox="0 0 21 16" fill="none" xmlns="http://www.w3.org/2000/svg">
<path d="M18.3771 3.99704C18.3901 4.17204 18.3901 4.34604 18.3901 4.52004C18.3901 9.84504 14.3371 15.981 6.93014 15.981C4.64814 15.981 2.52814 15.32 0.744141 14.172C1.06814 14.209 1.38014 14.222 1.71714 14.222C3.60014 14.222 5.33314 13.586 6.71814 12.501C4.94714 12.464 3.46314 11.304 2.95114 9.70804C3.20014 9.74504 3.45014 9.77004 3.71214 9.77004C4.07314 9.77004 4.43614 9.72004 4.77314 9.63304C2.92614 9.25904 1.54314 7.63804 1.54314 5.68004V5.63004C2.08014 5.92904 2.70314 6.11604 3.36314 6.14104C2.27814 5.41904 1.56714 4.18404 1.56714 2.78704C1.56714 2.03904 1.76614 1.35304 2.11514 0.755043C4.09814 3.19804 7.07914 4.79504 10.4211 4.97004C10.3591 4.67004 10.3211 4.35904 10.3211 4.04704C10.3211 1.82704 12.1171 0.019043 14.3491 0.019043C15.5091 0.019043 16.5561 0.505043 17.2921 1.29104C18.2021 1.11604 19.0741 0.779043 19.8481 0.318043C19.5491 1.25304 18.9121 2.03904 18.0771 2.53804C18.8881 2.45004 19.6741 2.22604 20.3961 1.91404C19.8481 2.71204 19.1631 3.42304 18.3771 3.99704Z" fill="#0A142F"/>
</svg>
