<svg width="73" height="73" viewBox="0 0 73 73" fill="none" xmlns="http://www.w3.org/2000/svg">
<g clip-path="url(#clip0_209_2496)">
<path d="M59.1314 34.0381L14.9358 35.1873L14.457 16.7725L58.6526 15.6233M54.1816 56.2796C52.7164 56.3177 51.2961 55.7722 50.2331 54.7631C49.1701 53.754 48.5516 52.364 48.5135 50.8988C48.4754 49.4336 49.0209 48.0133 50.03 46.9503C51.0391 45.8874 52.4291 45.2688 53.8943 45.2307C55.3594 45.1926 56.7797 45.7381 57.8427 46.7472C58.9057 47.7563 59.5243 49.1463 59.5624 50.6115C59.6005 52.0767 59.055 53.497 58.0459 54.5599C57.0368 55.6229 55.6467 56.2415 54.1816 56.2796ZM21.0349 57.1415C19.5697 57.1796 18.1494 56.6341 17.0864 55.625C16.0235 54.6159 15.4049 53.2259 15.3668 51.7607C15.3287 50.2955 15.8742 48.8752 16.8833 47.8122C17.8924 46.7493 19.2824 46.1307 20.7476 46.0926C22.2128 46.0545 23.6331 46.6 24.696 47.6091C25.759 48.6182 26.3776 50.0082 26.4157 51.4734C26.4538 52.9386 25.9083 54.3589 24.8992 55.4218C23.8901 56.4848 22.5001 57.1034 21.0349 57.1415ZM8.04873 53.7937C8.133 57.0347 9.64502 59.9069 11.9443 61.8741L12.1148 68.4298C12.1402 69.4066 12.5525 70.3333 13.2612 71.006C13.9698 71.6787 14.9167 72.0424 15.8935 72.017L19.5765 71.9212C20.5532 71.8958 21.4799 71.4834 22.1527 70.7748C22.8254 70.0661 23.1891 69.1193 23.1637 68.1425L23.0679 64.4595L52.5316 63.6934L52.6274 67.3764C52.6528 68.3531 53.0652 69.2798 53.7738 69.9526C54.4825 70.6253 55.4293 70.989 56.4061 70.9636L60.0891 70.8678C61.0659 70.8424 61.9926 70.43 62.6653 69.7214C63.338 69.0127 63.7017 68.0659 63.6763 67.0891L63.5058 60.5334C65.6998 58.4493 67.0605 55.5025 66.9762 52.2614L66.0185 15.4318C65.6833 2.54141 52.4504 1.04277 36.1717 1.46605C19.893 1.88934 6.75589 4.07366 7.09107 16.964L8.04873 53.7937Z" fill="white"/>
</g>
<defs>
<clipPath id="clip0_209_2496">
<rect width="70" height="70" fill="white" transform="translate(0.709961 2.38818) rotate(-1.48949)"/>
</clipPath>
</defs>
</svg>
