<svg width="147" height="18" viewBox="0 0 147 18" fill="none" xmlns="http://www.w3.org/2000/svg">
<path d="M6.14117 17.9972V9.80115H8.90617L9.31717 6.59215H6.14117V4.54815C6.14117 3.62215 6.39917 2.98815 7.72817 2.98815H9.41217V0.12715C8.59317 0.03915 7.76917 -0.00285004 6.94517 0.000149963C4.50117 0.000149963 2.82317 1.49215 2.82317 4.23115V6.58615H0.0761719V9.79515H2.82917V17.9972H6.14117Z" fill="#0A142F"/>
<path d="M96.3771 4.99704C96.3901 5.17204 96.3901 5.34604 96.3901 5.52004C96.3901 10.845 92.3371 16.981 84.9301 16.981C82.6481 16.981 80.5281 16.32 78.7441 15.172C79.0681 15.209 79.3801 15.222 79.7171 15.222C81.6001 15.222 83.3331 14.586 84.7181 13.501C82.9471 13.464 81.4631 12.304 80.9511 10.708C81.2001 10.745 81.4501 10.77 81.7121 10.77C82.0731 10.77 82.4361 10.72 82.7731 10.633C80.9261 10.259 79.5431 8.63804 79.5431 6.68004V6.63004C80.0801 6.92904 80.7031 7.11604 81.3631 7.14104C80.2781 6.41904 79.5671 5.18404 79.5671 3.78704C79.5671 3.03904 79.7661 2.35304 80.1151 1.75504C82.0981 4.19804 85.0791 5.79504 88.4211 5.97004C88.3591 5.67004 88.3211 5.35904 88.3211 5.04704C88.3211 2.82704 90.1171 1.01904 92.3491 1.01904C93.5091 1.01904 94.5561 1.50504 95.2921 2.29104C96.2021 2.11604 97.0741 1.77904 97.8481 1.31804C97.5491 2.25304 96.9121 3.03904 96.0771 3.53804C96.8881 3.45004 97.6741 3.22604 98.3961 2.91404C97.8481 3.71204 97.1631 4.42304 96.3771 4.99704Z" fill="#0A142F"/>
<path fill-rule="evenodd" clip-rule="evenodd" d="M48.2441 0H39.2441C36.7694 0 34.7441 2.02432 34.7441 4.5V13.5C34.7441 15.9748 36.7694 18 39.2441 18H48.2441C50.7189 18 52.7441 15.9748 52.7441 13.5V4.5C52.7441 2.02432 50.7189 0 48.2441 0ZM43.7441 12.7499C41.6728 12.7499 39.9941 11.0704 39.9941 9C39.9941 6.92865 41.6728 5.24993 43.7441 5.24993C45.8146 5.24993 47.4942 6.92865 47.4942 9C47.4942 11.0704 45.8146 12.7499 43.7441 12.7499ZM47.4942 4.12492C47.4942 4.74615 47.9973 5.24992 48.6192 5.24992C49.2411 5.24992 49.7442 4.74615 49.7442 4.12492C49.7442 3.5037 49.2411 2.99992 48.6192 2.99992C47.9973 2.99992 47.4942 3.5037 47.4942 4.12492Z" fill="#0A142F"/>
<path fill-rule="evenodd" clip-rule="evenodd" d="M143.711 1.73158C144.673 1.85688 145.592 2.79219 145.709 3.7676C146.123 7.34232 146.123 10.8087 145.709 14.3823C145.592 15.3577 144.673 16.2941 143.711 16.4183C137.847 17.147 131.916 17.147 126.053 16.4183C125.091 16.2939 124.172 15.3577 124.055 14.3823C123.641 10.8084 123.641 7.34232 124.055 3.7676C124.172 2.79219 125.091 1.85661 126.053 1.73158C131.916 1.00288 137.847 1.00288 143.711 1.73158ZM133.025 5.36283V12.7882L138.594 9.07566L133.025 5.36283Z" fill="#0A142F"/>
</svg>
