<svg width="56" height="56" viewBox="0 0 56 56" fill="none" xmlns="http://www.w3.org/2000/svg">
<g clip-path="url(#clip0_243_2262)">
<path d="M44.3977 52.7712H43.7152L36.6714 52.2725C34.3702 52.1062 31.2902 52.0187 28.0089 52.0187C24.7277 52.0187 21.6477 52.1062 19.3464 52.2725L12.2502 52.745C9.68116 52.976 7.14891 52.0073 5.39016 50.12C3.82654 48.384 3.05129 46.0784 3.24641 43.75L3.75391 36.6625C4.09516 30.8892 4.09516 25.102 3.75391 19.3287L3.24641 12.25C3.04954 9.9006 3.84229 7.57573 5.43391 5.83623C7.19266 3.94885 9.72491 2.98023 12.2939 3.21123L19.3377 3.75373C21.6389 3.91998 24.7189 4.00748 28.0002 4.00748C31.2814 4.00748 34.3614 3.91998 36.6627 3.75373L43.7502 3.25498C46.3192 3.02398 48.8514 3.9926 50.6102 5.87998C52.1738 7.61598 52.949 9.9216 52.7539 12.25L52.2464 19.3375C51.9052 25.1107 51.9052 30.898 52.2464 36.6712L52.7539 43.75C52.9657 46.1125 52.1755 48.4557 50.5751 50.2075C48.966 51.8892 46.7252 52.8193 44.3977 52.7712ZM28.0002 50.2425C31.3252 50.2425 34.4489 50.3387 36.7502 50.505L43.7939 51.0037C47.3692 51.387 50.5769 48.7987 50.9602 45.2243C51.0092 44.7632 51.0092 44.2986 50.9602 43.8375L50.4964 36.75C50.1508 30.8954 50.1508 25.0259 50.4964 19.1712L51.0039 12.1275C51.367 8.55048 48.7621 5.35585 45.1852 4.99273C44.7372 4.94723 44.2857 4.9481 43.8377 4.99623L36.7502 5.49498C34.4052 5.66123 31.2902 5.75748 28.0002 5.75748C24.7102 5.75748 21.5514 5.66123 19.2502 5.49498L12.1627 4.99623C10.1353 4.7976 8.12716 5.53523 6.71141 6.99998C5.43304 8.39035 4.79779 10.2541 4.96141 12.1362L5.50391 19.25C5.84691 25.0784 5.84691 30.9216 5.50391 36.75L4.99641 43.8375C4.83279 45.7196 5.46804 47.5834 6.74641 48.9737C8.15779 50.4481 10.1659 51.1962 12.1977 51.0037L19.2502 50.505C21.5514 50.33 24.6752 50.2425 28.0002 50.2425Z" fill="#9DACBA"/>
<path d="M55.125 29.75H53.375V26.25H55.125C55.608 26.25 56 26.642 56 27.125V28.875C56 29.358 55.608 29.75 55.125 29.75Z" fill="#92582B"/>
<path d="M2.625 29.75H0.875C0.392 29.75 0 29.358 0 28.875V27.125C0 26.642 0.392 26.25 0.875 26.25H2.625V29.75Z" fill="#92582B"/>
<path d="M26.25 55.125V53.375H29.75V55.125C29.75 55.608 29.358 56 28.875 56H27.125C26.642 56 26.25 55.608 26.25 55.125Z" fill="#92582B"/>
<path d="M26.25 2.625V0.875C26.25 0.392 26.642 0 27.125 0H28.875C29.358 0 29.75 0.392 29.75 0.875V2.625H26.25Z" fill="#92582B"/>
<path d="M28 1.75C13.5021 1.75 1.75 13.5021 1.75 28C1.75 42.4979 13.5021 54.25 28 54.25C42.4979 54.25 54.25 42.4979 54.25 28C54.25 13.5021 42.4979 1.75 28 1.75ZM28 42C20.2676 42 14 35.7324 14 28C14 20.2676 20.2676 14 28 14C35.7324 14 42 20.2676 42 28C42 35.7324 35.7324 42 28 42Z" fill="#E2E7F0"/>
<path d="M50.5138 31.2988C49.0682 41.2703 41.2352 49.1033 31.2637 50.5487C29.4131 50.8113 28.0289 52.381 28 54.25C42.4979 54.25 54.25 42.4979 54.25 28C52.3565 28.014 50.7622 29.421 50.5138 31.2988Z" fill="#C9D5E3"/>
<path d="M42 28C42 30.2129 41.4715 32.3934 40.46 34.3613L52.9112 36.2775C54.6953 30.9059 54.6953 25.1029 52.9112 19.7313L40.46 21.6388C41.4715 23.6066 41.9991 25.7871 42 28Z" fill="url(#paint0_linear_243_2262)"/>
<path d="M36.2767 52.9109L34.3604 40.4597C30.3687 42.515 25.6297 42.515 21.6379 40.4597L19.7217 52.9109C25.0959 54.6968 30.9024 54.6968 36.2767 52.9109Z" fill="url(#paint1_linear_243_2262)"/>
<path d="M49.3936 35.735L52.8936 36.2775C53.3232 34.9807 53.6504 33.6525 53.8736 32.305V32.2263C53.9786 31.5963 54.0486 30.9488 54.1098 30.3013C54.1098 30.1875 54.1098 30.065 54.1098 29.9512C54.2498 29.3037 54.2498 28.6562 54.2498 28C52.3563 28.014 50.7621 29.421 50.5136 31.2988C50.2913 32.8116 49.9159 34.2983 49.3936 35.735Z" fill="#2BA357"/>
<path d="M30.2925 54.1447C30.94 54.0834 31.5875 54.0134 32.2175 53.9084H32.2875C33.6376 53.6862 34.9694 53.358 36.2688 52.9284L35.7263 49.4284C34.2886 49.9473 32.8029 50.32 31.29 50.5397C29.4262 50.7908 28.0263 52.3693 28 54.2497C28.6563 54.2497 29.3037 54.2497 29.9512 54.1709L30.2925 54.1447Z" fill="#2BA357"/>
<path d="M28 14V10.5C18.3348 10.5 10.5 18.3348 10.5 28H14C14 20.2676 20.2676 14 28 14Z" fill="#C9D5E3"/>
<path d="M14 28C14 25.8773 14.4848 23.7825 15.4175 21.875L2.85255 20.4575C1.37467 25.3803 1.37467 30.6285 2.85255 35.5513L15.4088 34.125C14.4787 32.2175 13.9974 30.1219 14 28Z" fill="url(#paint2_linear_243_2262)"/>
<path d="M11.7688 21.4813C11.4022 22.3746 11.1099 23.296 10.8938 24.2375C10.5456 25.9324 11.6376 27.5879 13.3324 27.9361C13.5521 27.9816 13.7761 28.0026 14.0001 28C14.0009 27.4829 14.0298 26.9658 14.0876 26.4513C14.0876 26.3463 14.0876 26.25 14.1313 26.145C14.1838 25.725 14.2626 25.27 14.3501 24.9025L14.4026 24.6838C14.5137 24.2349 14.6449 23.7974 14.7963 23.3713V23.2838C14.9774 22.8034 15.1848 22.3326 15.4176 21.875L11.7688 21.4813Z" fill="#2BA357"/>
<path d="M19.7227 3.08873L21.6389 15.54C25.6315 13.4872 30.3688 13.4872 34.3614 15.54L36.2777 3.08873C30.9034 1.30286 25.0969 1.30286 19.7227 3.08873Z" fill="url(#paint3_linear_243_2262)"/>
<path d="M21.0879 11.9263L21.6479 15.54C22.0775 15.3221 22.5185 15.1261 22.9691 14.9538L23.3979 14.7963C23.6604 14.7088 23.9229 14.6213 24.1854 14.5425L24.9291 14.35L25.3754 14.2625C25.7368 14.1925 26.1043 14.1374 26.4779 14.0963H26.7579C27.1254 14 27.5716 14 28.0004 14C28.01 12.2649 26.6109 10.8509 24.8758 10.8421C24.6491 10.8413 24.4243 10.864 24.2029 10.9113C23.1354 11.151 22.0924 11.4914 21.0879 11.9263Z" fill="#2BA357"/>
</g>
<defs>
<linearGradient id="paint0_linear_243_2262" x1="40.32" y1="21.84" x2="53.0133" y2="36.2133" gradientUnits="userSpaceOnUse">
<stop stop-color="#3FC2E2"/>
<stop offset="1" stop-color="#4CDB80"/>
</linearGradient>
<linearGradient id="paint1_linear_243_2262" x1="22.2125" y1="41.6263" x2="36.2125" y2="52.6397" gradientUnits="userSpaceOnUse">
<stop stop-color="#3FC2E2"/>
<stop offset="1" stop-color="#4CDB80"/>
</linearGradient>
<linearGradient id="paint2_linear_243_2262" x1="2.98664" y1="35.4667" x2="15.3066" y2="21.84" gradientUnits="userSpaceOnUse">
<stop stop-color="#3FC2E2"/>
<stop offset="1" stop-color="#4CDB80"/>
</linearGradient>
<linearGradient id="paint3_linear_243_2262" x1="36.2135" y1="3.35997" x2="21.6535" y2="15.68" gradientUnits="userSpaceOnUse">
<stop stop-color="#3FC2E2"/>
<stop offset="1" stop-color="#4CDB80"/>
</linearGradient>
<clipPath id="clip0_243_2262">
<rect width="56" height="56" fill="white"/>
</clipPath>
</defs>
</svg>
