<svg width="63" height="60" viewBox="0 0 63 60" fill="none" xmlns="http://www.w3.org/2000/svg">
<g clip-path="url(#clip0_243_1073)">
<path d="M49.4823 55.8566H48.7217L40.8712 55.3311C38.3064 55.156 34.8736 55.0638 31.2166 55.0638C27.5595 55.0638 24.1267 55.156 21.5619 55.3311L13.6529 55.829C10.7897 56.0723 7.96743 55.0518 6.00724 53.0633C4.26454 51.2343 3.40049 48.8052 3.61797 46.3521L4.18359 38.8849C4.56393 32.8024 4.56393 26.7051 4.18359 20.6226L3.61797 13.1646C3.39854 10.6894 4.28209 8.23993 6.05601 6.40724C8.01619 4.41876 10.8385 3.39824 13.7017 3.64162L21.5522 4.21318C24.117 4.38834 27.5498 4.48052 31.2068 4.48052C34.8639 4.48052 38.2966 4.38834 40.8614 4.21318L48.7607 3.68771C51.6239 3.44434 54.4462 4.46485 56.4064 6.45334C58.1491 8.28234 59.0131 10.7115 58.7957 13.1646L58.23 20.6318C57.8497 26.7143 57.8497 32.8116 58.23 38.8941L58.7957 46.3521C59.0317 48.8411 58.151 51.3099 56.3674 53.1555C54.5739 54.9274 52.0764 55.9073 49.4823 55.8566ZM31.2068 53.1924C34.9126 53.1924 38.3941 53.2938 40.959 53.469L48.8094 53.9944C52.7942 54.3982 56.3693 51.6713 56.7965 47.9054C56.8511 47.4196 56.8511 46.9301 56.7965 46.4443L56.2796 38.9771C55.8944 32.8088 55.8944 26.6249 56.2796 20.4566L56.8452 13.0355C57.2499 9.2669 54.3467 5.90113 50.36 5.51856C49.8607 5.47062 49.3575 5.47154 48.8582 5.52224L40.959 6.04771C38.3454 6.22287 34.8736 6.32427 31.2068 6.32427C27.54 6.32427 24.0195 6.22287 21.4547 6.04771L13.5554 5.52224C11.2958 5.31298 9.05772 6.09012 7.47982 7.63334C6.05503 9.0982 5.34702 11.0618 5.52939 13.0447L6.13402 20.5396C6.51631 26.6802 6.51631 32.8365 6.13402 38.9771L5.5684 46.4443C5.38603 48.4272 6.09404 50.3908 7.51883 51.8557C9.09185 53.409 11.33 54.1972 13.5944 53.9944L21.4547 53.469C24.0195 53.2846 27.501 53.1924 31.2068 53.1924Z" fill="#9DACBA"/>
<path d="M61.4387 31.6021H59.4883V27.9146H61.4387C61.977 27.9146 62.4139 28.3276 62.4139 28.8365V30.6802C62.4139 31.1891 61.977 31.6021 61.4387 31.6021Z" fill="#92582B"/>
<path d="M2.92565 31.6021H0.975215C0.436897 31.6021 0 31.1891 0 30.6802V28.8365C0 28.3276 0.436897 27.9146 0.975215 27.9146H2.92565V31.6021Z" fill="#92582B"/>
<path d="M29.2568 58.3364V56.4927H33.1577V58.3364C33.1577 58.8453 32.7208 59.2583 32.1825 59.2583H30.2321C29.6937 59.2583 29.2568 58.8453 29.2568 58.3364Z" fill="#92582B"/>
<path d="M29.2568 3.02399V1.18024C29.2568 0.671362 29.6937 0.258362 30.2321 0.258362H32.1825C32.7208 0.258362 33.1577 0.671362 33.1577 1.18024V3.02399H29.2568Z" fill="#92582B"/>
<path d="M31.2067 2.10211C15.0483 2.10211 1.9502 14.4838 1.9502 29.7584C1.9502 45.0329 15.0483 57.4146 31.2067 57.4146C47.365 57.4146 60.4631 45.0329 60.4631 29.7584C60.4631 14.4838 47.365 2.10211 31.2067 2.10211ZM31.2067 44.5084C22.5887 44.5084 15.6032 37.905 15.6032 29.7584C15.6032 21.6118 22.5887 15.0084 31.2067 15.0084C39.8246 15.0084 46.8101 21.6118 46.8101 29.7584C46.8101 37.905 39.8246 44.5084 31.2067 44.5084Z" fill="#E2E7F0"/>
<path d="M56.2993 33.2338C54.6883 43.7395 45.9581 51.9921 34.8446 53.5151C32.782 53.7916 31.2392 55.4455 31.207 57.4146C47.3654 57.4146 60.4635 45.0329 60.4635 29.7584C58.3531 29.7731 56.5763 31.2555 56.2993 33.2338Z" fill="#C9D5E3"/>
<path d="M46.8101 29.7583C46.8101 32.0898 46.2211 34.3871 45.0938 36.4604L58.9711 38.4793C60.9595 32.8199 60.9595 26.706 58.9711 21.0466L45.0938 23.0563C46.2211 25.1296 46.8092 27.4269 46.8101 29.7583Z" fill="url(#paint0_linear_243_1073)"/>
<path d="M40.4315 56.0038L38.2958 42.8855C33.8469 45.051 28.5651 45.051 24.1162 42.8855L21.9805 56.0038C27.9702 57.8853 34.4418 57.8853 40.4315 56.0038Z" fill="url(#paint1_linear_243_1073)"/>
<path d="M55.0508 37.9077L58.9516 38.4793C59.4305 37.1131 59.7952 35.7137 60.0439 34.294V34.211C60.1609 33.5473 60.2389 32.8651 60.3072 32.1829C60.3072 32.0631 60.3072 31.934 60.3072 31.8141C60.4632 31.132 60.4632 30.4498 60.4632 29.7584C58.3529 29.7731 56.576 31.2555 56.2991 33.2338C56.0514 34.8278 55.633 36.394 55.0508 37.9077Z" fill="#2BA357"/>
<path d="M33.7621 57.3036C34.4838 57.2391 35.2054 57.1653 35.9076 57.0547H35.9856C37.4903 56.8206 38.9746 56.4749 40.4228 56.0222L39.8182 52.3347C38.2159 52.8814 36.56 53.2741 34.8738 53.5055C32.7966 53.7701 31.2363 55.4331 31.207 57.4142C31.9384 57.4142 32.6601 57.4142 33.3818 57.3313L33.7621 57.3036Z" fill="#2BA357"/>
<path d="M31.2065 15.0084V11.3209C20.4342 11.3209 11.7021 19.5753 11.7021 29.7584H15.603C15.603 21.6118 22.5885 15.0084 31.2065 15.0084Z" fill="#C9D5E3"/>
<path d="M15.6039 29.7583C15.6039 27.5219 16.1442 25.3149 17.1838 23.3052L3.17969 21.8118C1.53255 26.9982 1.53255 32.5276 3.17969 37.7141L17.174 36.2115C16.1374 34.2018 15.601 31.9939 15.6039 29.7583Z" fill="url(#paint2_linear_243_1073)"/>
<path d="M13.1167 22.8904C12.7081 23.8316 12.3823 24.8024 12.1415 25.7943C11.7533 27.58 12.9704 29.3241 14.8594 29.6911C15.1042 29.739 15.3538 29.7611 15.6035 29.7584C15.6045 29.2135 15.6366 28.6687 15.701 28.1266C15.701 28.016 15.701 27.9146 15.7498 27.804C15.8083 27.3615 15.896 26.8821 15.9936 26.4949L16.0521 26.2644C16.1759 25.7915 16.3222 25.3306 16.4909 24.8816V24.7894C16.6928 24.2833 16.9239 23.7874 17.1833 23.3052L13.1167 22.8904Z" fill="#2BA357"/>
<path d="M21.9814 3.5126L24.1172 16.6309C28.5671 14.4682 33.8469 14.4682 38.2968 16.6309L40.4325 3.5126C34.4427 1.63105 27.9712 1.63105 21.9814 3.5126Z" fill="url(#paint3_linear_243_1073)"/>
<path d="M23.5029 12.8235L24.1271 16.6308C24.6059 16.4013 25.0974 16.1948 25.5996 16.0132L26.0775 15.8473C26.3701 15.7551 26.6626 15.6629 26.9552 15.5799L27.7841 15.3771L28.2815 15.2849C28.6842 15.2112 29.0938 15.1531 29.5103 15.1098H29.8223C30.2319 15.0083 30.7293 15.0083 31.2071 15.0083C31.2179 13.1803 29.6585 11.6905 27.7246 11.6813C27.4721 11.6804 27.2214 11.7043 26.9747 11.7541C25.7849 12.0067 24.6225 12.3653 23.5029 12.8235Z" fill="#2BA357"/>
</g>
<defs>
<linearGradient id="paint0_linear_243_1073" x1="44.9377" y1="23.2683" x2="58.1978" y2="39.1522" gradientUnits="userSpaceOnUse">
<stop stop-color="#3FC2E2"/>
<stop offset="1" stop-color="#4CDB80"/>
</linearGradient>
<linearGradient id="paint1_linear_243_1073" x1="24.7566" y1="44.1147" x2="39.6807" y2="56.5343" gradientUnits="userSpaceOnUse">
<stop stop-color="#3FC2E2"/>
<stop offset="1" stop-color="#4CDB80"/>
</linearGradient>
<linearGradient id="paint2_linear_243_1073" x1="3.32914" y1="37.625" x2="16.2159" y2="22.5468" gradientUnits="userSpaceOnUse">
<stop stop-color="#3FC2E2"/>
<stop offset="1" stop-color="#4CDB80"/>
</linearGradient>
<linearGradient id="paint3_linear_243_1073" x1="40.361" y1="3.79836" x2="24.9015" y2="17.6364" gradientUnits="userSpaceOnUse">
<stop stop-color="#3FC2E2"/>
<stop offset="1" stop-color="#4CDB80"/>
</linearGradient>
<clipPath id="clip0_243_1073">
<rect width="62.4138" height="59" fill="white" transform="translate(0 0.258362)"/>
</clipPath>
</defs>
</svg>
