<svg width="80" height="76" viewBox="0 0 80 76" fill="none" xmlns="http://www.w3.org/2000/svg">
<g clip-path="url(#clip0_246_881)">
<path d="M63.4245 71.6181H62.4495L52.387 70.9412C49.0995 70.7156 44.6995 70.5969 40.012 70.5969C35.3245 70.5969 30.9245 70.7156 27.637 70.9412L17.4995 71.5825C13.8295 71.896 10.212 70.5814 7.69953 68.02C5.46578 65.664 4.35828 62.5349 4.63703 59.375L5.36203 49.7562C5.84953 41.9211 5.84953 34.067 5.36203 26.2319L4.63703 16.625C4.35578 13.4366 5.48828 10.2814 7.76203 7.92062C10.2745 5.35918 13.892 4.04462 17.562 4.35812L27.6245 5.09437C30.912 5.32 35.312 5.43875 39.9995 5.43875C44.687 5.43875 49.087 5.32 52.3745 5.09437L62.4995 4.4175C66.1695 4.104 69.787 5.41856 72.2995 7.98C74.5333 10.336 75.6408 13.4651 75.362 16.625L74.637 26.2437C74.1495 34.0789 74.1495 41.933 74.637 49.7681L75.362 59.375C75.6645 62.5812 74.5358 65.7614 72.2495 68.1387C69.9508 70.4211 66.7495 71.6834 63.4245 71.6181ZM39.9995 68.1862C44.7495 68.1862 49.212 68.3169 52.4995 68.5425L62.562 69.2194C67.6695 69.7395 72.252 66.2269 72.7995 61.3759C72.8695 60.7501 72.8695 60.1196 72.7995 59.4937L72.137 49.875C71.6433 41.9294 71.6433 33.9637 72.137 26.0181L72.862 16.4587C73.3808 11.6042 69.6595 7.26868 64.5495 6.77587C63.9095 6.71412 63.2645 6.71531 62.6245 6.78062L52.4995 7.4575C49.1495 7.68312 44.6995 7.81375 39.9995 7.81375C35.2995 7.81375 30.787 7.68312 27.4995 7.4575L17.3745 6.78062C14.4783 6.51106 11.6095 7.51212 9.58703 9.5C7.76078 11.3869 6.85328 13.9163 7.08703 16.4706L7.86203 26.125C8.35203 34.0349 8.35203 41.9651 7.86203 49.875L7.13703 59.4937C6.90328 62.0481 7.81078 64.5774 9.63703 66.4644C11.6533 68.4653 14.522 69.4806 17.4245 69.2194L27.4995 68.5425C30.787 68.305 35.2495 68.1862 39.9995 68.1862Z" fill="#9DACBA"/>
<path d="M78.75 40.375H76.25V35.625H78.75C79.44 35.625 80 36.157 80 36.8125V39.1875C80 39.843 79.44 40.375 78.75 40.375Z" fill="#92582B"/>
<path d="M3.75 40.375H1.25C0.56 40.375 0 39.843 0 39.1875V36.8125C0 36.157 0.56 35.625 1.25 35.625H3.75V40.375Z" fill="#92582B"/>
<path d="M37.5 74.8125V72.4375H42.5V74.8125C42.5 75.468 41.94 76 41.25 76H38.75C38.06 76 37.5 75.468 37.5 74.8125Z" fill="#92582B"/>
<path d="M37.5 3.5625V1.1875C37.5 0.532 38.06 0 38.75 0H41.25C41.94 0 42.5 0.532 42.5 1.1875V3.5625H37.5Z" fill="#92582B"/>
<path d="M40 2.375C19.2887 2.375 2.5 18.3243 2.5 38C2.5 57.6757 19.2887 73.625 40 73.625C60.7113 73.625 77.5 57.6757 77.5 38C77.5 18.3243 60.7113 2.375 40 2.375ZM40 57C28.9538 57 20 48.4939 20 38C20 27.5061 28.9538 19 40 19C51.0462 19 60 27.5061 60 38C60 48.4939 51.0462 57 40 57Z" fill="#E2E7F0"/>
<path d="M72.1625 42.4769C70.0975 56.0096 58.9075 66.6401 44.6625 68.6019C42.0187 68.9581 40.0412 71.0885 40 73.625C60.7113 73.625 77.5 57.6757 77.5 38C74.795 38.019 72.5175 39.9285 72.1625 42.4769Z" fill="#C9D5E3"/>
<path d="M59.9998 38.0002C59.9998 41.0034 59.2448 43.9626 57.7998 46.6333L75.5873 49.2339C78.1361 41.9439 78.1361 34.0684 75.5873 26.7783L57.7998 29.3671C59.2448 32.0378 59.9986 34.997 59.9998 38.0002Z" fill="url(#paint0_linear_246_881)"/>
<path d="M51.8248 71.8078L49.0873 54.9097C43.3848 57.6991 36.6148 57.6991 30.9123 54.9097L28.1748 71.8078C35.8523 74.2315 44.1473 74.2315 51.8248 71.8078Z" fill="url(#paint1_linear_246_881)"/>
<path d="M70.5625 48.4975L75.5625 49.2337C76.1762 47.4739 76.6437 45.6712 76.9625 43.8425V43.7356C77.1125 42.8806 77.2125 42.0019 77.3 41.1231C77.3 40.9688 77.3 40.8025 77.3 40.6481C77.5 39.7694 77.5 38.8906 77.5 38C74.795 38.019 72.5175 39.9285 72.1625 42.4769C71.845 44.5301 71.3087 46.5476 70.5625 48.4975Z" fill="#2BA357"/>
<path d="M43.275 73.4822C44.2 73.399 45.125 73.304 46.025 73.1615H46.125C48.0538 72.8599 49.9563 72.4146 51.8125 71.8315L51.0375 67.0815C48.9838 67.7857 46.8612 68.2916 44.7 68.5897C42.0375 68.9305 40.0375 71.0727 40 73.6247C40.9375 73.6247 41.8625 73.6247 42.7875 73.5178L43.275 73.4822Z" fill="#2BA357"/>
<path d="M40 19V14.25C26.1925 14.25 15 24.8829 15 38H20C20 27.5061 28.9538 19 40 19Z" fill="#C9D5E3"/>
<path d="M19.9996 37.9999C19.9996 35.119 20.6921 32.2762 22.0246 29.6874L4.07465 27.7637C1.9634 34.4445 1.9634 41.5672 4.07465 48.248L22.0121 46.3124C20.6834 43.7237 19.9959 40.8796 19.9996 37.9999Z" fill="url(#paint2_linear_246_881)"/>
<path d="M16.8122 29.1533C16.2884 30.3658 15.8709 31.6162 15.5622 32.8939C15.0647 35.1941 16.6247 37.4409 19.0459 37.9135C19.3597 37.9753 19.6797 38.0038 19.9997 38.0002C20.0009 37.2984 20.0422 36.5966 20.1247 35.8983C20.1247 35.7558 20.1247 35.6252 20.1872 35.4827C20.2622 34.9127 20.3747 34.2952 20.4997 33.7964L20.5747 33.4996C20.7334 32.8904 20.9209 32.2966 21.1372 31.7183V31.5996C21.3959 30.9476 21.6922 30.3088 22.0247 29.6877L16.8122 29.1533Z" fill="#2BA357"/>
<path d="M28.1748 4.19179L30.9123 21.0899C36.6161 18.304 43.3836 18.304 49.0873 21.0899L51.8248 4.19179C44.1473 1.7681 35.8523 1.7681 28.1748 4.19179Z" fill="url(#paint3_linear_246_881)"/>
<path d="M30.125 16.1857L30.925 21.0901C31.5387 20.7944 32.1688 20.5284 32.8125 20.2945L33.425 20.0807C33.8 19.962 34.175 19.8432 34.55 19.7363L35.6125 19.4751L36.25 19.3563C36.7663 19.2613 37.2913 19.1865 37.825 19.1307H38.225C38.75 19.0001 39.3875 19.0001 40 19.0001C40.0138 16.6453 38.015 14.7263 35.5363 14.7144C35.2125 14.7132 34.8913 14.7441 34.575 14.8082C33.05 15.1336 31.56 15.5955 30.125 16.1857Z" fill="#2BA357"/>
</g>
<defs>
<linearGradient id="paint0_linear_246_881" x1="57.5998" y1="29.6402" x2="74.6955" y2="50.0174" gradientUnits="userSpaceOnUse">
<stop stop-color="#3FC2E2"/>
<stop offset="1" stop-color="#4CDB80"/>
</linearGradient>
<linearGradient id="paint1_linear_246_881" x1="31.7331" y1="56.493" x2="50.9399" y2="72.3976" gradientUnits="userSpaceOnUse">
<stop stop-color="#3FC2E2"/>
<stop offset="1" stop-color="#4CDB80"/>
</linearGradient>
<linearGradient id="paint2_linear_246_881" x1="4.26621" y1="48.1333" x2="20.8787" y2="28.7918" gradientUnits="userSpaceOnUse">
<stop stop-color="#3FC2E2"/>
<stop offset="1" stop-color="#4CDB80"/>
</linearGradient>
<linearGradient id="paint3_linear_246_881" x1="51.7331" y1="4.55989" x2="31.8303" y2="22.2871" gradientUnits="userSpaceOnUse">
<stop stop-color="#3FC2E2"/>
<stop offset="1" stop-color="#4CDB80"/>
</linearGradient>
<clipPath id="clip0_246_881">
<rect width="80" height="76" fill="white"/>
</clipPath>
</defs>
</svg>
