<svg width="71" height="71" viewBox="0 0 71 71" fill="none" xmlns="http://www.w3.org/2000/svg">
<g filter="url(#filter0_d_209_2490)">
<path d="M26.4736 65.4043V44.4366H5.50586C2.74444 44.4366 0.505859 42.198 0.505859 39.4366V31.372C0.505859 28.6106 2.74444 26.372 5.50586 26.372H26.4736V5.4043C26.4736 2.64288 28.7122 0.404297 31.4736 0.404297H39.5381C42.2995 0.404297 44.5381 2.64287 44.5381 5.4043V26.372H65.5059C68.2673 26.372 70.5059 28.6106 70.5059 31.372V39.4366C70.5059 42.198 68.2673 44.4366 65.5059 44.4366H44.5381V65.4043C44.5381 68.1657 42.2995 70.4043 39.5381 70.4043H31.4736C28.7122 70.4043 26.4736 68.1657 26.4736 65.4043Z" fill="white"/>
</g>
<defs>
<filter id="filter0_d_209_2490" x="0.505859" y="0.404297" width="70" height="70" filterUnits="userSpaceOnUse" color-interpolation-filters="sRGB">
<feFlood flood-opacity="0" result="BackgroundImageFix"/>
<feColorMatrix in="SourceAlpha" type="matrix" values="0 0 0 0 0 0 0 0 0 0 0 0 0 0 0 0 0 0 127 0" result="hardAlpha"/>
<feOffset/>
<feComposite in2="hardAlpha" operator="out"/>
<feColorMatrix type="matrix" values="0 0 0 0 1 0 0 0 0 1 0 0 0 0 1 0 0 0 0.01 0"/>
<feBlend mode="normal" in2="BackgroundImageFix" result="effect1_dropShadow_209_2490"/>
<feBlend mode="normal" in="SourceGraphic" in2="effect1_dropShadow_209_2490" result="shape"/>
</filter>
</defs>
</svg>
