<svg width="13" height="15" viewBox="0 0 13 15" fill="none" xmlns="http://www.w3.org/2000/svg">
<path fill-rule="evenodd" clip-rule="evenodd" d="M9.45011 2.96236C9.45011 4.40199 8.27068 5.56803 6.8145 5.56803C5.35833 5.56803 4.17889 4.40199 4.17889 2.96236C4.17889 1.52273 5.35833 0.356689 6.8145 0.356689C8.27068 0.356689 9.45011 1.52273 9.45011 2.96236ZM8.13293 2.96231C8.13293 2.24575 7.53991 1.65947 6.81512 1.65947C6.09033 1.65947 5.49731 2.24575 5.49731 2.96231C5.49731 3.67887 6.09033 4.26514 6.81512 4.26514C7.53991 4.26514 8.13293 3.67887 8.13293 2.96231ZM6.81489 7.22906C5.25988 5.79594 3.17775 4.91653 0.884766 4.91653V12.0821C3.17775 12.0821 5.25988 12.9615 6.81489 14.3947C8.3699 12.9681 10.452 12.0821 12.745 12.0821V4.91653C10.452 4.91653 8.3699 5.79594 6.81489 7.22906ZM6.81447 12.701C8.1784 11.7109 9.75976 11.0855 11.4268 10.864V6.33668C10.0431 6.58422 8.75823 7.21609 7.71057 8.18019L6.81447 9.00749L5.91836 8.17368C4.8707 7.20958 3.58584 6.5777 2.20215 6.33017V10.8575C3.86917 11.079 5.45713 11.7109 6.81447 12.701Z" fill="white"/>
</svg>
