<svg width="19" height="18" viewBox="0 0 19 18" fill="none" xmlns="http://www.w3.org/2000/svg">
<path fill-rule="evenodd" clip-rule="evenodd" d="M14.2441 0.000244141H5.24414C2.76937 0.000244141 0.744141 2.02457 0.744141 4.50024V13.5002C0.744141 15.975 2.76937 18.0002 5.24414 18.0002H14.2441C16.7189 18.0002 18.7441 15.975 18.7441 13.5002V4.50024C18.7441 2.02457 16.7189 0.000244141 14.2441 0.000244141ZM9.74414 12.7501C7.67279 12.7501 5.99407 11.0707 5.99407 9.00024C5.99407 6.92889 7.67279 5.25017 9.74414 5.25017C11.8146 5.25017 13.4942 6.92889 13.4942 9.00024C13.4942 11.0707 11.8146 12.7501 9.74414 12.7501ZM13.4942 4.12517C13.4942 4.74639 13.9973 5.25017 14.6192 5.25017C15.2411 5.25017 15.7442 4.74639 15.7442 4.12517C15.7442 3.50394 15.2411 3.00017 14.6192 3.00017C13.9973 3.00017 13.4942 3.50394 13.4942 4.12517Z" fill="#0A142F"/>
</svg>
