<svg width="63" height="61" viewBox="0 0 63 61" fill="none" xmlns="http://www.w3.org/2000/svg">
<g clip-path="url(#clip0_367_781)">
<path d="M49.2161 57.449H48.4595L40.6512 56.9146C38.1002 56.7365 34.6859 56.6428 31.0485 56.6428C27.4111 56.6428 23.9968 56.7365 21.4457 56.9146L13.5793 57.4209C10.7314 57.6684 7.92433 56.6306 5.97469 54.6084C4.24135 52.7484 3.38196 50.2781 3.59826 47.7834L4.16084 40.1896C4.53913 34.004 4.53913 27.8034 4.16084 21.6178L3.59826 14.0334C3.38002 11.5162 4.25881 9.02526 6.02319 7.16151C7.97283 5.13932 10.7799 4.10151 13.6278 4.34901L21.436 4.93026C23.9871 5.10838 27.4014 5.20213 31.0388 5.20213C34.6762 5.20213 38.0905 5.10838 40.6415 4.93026L48.4983 4.39588C51.3461 4.14838 54.1532 5.18619 56.1029 7.20838C57.8362 9.06838 58.6956 11.5387 58.4793 14.0334L57.9167 21.6271C57.5384 27.8128 57.5384 34.0134 57.9167 40.199L58.4793 47.7834C58.714 50.3146 57.8381 52.8253 56.0641 54.7021C54.2803 56.504 51.7962 57.5006 49.2161 57.449ZM31.0388 54.7396C34.7247 54.7396 38.1875 54.8428 40.7385 55.0209L48.5468 55.5553C52.5101 55.9659 56.066 53.1928 56.4908 49.3631C56.5452 48.869 56.5452 48.3712 56.4908 47.8771L55.9768 40.2834C55.5936 34.0106 55.5936 27.7218 55.9768 21.449L56.5393 13.9021C56.9419 10.0696 54.0543 6.64682 50.089 6.25776C49.5924 6.20901 49.0919 6.20994 48.5953 6.26151L40.7385 6.79588C38.139 6.97401 34.6859 7.07713 31.0388 7.07713C27.3917 7.07713 23.8901 6.97401 21.339 6.79588L13.4823 6.26151C11.2348 6.04869 9.00876 6.83901 7.43935 8.40838C6.02222 9.89807 5.31802 11.8949 5.4994 13.9115L6.10079 21.5334C6.48102 27.7781 6.48102 34.0387 6.10079 40.2834L5.5382 47.8771C5.35682 49.8937 6.06102 51.8906 7.47815 53.3803C9.04271 54.9599 11.2688 55.7615 13.5211 55.5553L21.339 55.0209C23.8901 54.8334 27.3529 54.7396 31.0388 54.7396Z" fill="#9DACBA"/>
<path d="M61.1079 32.7834H59.168V29.0334H61.1079C61.6433 29.0334 62.0779 29.4534 62.0779 29.9709V31.8459C62.0779 32.3634 61.6433 32.7834 61.1079 32.7834Z" fill="#92582B"/>
<path d="M2.90992 32.7834H0.969972C0.434548 32.7834 0 32.3634 0 31.8459V29.9709C0 29.4534 0.434548 29.0334 0.969972 29.0334H2.90992V32.7834Z" fill="#92582B"/>
<path d="M29.0996 59.9709V58.0959H32.9795V59.9709C32.9795 60.4884 32.545 60.9084 32.0095 60.9084H30.0696C29.5342 60.9084 29.0996 60.4884 29.0996 59.9709Z" fill="#92582B"/>
<path d="M29.0996 3.72095V1.84595C29.0996 1.32845 29.5342 0.908447 30.0696 0.908447H32.0095C32.545 0.908447 32.9795 1.32845 32.9795 1.84595V3.72095H29.0996Z" fill="#92582B"/>
<path d="M31.0396 2.78345C14.9681 2.78345 1.94043 15.375 1.94043 30.9084C1.94043 46.4419 14.9681 59.0334 31.0396 59.0334C47.1111 59.0334 60.1388 46.4419 60.1388 30.9084C60.1388 15.375 47.1111 2.78345 31.0396 2.78345ZM31.0396 45.9084C22.468 45.9084 15.52 39.1931 15.52 30.9084C15.52 22.6238 22.468 15.9084 31.0396 15.9084C39.6112 15.9084 46.5592 22.6238 46.5592 30.9084C46.5592 39.1931 39.6112 45.9084 31.0396 45.9084Z" fill="#E2E7F0"/>
<path d="M55.9965 34.4428C54.3941 45.1266 45.7109 53.5191 34.6571 55.0678C32.6056 55.3491 31.0711 57.0309 31.0391 59.0334C47.1105 59.0334 60.1382 46.4419 60.1382 30.9084C58.0392 30.9234 56.2719 32.4309 55.9965 34.4428Z" fill="#C9D5E3"/>
<path d="M46.5587 30.9084C46.5587 33.2794 45.9729 35.6156 44.8516 37.7241L58.6543 39.7772C60.632 34.0219 60.632 27.8044 58.6543 22.0491L44.8516 24.0928C45.9729 26.2013 46.5577 28.5375 46.5587 30.9084Z" fill="url(#paint0_linear_367_781)"/>
<path d="M40.2142 57.5987L38.0899 44.2581C33.6649 46.4602 28.4116 46.4602 23.9865 44.2581L21.8623 57.5987C27.8199 59.5121 34.2566 59.5121 40.2142 57.5987Z" fill="url(#paint1_linear_367_781)"/>
<path d="M54.7549 39.1959L58.6348 39.7772C59.111 38.3878 59.4738 36.9647 59.7211 35.5209V35.4366C59.8375 34.7616 59.9151 34.0678 59.983 33.3741C59.983 33.2522 59.983 33.1209 59.983 32.9991C60.1382 32.3053 60.1382 31.6116 60.1382 30.9084C58.0392 30.9234 56.2719 32.4309 55.9964 34.4428C55.7501 36.0638 55.334 37.6566 54.7549 39.1959Z" fill="#2BA357"/>
<path d="M33.5804 58.9206C34.2982 58.8549 35.0159 58.7799 35.7143 58.6674H35.7919C37.2886 58.4293 38.7649 58.0777 40.2053 57.6174L39.6039 53.8674C38.0103 54.4234 36.3632 54.8227 34.6862 55.0581C32.6201 55.3271 31.0682 57.0184 31.0391 59.0331C31.7665 59.0331 32.4843 59.0331 33.2021 58.9487L33.5804 58.9206Z" fill="#2BA357"/>
<path d="M31.0391 15.9084V12.1584C20.3248 12.1584 11.6396 20.5528 11.6396 30.9084H15.5195C15.5195 22.6238 22.4675 15.9084 31.0391 15.9084Z" fill="#C9D5E3"/>
<path d="M15.5198 30.9084C15.5198 28.634 16.0571 26.3896 17.0911 24.3459L3.16231 22.8271C1.52402 28.1015 1.52402 33.7247 3.16231 38.999L17.0814 37.4709C16.0503 35.4272 15.5168 33.1818 15.5198 30.9084Z" fill="url(#paint2_linear_367_781)"/>
<path d="M13.0466 23.9241C12.6402 24.8813 12.3162 25.8684 12.0766 26.8772C11.6906 28.6931 12.9011 30.4669 14.7799 30.84C15.0234 30.8888 15.2717 30.9113 15.52 30.9084C15.521 30.3544 15.553 29.8003 15.617 29.2491C15.617 29.1366 15.617 29.0334 15.6655 28.9209C15.7237 28.4709 15.811 27.9834 15.908 27.5897L15.9662 27.3553C16.0894 26.8744 16.2349 26.4056 16.4027 25.9491V25.8553C16.6035 25.3406 16.8334 24.8363 17.0914 24.3459L13.0466 23.9241Z" fill="#2BA357"/>
<path d="M21.8633 4.21779L23.9875 17.5584C28.4135 15.359 33.6649 15.359 38.0909 17.5584L40.2152 4.21779C34.2576 2.30436 27.8209 2.30436 21.8633 4.21779Z" fill="url(#paint3_linear_367_781)"/>
<path d="M23.376 13.6865L23.9968 17.5584C24.473 17.3249 24.9619 17.1149 25.4614 16.9302L25.9367 16.7615C26.2277 16.6677 26.5187 16.574 26.8097 16.4896L27.6342 16.2834L28.1288 16.1896C28.5294 16.1146 28.9368 16.0556 29.351 16.0115H29.6614C30.0688 15.9084 30.5635 15.9084 31.0388 15.9084C31.0494 14.0493 29.4984 12.5343 27.575 12.5249C27.3238 12.524 27.0745 12.5484 26.8291 12.599C25.6457 12.8559 24.4895 13.2206 23.376 13.6865Z" fill="#2BA357"/>
</g>
<defs>
<linearGradient id="paint0_linear_367_781" x1="44.6964" y1="24.3084" x2="58.2315" y2="40.1659" gradientUnits="userSpaceOnUse">
<stop stop-color="#3FC2E2"/>
<stop offset="1" stop-color="#4CDB80"/>
</linearGradient>
<linearGradient id="paint1_linear_367_781" x1="24.6235" y1="45.5081" x2="39.7359" y2="57.8083" gradientUnits="userSpaceOnUse">
<stop stop-color="#3FC2E2"/>
<stop offset="1" stop-color="#4CDB80"/>
</linearGradient>
<linearGradient id="paint2_linear_367_781" x1="3.31095" y1="38.9084" x2="16.4583" y2="23.8629" gradientUnits="userSpaceOnUse">
<stop stop-color="#3FC2E2"/>
<stop offset="1" stop-color="#4CDB80"/>
</linearGradient>
<linearGradient id="paint3_linear_367_781" x1="40.144" y1="4.5084" x2="24.4647" y2="18.235" gradientUnits="userSpaceOnUse">
<stop stop-color="#3FC2E2"/>
<stop offset="1" stop-color="#4CDB80"/>
</linearGradient>
<clipPath id="clip0_367_781">
<rect width="62.0782" height="60" fill="white" transform="translate(0 0.908447)"/>
</clipPath>
</defs>
</svg>
