<svg width="15" height="16" viewBox="0 0 15 16" fill="none" xmlns="http://www.w3.org/2000/svg">
<path fill-rule="evenodd" clip-rule="evenodd" d="M10.748 3.01743C11.9931 3.08019 13.2306 3.16387 14.4681 3.27545C14.7909 3.30334 15.0215 3.56136 14.9984 3.84728C14.9677 4.11924 14.714 4.32147 14.422 4.32147H14.3605C10.2868 3.95188 6.22854 3.81241 2.20098 4.17503L0.633011 4.3145C0.310193 4.3424 0.0334927 4.13319 0.00274819 3.84728C-0.0279963 3.56136 0.202588 3.30334 0.525405 3.27545L2.09338 3.13598C2.80819 3.07322 3.523 3.03138 4.23781 2.98954L4.39921 2.09693C4.52219 1.4205 4.69129 0.5 6.48218 0.5H8.49594C10.2907 0.5 10.4629 1.45826 10.5782 2.09981L10.5789 2.1039L10.748 3.01046V3.01743ZM12.3533 5.03278C12.6147 5.03278 12.8683 5.1304 13.0528 5.30474C13.2295 5.47908 13.3295 5.71618 13.3141 5.96722L12.8376 13.1151C12.7531 14.182 12.6454 15.5 9.96294 15.5H5.02848C2.34602 15.5 2.23842 14.175 2.15387 13.1151L1.67733 5.96025C1.66196 5.71618 1.76188 5.47908 1.93866 5.30474C2.11544 5.1304 2.37677 5.03278 2.6381 5.03278H12.3533ZM6.21211 12.0063H8.77159C9.08672 12.0063 9.34805 11.7692 9.34805 11.4833C9.34805 11.1973 9.08672 10.9602 8.77159 10.9602H6.21211C5.89702 10.9602 5.63569 11.1973 5.63569 11.4833C5.63569 11.7692 5.89702 12.0063 6.21211 12.0063ZM5.5742 9.21687H9.41722C9.73236 9.21687 9.99368 8.97977 9.99368 8.69386C9.99368 8.40795 9.73236 8.17085 9.41722 8.17085H5.5742C5.25907 8.17085 4.99774 8.40795 4.99774 8.69386C4.99774 8.97977 5.25907 9.21687 5.5742 9.21687Z" fill="white"/>
</svg>
