<svg width="73" height="71" viewBox="0 0 73 71" fill="none" xmlns="http://www.w3.org/2000/svg">
<g filter="url(#filter0_d_212_1147)">
<path d="M62.6797 0.404297C60.5635 0.40736 56.6863 1.91106 55.2756 3.46775H7.11843C2.15206 3.46775 2.15206 13.2708 7.11843 13.2708H55.2768C56.6873 14.8271 60.564 16.3309 62.6798 16.3343C65.3373 16.3304 67.7916 14.317 69.1206 12.0454H62.9902L59.5758 8.36929L62.9902 4.69314H69.1235C67.7943 2.42082 65.3382 0.407054 62.6797 0.404297ZM9.60161 5.91852C10.9731 5.91852 12.0848 7.0157 12.0848 8.36929C12.0848 9.72287 10.9731 10.8201 9.60161 10.8201C8.23028 10.8201 7.11843 9.72287 7.11843 8.36929C7.11843 7.0157 8.23028 5.91852 9.60161 5.91852ZM21.361 23.8397C20.1195 23.8397 19.2146 24.4583 18.2313 25.1897C17.248 25.9209 16.2168 26.866 15.121 27.8962C12.9867 29.9022 10.6042 32.2295 8.35304 33.7502L15.4002 33.924C17.1337 30.7154 18.2367 27.738 21.361 26.5969H32.3802V34.3431L35.1738 34.412V26.5969H38.7433C40.5281 26.5969 43.5464 28.2027 46.5618 30.5835C48.1887 31.8681 49.8309 33.3421 51.3911 34.8123L59.0907 35.0022L66.8086 26.1154L64.6873 24.3212L55.4938 34.9068C53.3285 32.7892 50.8453 30.4348 48.3072 28.4306C45.1142 25.9102 41.9249 23.8397 38.7433 23.8397H21.361ZM3.97503 36.4005C3.19981 36.4018 2.26257 36.8264 1.55191 37.5279C0.840167 38.23 0.40918 39.157 0.40918 39.9229C0.40918 41.9141 1.53841 44.8643 2.9906 47.1573C3.6665 48.2249 4.40648 49.1571 5.06717 49.8091C5.06701 49.7813 5.06515 49.754 5.06515 49.726C5.06515 44.9203 9.04228 40.9951 13.9115 40.9951C18.7806 40.9951 22.7578 44.9203 22.7578 49.726C22.7578 50.089 22.7325 50.4465 22.6885 50.7982H52.315C52.2696 50.4425 52.2464 50.0844 52.2456 49.726C52.2456 44.9203 56.2228 40.9951 61.092 40.9951C65.961 40.9951 69.9383 44.9203 69.9383 49.726C69.9383 50.089 69.913 50.4465 69.8689 50.7982H71.3266L72.108 43.8555C72.0916 41.8913 71.134 40.488 69.8416 39.4675C68.538 38.4382 66.8344 37.9316 66.0583 37.9316H66.0407L3.97503 36.4005ZM13.9115 43.7522C10.5521 43.7522 7.85873 46.4104 7.85873 49.726C7.85873 53.0415 10.5521 55.6997 13.9115 55.6997C17.2708 55.6997 19.9643 53.0415 19.9643 49.726C19.9643 46.4104 17.2708 43.7522 13.9115 43.7522ZM61.092 43.7522C57.7325 43.7522 55.0392 46.4104 55.0392 49.726C55.0392 53.0415 57.7325 55.6997 61.092 55.6997C64.4513 55.6997 67.1447 53.0415 67.1447 49.726C67.1447 46.4104 64.4513 43.7522 61.092 43.7522ZM27.7242 53.5553V55.6997H44.7961V53.5553H27.7242ZM35.1738 58.4568V65.5028H37.3465V58.4568H35.1738ZM29.6738 68.2599L28.5874 70.4043H43.9327L42.8463 68.2599H29.6738Z" fill="white"/>
</g>
<defs>
<filter id="filter0_d_212_1147" x="0.40918" y="0.404297" width="71.6992" height="70" filterUnits="userSpaceOnUse" color-interpolation-filters="sRGB">
<feFlood flood-opacity="0" result="BackgroundImageFix"/>
<feColorMatrix in="SourceAlpha" type="matrix" values="0 0 0 0 0 0 0 0 0 0 0 0 0 0 0 0 0 0 127 0" result="hardAlpha"/>
<feOffset/>
<feComposite in2="hardAlpha" operator="out"/>
<feColorMatrix type="matrix" values="0 0 0 0 1 0 0 0 0 1 0 0 0 0 1 0 0 0 0.01 0"/>
<feBlend mode="normal" in2="BackgroundImageFix" result="effect1_dropShadow_212_1147"/>
<feBlend mode="normal" in="SourceGraphic" in2="effect1_dropShadow_212_1147" result="shape"/>
</filter>
</defs>
</svg>
