<svg width="108" height="65" viewBox="0 0 108 65" fill="none" xmlns="http://www.w3.org/2000/svg">
<g filter="url(#filter0_d_209_861)">
<path d="M25.72 64.232C41.648 64.232 50.8 51.208 50.8 32.2C50.8 13.192 41.648 0.167996 25.72 0.167996C9.792 0.167996 0.64 13.192 0.64 32.2C0.64 51.208 9.792 64.232 25.72 64.232ZM25.72 50.504C18.328 50.504 14.72 44.08 14.72 32.2C14.72 20.32 18.328 13.896 25.72 13.896C33.112 13.896 36.72 20.32 36.72 32.2C36.72 44.08 33.112 50.504 25.72 50.504ZM68.6949 1.4L52.5909 7.208L56.0229 19.264L66.9349 16.272V63H81.0149V1.4H68.6949ZM99.5231 64.232C104.099 64.232 107.883 60.448 107.883 55.872C107.883 51.296 104.099 47.512 99.5231 47.512C94.9471 47.512 91.1631 51.296 91.1631 55.872C91.1631 60.448 94.9471 64.232 99.5231 64.232Z" fill="url(#paint0_linear_209_861)"/>
</g>
<defs>
<filter id="filter0_d_209_861" x="0.639648" y="0.167969" width="107.243" height="64.064" filterUnits="userSpaceOnUse" color-interpolation-filters="sRGB">
<feFlood flood-opacity="0" result="BackgroundImageFix"/>
<feColorMatrix in="SourceAlpha" type="matrix" values="0 0 0 0 0 0 0 0 0 0 0 0 0 0 0 0 0 0 127 0" result="hardAlpha"/>
<feOffset/>
<feComposite in2="hardAlpha" operator="out"/>
<feColorMatrix type="matrix" values="0 0 0 0 1 0 0 0 0 1 0 0 0 0 1 0 0 0 0.01 0"/>
<feBlend mode="normal" in2="BackgroundImageFix" result="effect1_dropShadow_209_861"/>
<feBlend mode="normal" in="SourceGraphic" in2="effect1_dropShadow_209_861" result="shape"/>
</filter>
<linearGradient id="paint0_linear_209_861" x1="112" y1="-26.9999" x2="-5.17971" y2="-23.6264" gradientUnits="userSpaceOnUse">
<stop stop-color="#3FC3E0"/>
<stop offset="1" stop-color="#4CDB80"/>
</linearGradient>
</defs>
</svg>
