<svg width="119" height="65" viewBox="0 0 119 65" fill="none" xmlns="http://www.w3.org/2000/svg">
<g filter="url(#filter0_d_209_869)">
<path d="M25.72 64.232C41.648 64.232 50.8 51.208 50.8 32.2C50.8 13.192 41.648 0.167996 25.72 0.167996C9.792 0.167996 0.64 13.192 0.64 32.2C0.64 51.208 9.792 64.232 25.72 64.232ZM25.72 50.504C18.328 50.504 14.72 44.08 14.72 32.2C14.72 20.32 18.328 13.896 25.72 13.896C33.112 13.896 36.72 20.32 36.72 32.2C36.72 44.08 33.112 50.504 25.72 50.504ZM83.4136 26.392L94.0616 12.84V1.4H54.4616V14.6H76.9896L65.8136 28.768L71.1816 36.776H74.0856C79.8936 36.776 82.4456 39.856 82.4456 43.64C82.4456 47.424 79.8936 50.504 74.0856 50.504C68.7176 50.504 66.0776 48.04 64.6696 43.992L52.5256 51.032C56.3096 60.096 64.7576 64.232 74.0856 64.232C85.9656 64.232 96.5256 57.192 96.5256 43.64C96.5256 35.104 90.9816 29.032 83.4136 26.392ZM109.75 64.232C114.326 64.232 118.11 60.448 118.11 55.872C118.11 51.296 114.326 47.512 109.75 47.512C105.174 47.512 101.39 51.296 101.39 55.872C101.39 60.448 105.174 64.232 109.75 64.232Z" fill="url(#paint0_linear_209_869)"/>
</g>
<defs>
<filter id="filter0_d_209_869" x="0.639648" y="0.167969" width="117.47" height="64.064" filterUnits="userSpaceOnUse" color-interpolation-filters="sRGB">
<feFlood flood-opacity="0" result="BackgroundImageFix"/>
<feColorMatrix in="SourceAlpha" type="matrix" values="0 0 0 0 0 0 0 0 0 0 0 0 0 0 0 0 0 0 127 0" result="hardAlpha"/>
<feOffset/>
<feComposite in2="hardAlpha" operator="out"/>
<feColorMatrix type="matrix" values="0 0 0 0 1 0 0 0 0 1 0 0 0 0 1 0 0 0 0.01 0"/>
<feBlend mode="normal" in2="BackgroundImageFix" result="effect1_dropShadow_209_869"/>
<feBlend mode="normal" in="SourceGraphic" in2="effect1_dropShadow_209_869" result="shape"/>
</filter>
<linearGradient id="paint0_linear_209_869" x1="123" y1="-26.9999" x2="-5.465" y2="-22.9446" gradientUnits="userSpaceOnUse">
<stop stop-color="#3FC3E0"/>
<stop offset="1" stop-color="#4CDB80"/>
</linearGradient>
</defs>
</svg>
